SplineFontDB: 3.2
FontName: Spritulo
FullName: Spritulo
FamilyName: Spritulo
Weight: Regular
Copyright: (C) 2022-2024 UkiyoMoji Fonts
Version: 1.0
ItalicAngle: 0
UnderlinePosition: -153
UnderlineWidth: 64
Ascent: 800
Descent: 200
InvalidEm: 0
UFOAscent: 640
UFODescent: -160
LayerCount: 2
Layer: 0 0 "Back" 1
Layer: 1 0 "public.default" 0 "glyphs"
PreferredKerning: 1
StyleMap: 0x0040
FSType: 0
OS2Version: 0
OS2_WeightWidthSlopeOnly: 0
OS2_UseTypoMetrics: 0
CreationTime: 1730629778
ModificationTime: 1732072084
PfmFamily: 16
TTFWeight: 400
TTFWidth: 5
LineGap: 0
VLineGap: 0
Panose: 2 0 5 3 0 0 0 0 0 0
OS2TypoAscent: 640
OS2TypoAOffset: 0
OS2TypoDescent: -160
OS2TypoDOffset: 0
OS2TypoLinegap: 80
OS2WinAscent: 600
OS2WinAOffset: 0
OS2WinDescent: 200
OS2WinDOffset: 0
HheadAscent: 960
HheadAOffset: 0
HheadDescent: -256
HheadDOffset: 0
OS2SubXSize: 520
OS2SubYSize: 559
OS2SubXOff: 0
OS2SubYOff: 112
OS2SupXSize: 520
OS2SupYSize: 559
OS2SupXOff: 0
OS2SupYOff: 383
OS2StrikeYSize: 39
OS2StrikeYPos: 206
OS2CapHeight: 720
OS2XHeight: 435
OS2FamilyClass: 2568
OS2Vendor: 'UKYO'
OS2CodePages: 0000009f.00000000
Lookup: 262 0 0 "'mkmk' Mark to Mark lookup 1" { "'mkmk' Mark to Mark lookup 1-1"  } ['mkmk' ('DFLT' <'dflt' > 'cyrl' <'dflt' > 'grek' <'dflt' > 'latn' <'dflt' > 'shaw' <'dflt' > ) ]
Lookup: 258 0 0 "'kern' Horizontal Kerning lookup 0" { "'kern' Horizontal Kerning lookup 0 subtable" [150,15,0] } ['kern' ('DFLT' <'dflt' > ) ]
MarkAttachClasses: 1
DEI: 91125
GroupKern: "A" "D" -18
GroupKern: "A" "E" -26
GroupKern: "A" "F" -19
GroupKern: "A" "O" -22
GroupKern: "A" "P" -27
GroupKern: "A" "Q" -30
GroupKern: "A" "T" -81
GroupKern: "A" "U" -24
GroupKern: "A" "V" -74
GroupKern: "A" "W" -67
GroupKern: "A" "X" -44
GroupKern: "A" "Y" -76
GroupKern: "A" "braceleft" -4
GroupKern: "A" "braceright" -64
GroupKern: "A" "bracketright" -89
GroupKern: "A" "f" -23
GroupKern: "A" "parenright" -50
GroupKern: "A" "question" -44
GroupKern: "A" "quotedbl" -83
GroupKern: "A" "quotesingle" -51

StartChar: .notdef
Encoding: 1114112 -1 0
GlifName: _notdef
Width: 1016
VWidth: 0
Flags: W
HStem: -227 89<517.144 551.734> 54 75<515.195 576.247> 411 67<496.324 567.982> 723 20G<521.5 536>
VStem: 466 88<213.526 295.247> 510 72<56.0625 123.349> 568 83<363.046 394>
LayerCount: 2
Fore
SplineSet
549 742 m 256xf4
 583 739 613 715 629 685 c 256
 645 655 699 594 707 589 c 256
 717 583 757 546 789 509 c 256
 794 504 798 496 803 491 c 257
 813 477 825 469 827 467 c 256
 845 455 911 381 925 370 c 257
 959 340 997 320 997 289 c 256
 997 270 988 256 978 251 c 256
 960 241 927 216 898 194 c 257
 879 178 830 123 800 86 c 256
 782 64 759 40 738 19 c 256
 708 -10 681 -52 659 -82 c 256
 637 -112 608 -147 586 -184 c 256
 574 -204 544 -227 531 -227 c 256
 530 -227 531 -227 530 -227 c 256
 527 -227 520 -222 517 -219 c 256
 514 -216 513 -206 510 -203 c 257
 500 -187 393 -110 374 -94 c 256
 369 -91 338 -69 325 -56 c 257
 195 53 167 92 162 98 c 256
 156 108 128 141 117 155 c 256
 109 166 45 240 45 258 c 256
 45 272 119 351 158 384 c 257
 169 392 191 415 205 429 c 258
 246 470 l 257
 275 494 300 520 310 534 c 257
 320 550 384 608 390 614 c 256
 391 615 400 631 434 667 c 256
 455 689 472 713 475 718 c 257
 491 736 509 743 534 743 c 256
 538 743 544 743 549 742 c 256xf4
574 -86 m 256
 593 -64 610 -45 610 -42 c 256
 610 -37 643 -6 658 22 c 256
 682 65 677 45 694 74 c 256
 709 100 741 114 755 141 c 257
 765 152 788 179 798 192 c 256
 801 197 814 205 822 218 c 256
 830 231 848 243 859 254 c 257
 869 265 883 278 896 291 c 257
 893 294 881 316 875 322 c 257
 869 327 822 376 803 395 c 256
 784 414 750 446 726 472 c 256
 700 499 678 528 675 530 c 256
 667 536 641 566 555 662 c 256
 549 668 541 676 538 674 c 256
 527 671 456 592 453 587 c 256
 450 582 443 578 435 570 c 257
 419 557 368 505 363 499 c 256
 304 427 242 380 210 342 c 256
 176 300 156 296 122 254 c 257
 133 232 152 212 158 202 c 256
 211 121 284 55 358 -6 c 256
 406 -48 490 -111 530 -138 c 257
 546 -138 544 -120 574 -86 c 256
547 54 m 257
 521 56 510 59 510 82 c 256
 510 83 511 129 542 129 c 256
 562 129 582 109 582 87 c 256
 582 65 566 54 547 54 c 257
571 215 m 256
 571 197 531 187 521 187 c 256
 509 187 502 195 485 214 c 256
 471 232 466 240 466 249 c 256
 466 254 467 259 469 267 c 256
 474 285 484 301 506 323 c 257
 524 339 545 360 555 373 c 256
 564 384 568 389 568 394 c 257
 568 394 566 411 550 411 c 256
 539 411 524 404 518 398 c 256
 515 395 501 392 490 386 c 256
 475 377 457 370 439 370 c 256
 429 370 426 374 422 387 c 256
 420 394 419 400 419 406 c 256
 419 424 431 436 459 454 c 257
 488 472 498 478 530 478 c 256
 580 478 585 472 603 466 c 256
 606 464 616 460 626 454 c 257
 642 445 651 427 651 409 c 256
 651 363 554 293 554 251 c 256xfa
 554 237 571 229 571 215 c 256
EndSplineSet
PickledDataWithLists: "(dp0
Vcom.fontlab.hintData\\u000d\\u000d\\u000d
p1
(dp2
Vhhints\\u000d\\u000d\\u000d
p3
(lp4
(dp5
Vposition\\u000d\\u000d\\u000d
p6
I68
sVwidth\\u000d\\u000d\\u000d
p7
I90
sa(dp8
g6
I514
sg7
I84
sa(dp9
g6
I909
sg7
I20
sasVvhints\\u000d\\u000d\\u000d
p10
(lp11
(dp12
g6
I582
sg7
I109
sa(dp13
g6
I640
sg7
I88
sass."
EndChar

StartChar: A
Encoding: 65 65 1
GlifName: A_
Width: 518
VWidth: 0
Flags: W
HStem: -6 21G<457 471> 211 71<146.244 367.437> 643 80<281.837 309.295>
VStem: 439 58<-1.75 74.1664>
AnchorPoint: "bottom" 256 33 basemark 0
AnchorPoint: "top" 291 750 basemark 0
LayerCount: 2
Fore
SplineSet
327 565 m 256
 320 617 296 643 294 643 c 256
 292 643 284 626 278 613 c 257
 248 541 232 509 222 490 c 256
 211 469 209 461 199 435 c 256
 191 416 189 405 159 330 c 257
 151 312 145 297 145 294 c 257
 156 291 167 291 178 288 c 256
 184 286 212 282 268 282 c 256
 319 282 347 288 369 291 c 257
 364 336 364 352 345 453 c 257
 334 523 327 560 327 565 c 256
62 34 m 256
 45 34 25 60 25 78 c 256
 25 89 26 107 31 128 c 257
 41 204 69 287 106 354 c 257
 119 380 125 412 154 470 c 256
 155 472 187 563 233 667 c 257
 243 691 255 720 257 720 c 256
 260 722 271 723 287 723 c 256
 303 723 308 721 316 718 c 256
 336 710 372 666 377 646 c 256
 380 633 384 619 394 582 c 257
 404 557 405 442 442 243 c 256
 456 165 477 120 482 106 c 257
 487 88 497 56 497 38 c 256
 497 19 480 -6 462 -6 c 256
 452 -6 439 -1 439 13 c 256
 439 39 420 62 410 94 c 257
 397 132 385 194 377 226 c 257
 343 216 309 211 274 211 c 258
 238 211 l 258
 227 211 218 211 212 213 c 256
 183 222 158 213 129 230 c 257
 75 123 107 34 62 34 c 256
EndSplineSet
PickledDataWithLists: "(dp0
Vcom.fontlab.hintData\\u000d\\u000d\\u000d
p1
(dp2
Vhhints\\u000d\\u000d\\u000d
p3
(lp4
(dp5
Vposition\\u000d\\u000d\\u000d
p6
I-8
sVwidth\\u000d\\u000d\\u000d
p7
I21
sa(dp8
g6
I264
sg7
I88
sa(dp9
g6
I884
sg7
I20
sasVvhints\\u000d\\u000d\\u000d
p10
(lp11
(dp12
g6
I549
sg7
I72
sass."
EndChar

StartChar: AE
Encoding: 198 198 2
GlifName: A_E_
Width: 939
VWidth: 0
Flags: W
HStem: -10 72<518.166 708.332> 21 73<704.703 850.703> 277 67<186.613 426.418> 285 69<288.467 427> 307 63<493.533 741.519> 610 57<491.5 848.983> 619 77<326.233 393.76>
VStem: 427 65<363 579.399>
AnchorPoint: "bottom" 482 26 basechar 0
AnchorPoint: "top" 451 727 basechar 0
LayerCount: 2
Fore
SplineSet
429 285 m 257x91
 368 285 339 277 286 277 c 256x21
 244 277 209 279 168 285 c 257
 166 280 160 266 158 258 c 256
 124 123 119 172 102 50 c 256
 97 21 93 3 72 3 c 256
 42 3 35 25 35 59 c 256
 35 89 46 119 56 149 c 256
 70 192 76 233 94 299 c 256
 108 353 123 362 134 405 c 257
 137 432 147 446 160 475 c 256
 166 489 176 504 184 522 c 256
 210 570 219 594 259 637 c 256
 277 655 285 682 314 690 c 256
 322 693 336 696 354 696 c 256x13
 376 696 389 693 394 688 c 256
 412 670 553 667 584 667 c 256
 610 669 638 670 715 670 c 256
 824 670 853 664 853 650 c 256
 853 614 830 612 715 610 c 256
 619 610 544 605 514 603 c 257
 474 600 l 257
 483 547 l 257
 483 520 493 486 493 454 c 256
 493 446 494 438 494 430 c 256
 494 408 492 386 492 373 c 256
 492 368 493 365 493 363 c 257
 504 363 539 370 547 370 c 258
 651 370 l 258
 677 370 699 370 714 370 c 256
 733 370 744 370 746 365 c 256
 748 357 750 352 750 350 c 256
 750 330 745 312 616 307 c 256
 576 305 559 303 525 298 c 256
 517 296 490 293 490 293 c 257
 490 293 489 267 491 251 c 256
 499 197 502 155 510 104 c 256
 513 69 550 62 592 62 c 256x8d
 717 62 764 94 821 94 c 256
 851 94 859 92 859 70 c 256
 859 33 832 26 790 21 c 256x41
 654 11 645 -10 560 -10 c 256
 490 -10 455 21 446 91 c 256
 443 117 436 146 430 226 c 256
 428 248 431 271 429 285 c 257x91
382 616 m 256
 376 616 344 619 339 619 c 256
 334 619 331 618 326 616 c 256
 312 605 256 514 248 493 c 256
 238 453 186 398 186 347 c 257
 194 345 232 344 285 344 c 256x23
 322 344 341 346 347 349 c 256
 355 352 405 354 406 354 c 256
 413 354 420 354 427 354 c 257x11
 426 361 427 499 421 536 c 256
 418 554 392 616 382 616 c 256
EndSplineSet
PickledDataWithLists: "(dp0
Vcom.fontlab.hintData\\u000d\\u000d\\u000d
p1
(dp2
Vhhints\\u000d\\u000d\\u000d
p3
(lp4
(dp5
Vposition\\u000d\\u000d\\u000d
p6
I-12
sVwidth\\u000d\\u000d\\u000d
p7
I90
sa(dp8
g6
I26
sg7
I92
sa(dp9
g6
I346
sg7
I84
sa(dp10
g6
I356
sg7
I87
sa(dp11
g6
I384
sg7
I78
sa(dp12
g6
I396
sg7
I67
sa(dp13
g6
I754
sg7
I80
sa(dp14
g6
I762
sg7
I76
sa(dp15
g6
I774
sg7
I96
sasVvhints\\u000d\\u000d\\u000d
p16
(lp17
(dp18
g6
I532
sg7
I85
sass."
EndChar

StartChar: Aogonek
Encoding: 260 260 12
GlifName: A_ogonek
Width: 670
VWidth: 0
Flags: W
HStem: -235 60<542.53 630.795> 206 69<182.732 477.812> 212 72<279.234 481> 222 68<569.636 612.865> 658 80<333.63 365.821>
VStem: 443 73<-147.972 -33.821>
AnchorPoint: "bottom" 342 -213 basechar 0
AnchorPoint: "top" 352 764 basechar 0
LayerCount: 2
Fore
SplineSet
174 230 m 256xcc
 174 231 175 271 229 275 c 257
 237 275 l 258xcc
 249 275 262 273 276 273 c 256
 345 273 413 277 481 284 c 257xac
 478 294 474 304 472 314 c 256
 456 373 420 455 390 564 c 256
 384 584 362 658 354 658 c 256
 344 658 300 590 290 572 c 257
 284 563 277 555 271 545 c 256
 212 430 184 308 146 160 c 256
 141 139 128 54 122 20 c 257
 120 -5 100 -26 75 -31 c 257
 70 -31 66 -29 62 -27 c 256
 57 -25 50 -25 48 -22 c 256
 43 -17 40 -8 40 -2 c 256
 40 2 43 5 45 10 c 256
 47 16 48 22 50 28 c 256
 57 67 63 106 70 143 c 257
 96 301 178 532 265 660 c 256
 288 694 307 738 361 738 c 256
 412 738 417 684 435 642 c 257
 457 587 538 313 549 287 c 257
 556 289 582 290 588 290 c 256
 614 290 615 258 615 251 c 256
 615 241 615 232 569 222 c 257x9c
 583 172 606 100 613 81 c 256
 615 75 622 70 624 64 c 257
 628 55 630 48 630 42 c 256
 630 5 572 2 548 -22 c 256
 530 -40 516 -66 516 -92 c 256
 516 -103 516 -113 521 -122 c 256
 531 -143 556 -175 582 -175 c 256
 604 -175 611 -161 626 -161 c 256
 635 -161 651 -169 651 -185 c 256
 651 -213 610 -235 577 -235 c 256
 562 -235 536 -235 522 -228 c 257
 506 -218 487 -207 476 -193 c 257
 458 -167 443 -137 443 -91 c 256
 443 -50 460 -13 482 10 c 256
 499 28 527 52 550 62 c 257
 532 113 516 163 501 215 c 257
 475 213 448 212 428 212 c 256xac
 359 212 290 209 221 209 c 256
 212 209 202 206 194 206 c 256
 180 206 174 218 174 230 c 256xcc
EndSplineSet
PickledDataWithLists: "(dp0
Vcom.fontlab.hintData\\u000d\\u000d\\u000d
p1
(dp2
Vhhints\\u000d\\u000d\\u000d
p3
(lp4
(dp5
Vposition\\u000d\\u000d\\u000d
p6
I-294
sVwidth\\u000d\\u000d\\u000d
p7
I75
sa(dp8
g6
I261
sg7
I83
sa(dp9
g6
I284
sg7
I79
sa(dp10
g6
I902
sg7
I20
sasVvhints\\u000d\\u000d\\u000d
p11
(lp12
(dp13
g6
I554
sg7
I91
sass."
EndChar

StartChar: Aring
Encoding: 197 197 13
GlifName: A_ring
Width: 518
VWidth: 0
Flags: W
HStem: 0 21G<47.5 72.5> 210 65<147 323.511> 566 100<220.047 258.436> 787 69<191.109 259.034>
VStem: 34 68<3.34473 127.553> 101 72<683.617 769.661> 291 67<673.389 752.296> 387 72<20.5095 122.619>
AnchorPoint: "bottom" 243 34 basechar 0
AnchorPoint: "top" 237 890 basechar 0
LayerCount: 2
Fore
SplineSet
203 275 m 256xf3
 253 275 203 277 298 283 c 257
 330 283 l 257
 309 345 321 343 314 360 c 256
 311 368 311 395 306 406 c 256
 301 417 299 431 294 445 c 256
 281 488 269 522 259 544 c 256
 254 554 252 566 242 566 c 256
 224 566 208 523 179 445 c 257
 177 437 177 427 174 414 c 257
 166 371 158 307 147 272 c 257
 157 274 182 275 203 275 c 256xf3
173 707 m 256xf7
 173 689 223 666 245 666 c 256
 267 666 291 685 291 709 c 256
 291 728 251 787 230 787 c 256
 191 787 173 740 173 707 c 256xf7
331 238 m 257
 317 224 294 210 192 210 c 256
 171 210 143 210 138 208 c 257
 133 166 102 96 102 48 c 256
 102 10 87 0 58 0 c 256
 37 0 34 11 34 37 c 256xfb
 34 48 33 56 38 61 c 256
 43 66 54 113 70 203 c 257
 73 216 88 275 88 294 c 256
 88 304 107 399 115 434 c 257
 126 493 145 524 163 570 c 256
 168 581 181 597 194 608 c 257
 186 613 166 615 155 626 c 256
 139 644 117 662 112 672 c 256
 104 690 101 723 101 752 c 256
 101 758 113 856 219 856 c 256
 335 856 358 708 358 706 c 256
 358 688 344 661 328 635 c 256
 318 619 311 617 306 614 c 257
 311 606 324 572 326 570 c 256
 336 561 357 493 360 475 c 257
 370 437 377 419 379 400 c 256
 379 398 406 190 434 134 c 256
 440 121 459 75 459 54 c 256
 459 38 424 3 408 3 c 256
 398 3 392 33 387 46 c 256
 382 60 377 90 363 130 c 256
 350 167 336 211 331 238 c 257
EndSplineSet
PickledDataWithLists: "(dp0
Vcom.fontlab.hintData\\u000d\\u000d\\u000d
p1
(dp2
Vhhints\\u000d\\u000d\\u000d
p3
(lp4
(dp5
Vposition\\u000d\\u000d\\u000d
p6
I0
sVwidth\\u000d\\u000d\\u000d
p7
I21
sa(dp8
g6
I260
sg7
I80
sa(dp9
g6
I984
sg7
I86
sasVvhints\\u000d\\u000d\\u000d
p10
(lp11
(dp12
g6
I42
sg7
I86
sa(dp13
g6
I126
sg7
I90
sa(dp14
g6
I364
sg7
I84
sass."
EndChar

StartChar: B
Encoding: 66 66 16
GlifName: B_
Width: 488
VWidth: 0
Flags: W
HStem: -8 64<147 288.96> 306 72<131 241.461> 654 88<129 202.626>
VStem: 58 67<263.103 306 378 653.244> 346 60<455.232 556.85> 390 66<131.314 205.559>
AnchorPoint: "bottom" 256 33 basemark 0
AnchorPoint: "top" 234 758 basemark 0
LayerCount: 2
Fore
SplineSet
131 306 m 257xf4
 131 168 147 96 147 61 c 257
 152 58 183 56 202 56 c 256
 260 56 278 73 304 86 c 257
 326 99 390 138 390 165 c 256
 390 192 350 226 331 242 c 256
 296 271 285 275 232 296 c 257
 205 304 189 306 173 306 c 258
 131 306 l 257xf4
186 651 m 256
 166 652 153 654 138 654 c 258
 129 654 l 257
 128 628 125 575 125 514 c 256
 125 474 130 421 130 378 c 257
 164 378 194 381 202 384 c 256
 216 390 262 404 296 430 c 256
 330 456 346 477 346 499 c 256xf8
 346 537 309 582 278 611 c 256
 249 638 218 649 186 651 c 256
102 742 m 256
 113 742 118 734 131 731 c 256
 133 730 251 724 310 677 c 256
 319 670 331 653 349 630 c 256
 387 579 406 550 406 500 c 256xf8
 406 445 378 424 341 390 c 256
 320 371 298 357 285 349 c 257
 314 338 341 319 355 309 c 256
 405 278 456 232 456 168 c 256xf4
 456 114 403 65 339 37 c 256
 325 31 304 18 282 10 c 256
 260 2 219 -8 160 -8 c 256
 128 -8 67 -2 67 42 c 256
 67 47 71 55 81 61 c 257
 59 204 58 349 58 493 c 256
 58 504 59 550 59 560 c 256
 59 667 51 662 51 691 c 256
 51 728 78 742 102 742 c 256
EndSplineSet
PickledDataWithLists: "(dp0
Vcom.fontlab.hintData\\u000d\\u000d\\u000d
p1
(dp2
Vhhints\\u000d\\u000d\\u000d
p3
(lp4
(dp5
Vposition\\u000d\\u000d\\u000d
p6
I-10
sVwidth\\u000d\\u000d\\u000d
p7
I80
sa(dp8
g6
I382
sg7
I90
sa(dp9
g6
I818
sg7
I110
sasVvhints\\u000d\\u000d\\u000d
p10
(lp11
(dp12
g6
I72
sg7
I84
sa(dp13
g6
I432
sg7
I76
sa(dp14
g6
I488
sg7
I82
sass."
EndChar

StartChar: C
Encoding: 67 67 18
GlifName: C_
Width: 548
VWidth: 0
Flags: W
HStem: -6 77<209.008 387.052> 633 74<237.75 379.691>
VStem: 53 69<174.436 451.529> 419 69<543.243 593.455>
AnchorPoint: "bottom" 294 33 basechar 0
AnchorPoint: "top" 314 743 basechar 0
LayerCount: 2
Fore
SplineSet
374 520 m 256
 374 528 419 558 419 562 c 256
 419 567 409 580 390 602 c 256
 377 616 367 620 359 623 c 257
 351 628 323 633 305 633 c 256
 247 633 206 593 184 543 c 257
 158 491 155 503 143 450 c 256
 131 400 122 374 122 324 c 256
 122 247 124 178 181 118 c 256
 207 90 231 71 294 71 c 256
 325 71 352 76 374 86 c 256
 424 109 442 128 455 137 c 256
 465 145 478 146 491 146 c 256
 504 146 512 134 512 126 c 256
 512 118 509 112 493 94 c 256
 456 54 424 35 373 8 c 256
 355 -2 323 -6 280 -6 c 256
 211 -6 187 8 136 54 c 256
 58 123 53 229 53 326 c 256
 53 415 84 506 130 581 c 257
 177 657 224 707 317 707 c 256
 374 707 414 681 453 642 c 256
 469 626 480 616 483 608 c 256
 486 600 488 587 488 571 c 256
 488 546 488 514 400 514 c 256
 382 514 374 515 374 520 c 256
EndSplineSet
PickledDataWithLists: "(dp0
Vcom.fontlab.hintData\\u000d\\u000d\\u000d
p1
(dp2
Vhhints\\u000d\\u000d\\u000d
p3
(lp4
(dp5
Vposition\\u000d\\u000d\\u000d
p6
I-8
sVwidth\\u000d\\u000d\\u000d
p7
I97
sa(dp8
g6
I791
sg7
I93
sasVvhints\\u000d\\u000d\\u000d
p9
(lp10
(dp11
g6
I66
sg7
I87
sa(dp12
g6
I524
sg7
I86
sass."
EndChar

StartChar: Ccedilla
Encoding: 199 199 21
GlifName: C_cedilla
Width: 548
VWidth: 0
Flags: W
HStem: -259 64<206.834 343.697> -6 69<243.983 312> 654 76<228.238 384.504>
VStem: 33 71<234.479 453.854> 371 69<-168.487 -83.3087> 410 57<584.719 630.544>
AnchorPoint: "bottom" 282 -229 basechar 0
AnchorPoint: "top" 291 784 basechar 0
LayerCount: 2
Fore
SplineSet
268 -195 m 256xf8
 360 -195 371 -135 371 -133 c 256xf8
 371 -119 355 -87 340 -72 c 256
 327 -60 320 -48 315 -34 c 256
 313 -31 311 -22 311 -12 c 256
 311 -10 312 -7 312 -5 c 257
 310 -5 296 -6 286 -6 c 256
 244 -6 188 27 148 65 c 257
 126 88 55 208 45 252 c 256
 40 272 33 273 33 306 c 256
 33 368 64 535 94 586 c 257
 135 648 176 700 222 722 c 256
 236 728 253 730 273 730 c 256
 335 730 430 705 452 669 c 257
 462 655 467 639 467 624 c 256
 467 606 458 582 432 582 c 256
 420 582 410 594 410 605 c 256
 410 637 325 654 285 654 c 256
 259 654 244 648 234 642 c 256
 201 618 176 585 162 559 c 256
 135 509 104 377 104 335 c 256
 104 281 123 233 150 182 c 256
 184 121 197 120 215 102 c 256
 225 92 283 63 310 63 c 256
 336 63 356 79 386 90 c 257
 396 92 402 92 410 97 c 256xf4
 425 105 435 112 447 122 c 257
 467 141 487 153 514 153 c 256
 534 153 540 151 540 138 c 256
 540 124 492 88 470 71 c 257
 446 51 438 47 414 33 c 256
 406 29 386 9 379 7 c 257
 384 -23 398 -33 408 -50 c 256
 432 -92 440 -93 440 -145 c 256
 440 -199 361 -259 280 -259 c 256
 234 -259 185 -234 185 -214 c 256
 185 -200 198 -183 210 -183 c 256
 226 -183 227 -195 268 -195 c 256xf8
EndSplineSet
PickledDataWithLists: "(dp0
Vcom.fontlab.hintData\\u000d\\u000d\\u000d
p1
(dp2
Vhhints\\u000d\\u000d\\u000d
p3
(lp4
(dp5
Vposition\\u000d\\u000d\\u000d
p6
I-324
sVwidth\\u000d\\u000d\\u000d
p7
I80
sa(dp8
g6
I-8
sg7
I87
sa(dp9
g6
I818
sg7
I94
sasVvhints\\u000d\\u000d\\u000d
p10
(lp11
(dp12
g6
I41
sg7
I89
sa(dp13
g6
I464
sg7
I86
sa(dp14
g6
I512
sg7
I72
sass."
EndChar

StartChar: D
Encoding: 68 68 25
GlifName: D_
Width: 555
VWidth: 0
Flags: W
HStem: -21 21G<146 162> 620 75<131.491 322.378> 706 20G<92.5 98>
VStem: 58 67<131.896 398.803 466 615.834> 446 66<336.134 530.369>
AnchorPoint: "bottom" 264 73 basechar 0
AnchorPoint: "top" 261 740 basechar 0
LayerCount: 2
Fore
SplineSet
125 338 m 256
 125 320 125 281 125 280 c 256
 125 223 129 165 131 162 c 256
 141 133 154 128 154 115 c 257
 152 93 137 72 114 72 c 256
 108 72 102 81 94 94 c 256
 76 121 72 131 64 165 c 257
 59 189 58 247 58 341 c 257
 60 377 59 399 59 417 c 256
 59 440 59 456 58 482 c 256
 55 573 59 648 51 674 c 256
 50 676 50 676 50 678 c 256
 50 691 67 712 77 718 c 256
 87 723 91 726 94 726 c 256
 102 726 123 708 131 694 c 257
 141 695 149 695 158 695 c 256
 197 695 232 691 269 685 c 257
 275 685 288 680 314 677 c 257
 381 666 420 645 467 595 c 256
 496 565 512 502 512 448 c 256
 512 349 480 295 445 238 c 256
 415 188 381 152 360 131 c 256
 298 72 254 32 235 19 c 256
 197 -7 170 -21 154 -21 c 256
 138 -21 125 -15 125 3 c 256
 125 9 128 20 134 26 c 256
 164 53 155 50 198 80 c 256
 264 128 286 146 326 192 c 257
 364 232 372 246 406 299 c 256
 427 333 446 383 446 450 c 256
 446 476 442 495 435 512 c 257
 413 552 405 563 365 581 c 257
 309 611 224 620 162 620 c 256
 152 620 142 619 131 616 c 257
 131 614 122 512 122 466 c 256
 122 433 125 404 125 338 c 256
EndSplineSet
PickledDataWithLists: "(dp0
Vcom.fontlab.hintData\\u000d\\u000d\\u000d
p1
(dp2
Vhhints\\u000d\\u000d\\u000d
p3
(lp4
(dp5
Vposition\\u000d\\u000d\\u000d
p6
I-26
sVwidth\\u000d\\u000d\\u000d
p7
I21
sa(dp8
g6
I775
sg7
I94
sa(dp9
g6
I888
sg7
I20
sasVvhints\\u000d\\u000d\\u000d
p10
(lp11
(dp12
g6
I72
sg7
I84
sa(dp13
g6
I558
sg7
I82
sass."
EndChar

StartChar: Dcroat
Encoding: 272 272 27
GlifName: D_croat
Width: 617
VWidth: 0
Flags: W
HStem: 10 78<233.588 322.906> 337 72<53.8489 125> 348 68<198 396.98> 637 74<184.443 294.694>
VStem: 114 68<416.85 619.787> 502 69<270.027 471.423>
AnchorPoint: "bottom" 298 42 basechar 0
AnchorPoint: "top" 317 754 basechar 0
LayerCount: 2
Fore
SplineSet
290 618 m 256xbc
 267 628 248 632 231 637 c 257
 219 637 195 636 185 630 c 257
 183 625 182 606 182 598 c 256
 182 589 183 564 183 528 c 256
 183 469 187 432 190 414 c 257
 208 415 232 416 254 416 c 256xbc
 280 416 301 418 325 418 c 256
 382 418 412 415 416 409 c 256xdc
 421 403 422 396 422 390 c 256
 422 380 413 376 398 370 c 256
 390 368 379 364 374 363 c 256
 363 360 333 357 274 352 c 256
 249 350 224 350 198 348 c 257
 200 331 211 260 214 237 c 256
 220 187 227 138 238 88 c 257
 286 88 304 95 346 122 c 257
 434 172 502 262 502 366 c 256
 502 437 487 472 454 506 c 256
 416 545 341 596 290 618 c 256xbc
82 650 m 256
 82 674 113 702 135 708 c 256
 141 710 158 711 186 711 c 256
 213 711 244 710 275 699 c 256
 381 661 458 606 520 539 c 256
 550 506 571 440 571 398 c 256
 571 305 534 211 494 159 c 256
 443 91 321 10 235 10 c 256
 180 10 179 18 157 164 c 257
 152 202 146 235 142 264 c 256
 138 297 135 324 133 342 c 257
 114 341 96 337 82 337 c 256
 48 337 32 341 32 367 c 256
 32 377 40 385 53 395 c 256
 71 407 96 407 125 409 c 257xdc
 115 492 115 600 114 602 c 257
 110 604 102 610 97 614 c 256
 85 627 82 636 82 650 c 256
EndSplineSet
PickledDataWithLists: "(dp0
Vcom.fontlab.hintData\\u000d\\u000d\\u000d
p1
(dp2
Vhhints\\u000d\\u000d\\u000d
p3
(lp4
(dp5
Vposition\\u000d\\u000d\\u000d
p6
I13
sVwidth\\u000d\\u000d\\u000d
p7
I97
sa(dp8
g6
I421
sg7
I90
sa(dp9
g6
I435
sg7
I85
sa(dp10
g6
I463
sg7
I59
sa(dp11
g6
I796
sg7
I93
sasVvhints\\u000d\\u000d\\u000d
p12
(lp13
(dp14
g6
I142
sg7
I85
sa(dp15
g6
I627
sg7
I87
sass."
EndChar

StartChar: E
Encoding: 69 69 28
GlifName: E_
Width: 537
VWidth: 0
Flags: W
HStem: -2 65<158.453 355.051> 326 63<144.874 407.564> 350 54<302.247 453.649> 637 74<137.17 374.017>
VStem: 66 76<397.807 634> 77 65<78.2448 330 394.206 582.988>
AnchorPoint: "bottom" 288 23 basechar 0
AnchorPoint: "top" 256 746 basechar 0
LayerCount: 2
Fore
SplineSet
257 389 m 256xd8
 299 389 298 389 435 404 c 257
 443 404 455 388 455 374 c 256
 455 364 447 355 425 350 c 257xb8
 387 346 328 326 264 326 c 256
 222 326 177 327 143 330 c 257
 143 295 142 245 142 200 c 256
 142 149 143 109 160 82 c 256
 171 64 185 63 215 63 c 258
 230 63 l 258
 264 63 288 67 298 70 c 256
 358 89 425 98 488 98 c 256
 498 98 503 98 503 88 c 256
 503 60 461 39 439 34 c 256
 426 32 410 31 399 28 c 256
 329 11 247 -2 176 -2 c 256
 134 -2 91 39 81 90 c 256
 78 105 77 131 77 164 c 256xd4
 77 214 79 283 79 354 c 256
 79 416 73 575 66 634 c 257
 62 634 l 258
 53 634 25 633 25 670 c 256
 25 678 35 688 46 692 c 257
 56 697 60 702 66 705 c 257
 88 710 103 711 179 711 c 256
 288 711 365 713 393 721 c 256
 400 723 406 727 414 727 c 256
 425 727 441 726 460 721 c 256
 468 719 471 717 471 706 c 256
 471 657 423 654 238 642 c 256
 208 640 186 639 137 637 c 257
 139 614 142 593 142 568 c 258
 142 483 l 258
 142 454 143 423 143 396 c 257
 189 392 220 389 257 389 c 256xd8
EndSplineSet
PickledDataWithLists: "(dp0
Vcom.fontlab.hintData\\u000d\\u000d\\u000d
p1
(dp2
Vhhints\\u000d\\u000d\\u000d
p3
(lp4
(dp5
Vposition\\u000d\\u000d\\u000d
p6
I-3
sVwidth\\u000d\\u000d\\u000d
p7
I82
sa(dp8
g6
I43
sg7
I80
sa(dp9
g6
I407
sg7
I79
sa(dp10
g6
I437
sg7
I68
sa(dp11
g6
I792
sg7
I89
sa(dp12
g6
I796
sg7
I93
sa(dp13
g6
I889
sg7
I20
sasVvhints\\u000d\\u000d\\u000d
p14
(lp15
(dp16
g6
I83
sg7
I94
sa(dp17
g6
I96
sg7
I81
sass."
EndChar

StartChar: uni014A
Encoding: 330 330 37
GlifName: E_ng
Width: 625
VWidth: 0
Flags: W
HStem: -268 78<317.799 447.479> -6 21G<123 147> 656 69<322.829 417.811> 730 20G<61.5 83>
VStem: 40 86<440.935 690.003> 59 103<208.478 372.31> 507 68<37.002 463.259>
AnchorPoint: "bottom" 320 -215 basechar 0
AnchorPoint: "top" 317 746 basechar 0
LayerCount: 2
Fore
SplineSet
40 682 m 256xfa
 40 683 44 750 79 750 c 256
 87 750 96 747 101 742 c 256
 120 720 113 578 126 440 c 257xfa
 136 477 144 490 155 514 c 256
 177 561 200 591 232 638 c 256
 267 689 325 725 370 725 c 256
 438 725 485 690 509 624 c 256
 555 498 575 443 575 262 c 256
 575 220 573 176 571 133 c 256
 565 22 553 -44 528 -139 c 256
 514 -188 494 -255 437 -267 c 256
 435 -268 432 -268 430 -268 c 256
 414 -268 397 -260 382 -258 c 256
 350 -252 312 -256 285 -237 c 256
 271 -227 257 -206 257 -188 c 256
 257 -173 267 -160 278 -160 c 256
 286 -160 295 -164 302 -165 c 256
 329 -169 352 -181 378 -184 c 256
 391 -186 403 -190 414 -190 c 256
 441 -190 449 -169 456 -146 c 256
 496 -19 507 110 507 271 c 256
 507 324 507 412 459 555 c 256
 445 595 426 656 368 656 c 256
 307 656 226 510 208 464 c 256
 207 462 162 324 162 195 c 256
 162 169 163 149 163 118 c 256
 163 116 163 86 163 86 c 258
 163 83 163 81 163 78 c 256
 163 37 160 -6 134 -6 c 256
 112 -6 99 35 91 98 c 256
 86 132 84 161 72 331 c 256
 70 360 62 387 59 416 c 256xf6
 59 418 45 610 43 643 c 256
 42 657 40 669 40 682 c 256xfa
EndSplineSet
PickledDataWithLists: "(dp0
Vcom.fontlab.hintData\\u000d\\u000d\\u000d
p1
(dp2
Vhhints\\u000d\\u000d\\u000d
p3
(lp4
(dp5
Vposition\\u000d\\u000d\\u000d
p6
I-335
sVwidth\\u000d\\u000d\\u000d
p7
I98
sa(dp8
g6
I-7
sg7
I21
sa(dp9
g6
I820
sg7
I86
sa(dp10
g6
I917
sg7
I20
sasVvhints\\u000d\\u000d\\u000d
p11
(lp12
(dp13
g6
I50
sg7
I96
sa(dp14
g6
I634
sg7
I85
sass."
EndChar

StartChar: Eogonek
Encoding: 280 280 38
GlifName: E_ogonek
Width: 606
VWidth: 0
Flags: W
HStem: -242 69<549.842 665.118> 311 74<18.9255 97.9077> 416 8<420.649 450.071> 629 80<174.899 472.886>
VStem: 100 76<51 314 398 635> 471 67<-163.14 29.7593> 495 75<1.39761 41>
AnchorPoint: "bottom" 314 33 basechar 0
AnchorPoint: "top" 306 756 basechar 0
LayerCount: 2
Fore
SplineSet
65 311 m 256xfa
 24 311 14 326 14 344 c 256
 14 368 33 382 50 385 c 257
 66 387 82 388 98 390 c 257
 100 396 100 503 100 517 c 256
 100 558 98 603 98 642 c 256
 98 707 109 718 131 718 c 258
 141 718 l 258
 159 718 155 709 245 709 c 256
 292 709 340 711 387 711 c 258
 410 711 l 258
 425 711 440 714 454 714 c 256
 473 714 509 705 509 679 c 256
 509 651 426 629 252 629 c 256
 223 629 193 632 174 635 c 257
 174 630 174 626 174 621 c 256
 174 599 176 573 176 549 c 256
 176 507 173 472 173 431 c 258
 173 398 l 257
 203 403 233 408 264 410 c 256
 278 412 292 412 306 414 c 256
 339 416 372 424 408 424 c 256
 422 424 445 418 455 416 c 257
 465 416 480 407 480 398 c 256
 480 376 420 357 399 354 c 257
 381 349 361 346 343 343 c 256
 341 343 231 323 171 318 c 257
 171 282 l 258
 171 230 174 179 174 125 c 256
 174 100 174 64 176 51 c 257
 278 61 442 118 509 118 c 258
 513 118 l 257
 527 117 543 119 554 110 c 257
 563 102 570 88 570 76 c 256xfa
 570 62 560 51 558 38 c 257
 548 3 538 -34 538 -75 c 256
 538 -97 540 -141 553 -157 c 257
 561 -169 576 -173 594 -173 c 256
 630 -173 646 -160 662 -160 c 256
 668 -160 674 -160 679 -164 c 257
 685 -170 690 -185 690 -195 c 256
 690 -224 618 -242 585 -242 c 256
 560 -242 536 -236 519 -225 c 256
 488 -203 471 -156 471 -102 c 256xfc
 471 -95 471 -87 472 -79 c 256
 472 -51 480 -26 482 0 c 256
 483 15 495 27 495 41 c 257
 438 35 257 -20 174 -26 c 257
 140 -26 97 -13 97 53 c 256
 97 102 102 140 102 196 c 256
 102 240 99 277 98 314 c 257
 96 313 96 313 94 313 c 256
 84 312 75 311 65 311 c 256xfa
EndSplineSet
PickledDataWithLists: "(dp0
Vcom.fontlab.hintData\\u000d\\u000d\\u000d
p1
(dp2
Vhhints\\u000d\\u000d\\u000d
p3
(lp4
(dp5
Vposition\\u000d\\u000d\\u000d
p6
I-303
sVwidth\\u000d\\u000d\\u000d
p7
I87
sa(dp8
g6
I389
sg7
I92
sa(dp9
g6
I520
sg7
I10
sa(dp10
g6
I786
sg7
I100
sasVvhints\\u000d\\u000d\\u000d
p11
(lp12
(dp13
g6
I125
sg7
I95
sa(dp14
g6
I589
sg7
I84
sass."
EndChar

StartChar: Eth
Encoding: 208 208 43
GlifName: E_th
Width: 617
VWidth: 0
Flags: W
HStem: 10 78<225.588 314.906> 337 72<45.8489 117> 348 68<190 388.98> 637 74<176.443 286.694>
VStem: 106 68<416.85 619.787> 494 69<270.027 471.423>
AnchorPoint: "bottom" 286 54 basechar 0
AnchorPoint: "top" 291 750 basechar 0
LayerCount: 2
Fore
SplineSet
282 618 m 256xbc
 259 628 240 632 223 637 c 257
 211 637 187 636 177 630 c 257
 175 625 174 606 174 598 c 256
 174 589 175 564 175 528 c 256
 175 469 179 432 182 414 c 257
 200 415 224 416 246 416 c 256xbc
 272 416 293 418 317 418 c 256
 374 418 404 415 408 409 c 256xdc
 413 403 414 396 414 390 c 256
 414 380 405 376 390 370 c 256
 382 368 371 364 366 363 c 256
 355 360 325 357 266 352 c 256
 241 350 216 350 190 348 c 257
 192 331 203 260 206 237 c 256
 212 187 219 138 230 88 c 257
 278 88 296 95 338 122 c 257
 426 172 494 262 494 366 c 256
 494 437 479 472 446 506 c 256
 408 545 333 596 282 618 c 256xbc
74 650 m 256
 74 674 105 702 127 708 c 256
 133 710 150 711 178 711 c 256
 205 711 236 710 267 699 c 256
 373 661 450 606 512 539 c 256
 542 506 563 440 563 398 c 256
 563 305 526 211 486 159 c 256
 435 91 313 10 227 10 c 256
 172 10 171 18 149 164 c 257
 144 202 138 235 134 264 c 256
 130 297 127 324 125 342 c 257
 106 341 88 337 74 337 c 256
 40 337 24 341 24 367 c 256
 24 377 32 385 45 395 c 256
 63 407 88 407 117 409 c 257xdc
 107 492 107 600 106 602 c 257
 102 604 94 610 89 614 c 256
 77 627 74 636 74 650 c 256
EndSplineSet
PickledDataWithLists: "(dp0
Vcom.fontlab.hintData\\u000d\\u000d\\u000d
p1
(dp2
Vhhints\\u000d\\u000d\\u000d
p3
(lp4
(dp5
Vposition\\u000d\\u000d\\u000d
p6
I13
sVwidth\\u000d\\u000d\\u000d
p7
I97
sa(dp8
g6
I421
sg7
I90
sa(dp9
g6
I435
sg7
I85
sa(dp10
g6
I463
sg7
I59
sa(dp11
g6
I796
sg7
I93
sasVvhints\\u000d\\u000d\\u000d
p12
(lp13
(dp14
g6
I132
sg7
I85
sa(dp15
g6
I617
sg7
I87
sass."
EndChar

StartChar: euro
Encoding: 8364 8364 44
GlifName: E_uro
Width: 672
VWidth: 0
Flags: W
HStem: -11 81<310.813 540.948> 235 67<302.119 489.369> 387 80<53.3903 159> 394 73<29.9619 112.871 242.389 402.251> 402 76<275.049 463.566> 707 69<339.234 439.889>
VStem: 158 72<283 388> 168 74<469 557.97>
LayerCount: 2
Fore
SplineSet
174 200 m 257xce
 115 194 87 188 86 188 c 258
 82 188 l 258
 71 188 67 190 56 200 c 256
 45 210 45 213 45 224 c 256
 45 264 107 270 162 275 c 257
 160 301 158 328 158 355 c 256
 158 366 158 378 159 388 c 257
 144 388 128 387 114 387 c 256xe6
 90 387 61 389 53 394 c 256xd6
 40 401 18 426 18 440 c 256
 18 459 93 467 107 467 c 258xe6
 168 467 l 257
 182 538 200 615 237 677 c 256
 259 715 331 776 384 776 c 256
 403 776 442 761 490 739 c 256
 523 724 548 700 548 674 c 256
 548 664 524 632 510 632 c 256
 505 632 497 634 486 640 c 256
 475 646 460 679 424 694 c 256
 404 702 389 707 381 707 c 256
 356 707 307 661 294 636 c 256
 272 594 250 518 242 469 c 257xd5
 276 469 344 477 363 478 c 256
 373 478 387 480 403 480 c 256
 442 480 469 474 469 429 c 256
 469 404 467 402 438 402 c 258
 373 402 l 258
 342 402 296 395 274 395 c 256
 269 395 254 395 233 393 c 257
 231 376 230 359 230 342 c 256
 230 321 231 301 233 283 c 257
 398 302 398 302 424 302 c 256
 453 302 494 300 494 262 c 256
 494 245 490 242 457 235 c 256
 431 228 396 224 245 207 c 257
 256 161 275 126 302 98 c 256
 319 81 370 70 407 70 c 256
 493 70 551 80 613 142 c 256
 629 158 642 166 650 166 c 256
 661 166 662 148 662 122 c 256
 662 114 652 101 638 80 c 257
 601 32 514 -11 453 -11 c 256
 394 -11 320 -11 277 13 c 256
 234 36 195 106 174 200 c 257xce
EndSplineSet
PickledDataWithLists: "(dp0
Vcom.fontlab.hintData\\u000d\\u000d\\u000d
p1
(dp2
Vhhints\\u000d\\u000d\\u000d
p3
(lp4
(dp5
Vposition\\u000d\\u000d\\u000d
p6
I-14
sVwidth\\u000d\\u000d\\u000d
p7
I101
sa(dp8
g6
I294
sg7
I84
sa(dp9
g6
I484
sg7
I100
sa(dp10
g6
I492
sg7
I92
sa(dp11
g6
I503
sg7
I95
sa(dp12
g6
I884
sg7
I86
sasVvhints\\u000d\\u000d\\u000d
p13
(lp14
(dp15
g6
I198
sg7
I90
sa(dp16
g6
I210
sg7
I92
sa(dp17
g6
I218
sg7
I88
sass."
EndChar

StartChar: F
Encoding: 70 70 45
GlifName: F_
Width: 534
VWidth: 0
Flags: W
HStem: -10 21G<119 131> 318 76<179.9 429.239> 333 53<271.271 465.897> 637 67<173.107 460.021> 728 20G<82 98>
VStem: 76 70<31.2805 619.723> 102 57<-5.58087 50.581>
AnchorPoint: "bottom" 128 25 basechar 0
AnchorPoint: "top" 277 750 basechar 0
LayerCount: 2
Fore
SplineSet
159 31 m 256x9a
 159 8 139 -10 123 -10 c 256
 115 -10 108 -3 102 13 c 257x9a
 89 56 88 74 80 138 c 257
 77 153 76 183 76 222 c 256
 76 268 77 329 77 399 c 256
 77 495 77 496 62 654 c 256
 59 681 60 700 55 711 c 256
 55 713 54 716 54 718 c 256
 54 732 75 748 89 748 c 256
 107 748 122 728 125 691 c 257
 127 691 354 704 386 704 c 257
 400 706 416 706 434 706 c 256
 455 706 467 702 475 694 c 257
 486 678 493 667 493 659 c 256
 493 651 477 630 461 630 c 256
 440 630 427 637 403 637 c 256
 401 637 311 636 133 623 c 257
 138 604 137 522 142 477 c 256
 144 453 146 428 146 402 c 256
 146 378 146 355 146 330 c 256
 146 320 146 311 146 301 c 258
 146 176 l 258x9c
 146 138 158 110 158 51 c 256
 158 42 159 37 159 31 c 256x9a
270 318 m 256xd8
 204 318 170 328 170 370 c 256
 170 381 178 394 189 394 c 256xd8
 290 394 424 389 448 386 c 256
 462 384 469 374 469 363 c 256
 469 358 468 354 466 349 c 256
 464 344 450 341 424 333 c 256xb8
 398 325 381 320 357 320 c 256
 331 320 297 318 270 318 c 256xd8
EndSplineSet
PickledDataWithLists: "(dp0
Vcom.fontlab.hintData\\u000d\\u000d\\u000d
p1
(dp2
Vhhints\\u000d\\u000d\\u000d
p3
(lp4
(dp5
Vposition\\u000d\\u000d\\u000d
p6
I-12
sVwidth\\u000d\\u000d\\u000d
p7
I21
sa(dp8
g6
I398
sg7
I94
sa(dp9
g6
I416
sg7
I66
sa(dp10
g6
I796
sg7
I86
sa(dp11
g6
I915
sg7
I20
sasVvhints\\u000d\\u000d\\u000d
p12
(lp13
(dp14
g6
I96
sg7
I86
sass."
EndChar

StartChar: G
Encoding: 71 71 46
GlifName: G_
Width: 560
VWidth: 0
Flags: W
HStem: -171 62<331.526 407.263> 13 80<151.968 288.596> 645 70<287.984 371.344>
VStem: 46 64<142.134 380.631> 384 61<534.334 634.985>
AnchorPoint: "bottom" 354 -145 basechar 0
AnchorPoint: "top" 306 748 basechar 0
LayerCount: 2
Fore
SplineSet
344 506 m 256
 344 525 384 541 384 584 c 256
 384 611 365 645 339 645 c 256
 296 645 219 568 203 538 c 256
 185 504 160 469 147 429 c 257
 136 387 110 344 110 224 c 256
 110 181 133 128 157 109 c 256
 170 99 187 93 213 93 c 256
 287 93 326 131 371 171 c 256
 417 211 451 258 464 318 c 256
 467 332 479 352 493 352 c 256
 515 352 525 335 525 301 c 256
 525 290 523 276 518 258 c 256
 513 240 501 144 498 125 c 256
 490 83 487 -35 485 -54 c 257
 477 -116 446 -149 395 -165 c 257
 385 -170 373 -171 363 -171 c 256
 337 -171 309 -157 280 -130 c 256
 272 -122 267 -106 267 -90 c 256
 267 -69 272 -61 286 -61 c 256
 317 -61 342 -109 368 -109 c 256
 387 -109 409 -88 414 -80 c 256
 416 -77 419 -19 424 50 c 256
 424 60 427 112 430 138 c 257
 382 84 278 13 208 13 c 256
 131 13 62 85 51 155 c 256
 48 173 46 195 46 222 c 256
 46 355 62 393 83 446 c 257
 97 488 147 581 195 627 c 256
 233 665 250 677 266 693 c 256
 280 707 300 715 326 715 c 256
 376 715 412 696 434 653 c 257
 442 640 445 618 445 584 c 256
 445 541 401 499 358 499 c 256
 348 499 344 501 344 506 c 256
EndSplineSet
PickledDataWithLists: "(dp0
Vcom.fontlab.hintData\\u000d\\u000d\\u000d
p1
(dp2
Vhhints\\u000d\\u000d\\u000d
p3
(lp4
(dp5
Vposition\\u000d\\u000d\\u000d
p6
I-214
sVwidth\\u000d\\u000d\\u000d
p7
I78
sa(dp8
g6
I16
sg7
I100
sa(dp9
g6
I806
sg7
I88
sasVvhints\\u000d\\u000d\\u000d
p10
(lp11
(dp12
g6
I58
sg7
I80
sa(dp13
g6
I480
sg7
I76
sass."
EndChar

StartChar: uni0393
Encoding: 915 915 47
GlifName: G_amma
Width: 484
VWidth: 0
Flags: W
HStem: 656 73<131.182 351.867> 658 62<164.181 460.481>
VStem: 65 65<393.126 656> 66 71<154.545 651.782> 90 78<18.8076 143.022>
AnchorPoint: "bottom" 132 33 basechar 0
AnchorPoint: "top" 266 758 basechar 0
LayerCount: 2
Fore
SplineSet
65 587 m 256xa0
 65 601 65 617 65 617 c 258
 65 634 62 649 62 663 c 256
 62 676 64 688 74 702 c 256
 91 723 135 729 161 729 c 256xa0
 231 729 162 720 361 720 c 256
 380 720 409 726 431 726 c 256
 455 726 467 720 467 702 c 256
 467 684 454 667 444 664 c 256
 426 658 399 658 371 658 c 256x60
 169 658 168 658 130 656 c 257xa0
 133 566 137 477 137 389 c 256x90
 137 387 142 162 148 125 c 257
 151 101 168 81 168 58 c 256x88
 168 40 152 11 134 8 c 256
 132 8 132 7 130 7 c 256xa0
 120 7 110 20 103 29 c 256
 93 40 93 58 90 72 c 256x88
 79 126 83 186 78 245 c 256
 74 286 66 320 66 366 c 256x90
 66 392 68 417 68 443 c 256
 68 491 65 539 65 587 c 256xa0
EndSplineSet
PickledDataWithLists: "(dp0
Vcom.fontlab.hintData\\u000d\\u000d\\u000d
p1
(dp2
Vhhints\\u000d\\u000d\\u000d
p3
(lp4
(dp5
Vposition\\u000d\\u000d\\u000d
p6
I820
sVwidth\\u000d\\u000d\\u000d
p7
I91
sa(dp8
g6
I822
sg7
I78
sasVvhints\\u000d\\u000d\\u000d
p9
(lp10
(dp11
g6
I81
sg7
I82
sa(dp12
g6
I97
sg7
I80
sass."
EndChar

StartChar: H
Encoding: 72 72 52
GlifName: H_
Width: 592
VWidth: 0
Flags: W
HStem: -18 21G<129.5 144> 272 67<131.121 452.36> 718 20G<460 487.5>
VStem: 61 66<61.0459 280 352.891 556.206 622 693.184> 61 65<346.165 410.063 413.532 621.973 623.12 693.184> 445 65<509.272 734.06> 451 67<362.382 728.001> 462 64<20.5684 285.577>
AnchorPoint: "bottom" 312 25 basechar 0
AnchorPoint: "top" 288 737 basechar 0
LayerCount: 2
Fore
SplineSet
451 632 m 256xea
 451 658 445 711 445 712 c 256
 445 721 448 738 472 738 c 256
 503 738 508 708 510 683 c 256xe4
 516 634 520 576 520 506 c 256
 520 465 518 412 518 411 c 256xe2
 518 388 520 370 522 362 c 257
 535 360 557 355 557 336 c 256
 557 317 550 310 526 299 c 257
 527 297 527 294 527 292 c 256
 527 286 526 278 526 264 c 256xe1
 526 243 528 222 528 200 c 258
 528 160 l 258
 528 115 535 32 546 22 c 256
 557 12 563 -2 563 -10 c 256
 563 -26 543 -34 534 -34 c 256
 528 -34 524 -30 518 -27 c 257xe2
 494 -11 483 9 475 27 c 257
 463 57 460 127 460 179 c 256
 460 189 462 249 462 250 c 256
 462 266 461 277 460 286 c 257
 407 278 355 272 301 272 c 256
 207 272 168 277 130 280 c 257
 130 242 130 141 133 96 c 256
 135 78 140 70 146 64 c 256
 154 56 155 55 155 26 c 256
 155 0 152 -18 136 -18 c 256
 123 -18 105 -9 99 -3 c 257
 80 23 69 77 66 123 c 256
 63 160 64 221 62 264 c 257
 60 285 61 354 61 477 c 258
 61 654 l 258xf1
 61 676 61 694 93 694 c 256
 112 694 112 694 120 675 c 256
 125 663 128 646 128 622 c 258
 128 622 126 585 126 558 c 256xe8
 126 520 127 465 127 411 c 256xf0
 127 391 126 371 126 352 c 257
 127 350 152 339 306 339 c 256
 370 339 394 346 455 352 c 257
 453 382 451 406 451 432 c 258
 451 586 l 258
 451 609 451 622 451 632 c 256xea
EndSplineSet
PickledDataWithLists: "(dp0
Vcom.fontlab.hintData\\u000d\\u000d\\u000d
p1
(dp2
Vhhints\\u000d\\u000d\\u000d
p3
(lp4
(dp5
Vposition\\u000d\\u000d\\u000d
p6
I-22
sVwidth\\u000d\\u000d\\u000d
p7
I21
sa(dp8
g6
I340
sg7
I84
sa(dp9
g6
I902
sg7
I20
sasVvhints\\u000d\\u000d\\u000d
p10
(lp11
(dp12
g6
I76
sg7
I83
sa(dp13
g6
I76
sg7
I74
sa(dp14
g6
I556
sg7
I94
sa(dp15
g6
I564
sg7
I83
sa(dp16
g6
I577
sg7
I81
sass."
EndChar

StartChar: Hbar
Encoding: 294 294 53
GlifName: H_bar
Width: 617
VWidth: 0
Flags: W
HStem: -19 21G<131.5 146> 435 71<32.2554 84 150 370.04> 465 71<502 595.691> 706 20G<76.5 90>
VStem: 73 79<507.266 714.454> 83 71<506 706.484> 473 73<46.9349 235.745>
AnchorPoint: "bottom" 312 25 basechar 0
AnchorPoint: "top" 288 737 basechar 0
LayerCount: 2
Fore
SplineSet
16 485 m 256xd6
 16 487 16 506 41 506 c 256
 46 506 51 506 56 506 c 258
 85 506 l 257
 84 515 82 524 82 533 c 258
 82 563 l 258
 82 600 76 636 76 674 c 256
 76 684 73 696 73 707 c 256
 73 714 74 721 79 726 c 257
 101 726 126 724 140 705 c 257
 155 682 150 650 152 622 c 256xda
 153 612 153 604 153 594 c 256
 153 566 151 535 150 507 c 257
 211 507 282 524 427 531 c 257
 417 625 410 651 410 664 c 256
 410 667 410 671 410 676 c 256
 410 694 412 720 426 720 c 256
 473 720 486 648 493 607 c 257
 495 579 495 560 498 536 c 257
 522 536 l 258
 572 536 599 534 599 503 c 256
 599 484 585 462 566 462 c 256
 560 462 552 463 546 463 c 256
 533 464 516 465 502 465 c 257
 502 462 516 281 540 124 c 256
 542 112 546 94 546 77 c 256
 546 64 545 37 517 37 c 256
 495 37 481 63 473 82 c 256
 467 97 468 113 466 130 c 256
 460 187 456 247 450 304 c 257
 436 299 417 298 403 293 c 256
 392 290 383 285 373 282 c 256
 289 258 236 261 162 247 c 256
 160 246 157 246 154 246 c 257
 154 232 l 258xb6
 154 207 152 182 152 159 c 256xba
 152 73 164 47 164 28 c 256
 164 6 153 -19 139 -19 c 256
 124 -19 113 -4 105 10 c 256
 84 48 89 97 86 139 c 256
 84 175 83 212 83 248 c 256
 83 290 84 330 84 372 c 258
 84 435 l 257
 26 444 16 477 16 485 c 256xd6
443 372 m 257
 443 373 433 460 433 462 c 257
 333 454 283 450 242 445 c 256
 206 441 180 437 150 436 c 257
 149 400 147 367 147 330 c 256
 147 326 147 322 148 319 c 257
 154 320 159 321 164 322 c 256
 199 326 233 328 272 334 c 256
 318 341 355 351 397 362 c 256
 411 365 428 370 443 372 c 257
EndSplineSet
PickledDataWithLists: "(dp0
Vcom.fontlab.hintData\\u000d\\u000d\\u000d
p1
(dp2
Vhhints\\u000d\\u000d\\u000d
p3
(lp4
(dp5
Vposition\\u000d\\u000d\\u000d
p6
I-24
sVwidth\\u000d\\u000d\\u000d
p7
I21
sa(dp8
g6
I545
sg7
I89
sa(dp9
g6
I577
sg7
I93
sa(dp10
g6
I577
sg7
I84
sa(dp11
g6
I888
sg7
I20
sasVvhints\\u000d\\u000d\\u000d
p12
(lp13
(dp14
g6
I91
sg7
I99
sa(dp15
g6
I104
sg7
I86
sa(dp16
g6
I513
sg7
I91
sa(dp17
g6
I591
sg7
I91
sass."
EndChar

StartChar: I
Encoding: 73 73 55
GlifName: I_
Width: 457
VWidth: 0
Flags: W
HStem: 1 80<306.312 408.272> 3 67<126.085 379.103> 14 86<70.3605 169.93> 622 46<41.7119 121.5> 637 65<266.33 377.877> 691 20G<214.5 228.5>
VStem: 202 64<544.142 627> 204 66<125.1 626.749>
AnchorPoint: "bottom" 240 34 basechar 0
AnchorPoint: "top" 229 737 basechar 0
LayerCount: 2
Fore
SplineSet
222 92 m 257x09
 204 101 204 128 204 158 c 256
 204 204 201 263 201 326 c 256
 201 380 204 478 204 533 c 256x09
 204 590 203 615 202 627 c 257
 168 621 132 618 122 618 c 256
 112 618 59 619 52 622 c 256
 48 624 41 631 41 656 c 256
 41 662 44 667 50 668 c 256
 92 675 168 685 198 693 c 257
 200 700 205 711 224 711 c 256x16
 233 711 248 708 254 701 c 257
 256 700 l 257
 277 701 299 702 317 702 c 256
 358 702 383 698 383 679 c 256
 383 665 377 637 327 637 c 256
 317 637 304 638 291 638 c 256
 282 638 273 637 266 636 c 257x0a
 268 615 270 588 270 542 c 256
 270 446 268 359 268 259 c 256
 268 230 273 169 273 141 c 256
 273 137 272 127 270 125 c 257
 265 123 236 92 222 92 c 257x09
400 81 m 256x80
 414 81 425 71 425 50 c 256
 425 38 393 1 380 1 c 257x80
 361 3 333 3 305 3 c 256x40
 243 3 168 8 124 14 c 256
 84 20 66 25 66 54 c 256
 66 82 79 100 101 100 c 256x20
 111 100 120 97 125 91 c 257
 143 77 238 70 262 70 c 256x40
 316 70 350 81 400 81 c 256x80
EndSplineSet
PickledDataWithLists: "(dp0
Vcom.fontlab.hintData\\u000d\\u000d\\u000d
p1
(dp2
Vhhints\\u000d\\u000d\\u000d
p3
(lp4
(dp5
Vposition\\u000d\\u000d\\u000d
p6
I1
sVwidth\\u000d\\u000d\\u000d
p7
I100
sa(dp8
g6
I4
sg7
I83
sa(dp9
g6
I17
sg7
I108
sa(dp10
g6
I778
sg7
I57
sa(dp11
g6
I796
sg7
I81
sa(dp12
g6
I869
sg7
I20
sasVvhints\\u000d\\u000d\\u000d
p13
(lp14
(dp15
g6
I251
sg7
I84
sass."
EndChar

StartChar: uni0132
Encoding: 306 306 56
GlifName: I_J_
Width: 472
VWidth: 0
Flags: W
HStem: -6 73<189.44 286.402> 286 71<122.232 186.006> 715 10G<93 98.5 355 387>
VStem: 50 62<359.212 708.297> 61 68<498.762 711.618> 357 64<379.621 525>
AnchorPoint: "bottom" 240 26 basechar 0
AnchorPoint: "top" 236 763 basechar 0
LayerCount: 2
Fore
SplineSet
129 664 m 256xec
 129 609 112 597 112 494 c 256
 112 472 113 369 133 359 c 256
 136 357 140 357 144 357 c 256
 164 357 188 379 201 394 c 257
 239 434 292 543 310 597 c 256
 320 629 338 735 372 735 c 256
 402 735 410 718 416 671 c 257
 419 651 421 628 421 606 c 256
 421 602 419 349 402 239 c 256
 396 201 395 157 383 123 c 256
 368 79 329 23 287 3 c 256
 272 -4 259 -6 239 -6 c 256
 217 -6 163 8 147 22 c 256
 131 35 115 50 110 71 c 256
 109 76 108 83 108 89 c 256
 108 116 129 122 138 122 c 256
 168 122 198 67 227 67 c 256
 259 67 290 86 308 111 c 256
 328 138 331 183 335 217 c 256
 336 220 357 386 357 525 c 257
 351 515 332 485 323 470 c 256
 303 435 265 386 244 354 c 256
 230 332 186 293 158 287 c 256
 153 286 149 286 144 286 c 256
 110 286 77 314 66 336 c 256
 52 361 50 467 50 496 c 256xf4
 50 554 59 659 61 664 c 256
 67 686 66 714 86 723 c 256
 89 725 92 725 94 725 c 256
 103 725 109 718 118 712 c 256
 128 704 129 687 129 670 c 256
 129 668 129 666 129 664 c 256xec
EndSplineSet
PickledDataWithLists: "(dp0
Vcom.fontlab.hintData\\u000d\\u000d\\u000d
p1
(dp2
Vhhints\\u000d\\u000d\\u000d
p3
(lp4
(dp5
Vposition\\u000d\\u000d\\u000d
p6
I-7
sVwidth\\u000d\\u000d\\u000d
p7
I91
sa(dp8
g6
I357
sg7
I89
sa(dp9
g6
I886
sg7
I20
sasVvhints\\u000d\\u000d\\u000d
p10
(lp11
(dp12
g6
I62
sg7
I78
sa(dp13
g6
I76
sg7
I85
sa(dp14
g6
I439
sg7
I82
sa(dp15
g6
I446
sg7
I80
sass."
EndChar

StartChar: Iogonek
Encoding: 302 302 64
GlifName: I_ogonek
Width: 500
VWidth: 0
Flags: W
HStem: -217 66<374.516 452.499> -4 68<133.525 333.873> 9 79<81.2344 226.518> 637 51<51.5076 199.01> 656 66<284 400.356> 714 20G<237.5 251.5>
VStem: 215 63<137.617 540.112> 223 63<93.5625 257.891 327.294 647.69> 302 67<-145.409 -28.829>
AnchorPoint: "bottom" 256 -174 basechar 0
AnchorPoint: "top" 245 761 basechar 0
LayerCount: 2
Fore
SplineSet
139 637 m 256x9180
 53 637 51 641 51 671 c 256
 51 678 56 686 63 688 c 256
 93 692 185 704 215 714 c 257
 218 726 229 734 246 734 c 256x9680
 257 734 267 731 275 721 c 257
 297 722 317 722 335 722 c 256
 397 722 410 714 410 702 c 256
 410 696 407 690 403 682 c 256
 398 671 392 665 383 662 c 256
 376 660 308 658 284 656 c 257
 286 645 286 591 286 554 c 256x8980
 286 474 279 410 279 314 c 256
 279 296 278 278 278 259 c 256x8a80
 278 236 289 170 289 136 c 256
 289 126 287 118 284 116 c 256
 274 110 261 81 244 81 c 256
 242 81 240 82 237 84 c 257
 224 95 223 113 223 138 c 256
 223 144 223 148 223 154 c 256x8980
 223 213 215 299 215 301 c 256
 215 310 215 319 215 329 c 256x8a80
 215 381 223 482 223 543 c 256
 223 597 222 642 220 648 c 257
 210 645 149 637 139 637 c 256x9180
402 -217 m 256
 370 -217 302 -182 302 -111 c 256
 302 -75 319 -28 334 -4 c 257xc080
 270 -4 204 0 141 9 c 257
 100 13 77 23 77 42 c 256
 77 72 90 88 117 88 c 256xa080
 129 88 140 85 146 79 c 256
 156 69 251 64 276 64 c 256xc080
 337 64 372 74 428 74 c 256
 445 74 458 65 458 42 c 256
 458 28 429 15 411 -2 c 256
 384 -28 369 -70 369 -102 c 256
 369 -148 401 -151 409 -151 c 256
 419 -151 440 -143 455 -143 c 256
 466 -143 477 -148 477 -160 c 256
 477 -183 432 -217 402 -217 c 256
EndSplineSet
PickledDataWithLists: "(dp0
Vcom.fontlab.hintData\\u000d\\u000d\\u000d
p1
(dp2
Vhhints\\u000d\\u000d\\u000d
p3
(lp4
(dp5
Vposition\\u000d\\u000d\\u000d
p6
I-271
sVwidth\\u000d\\u000d\\u000d
p7
I82
sa(dp8
g6
I-5
sg7
I85
sa(dp9
g6
I11
sg7
I99
sa(dp10
g6
I802
sg7
I58
sa(dp11
g6
I820
sg7
I83
sa(dp12
g6
I897
sg7
I20
sasVvhints\\u000d\\u000d\\u000d
p13
(lp14
(dp15
g6
I269
sg7
I78
sa(dp16
g6
I279
sg7
I78
sa(dp17
g6
I377
sg7
I84
sass."
EndChar

StartChar: J
Encoding: 74 74 69
GlifName: J_
Width: 548
VWidth: 0
Flags: W
HStem: 5 62<179.01 357.209> 705 20G<469.5 488>
VStem: 426 65<180.792 636.289>
AnchorPoint: "bottom" 266 33 basechar 0
AnchorPoint: "top" 291 719 basechar 0
LayerCount: 2
Fore
SplineSet
522 699 m 256
 522 673 506 675 494 546 c 256
 494 540 491 484 491 382 c 256
 491 198 491 158 477 123 c 256
 446 43 347 5 267 5 c 256
 195 5 173 12 141 34 c 257
 91 67 42 104 42 170 c 256
 42 220 74 221 75 221 c 256
 80 221 81 216 86 205 c 256
 120 123 173 67 267 67 c 256
 313 67 352 78 382 107 c 256
 406 129 418 149 421 165 c 256
 426 195 426 278 426 411 c 257
 426 411 426 426 426 448 c 256
 426 480 426 528 429 563 c 257
 431 593 433 624 435 638 c 257
 389 624 360 626 302 618 c 256
 294 616 259 613 238 611 c 256
 203 608 176 604 157 602 c 257
 149 600 143 600 133 600 c 256
 115 600 102 612 102 630 c 256
 102 649 122 665 130 670 c 256
 152 683 234 673 318 690 c 256
 377 701 411 707 421 710 c 257
 431 715 464 725 475 725 c 256
 501 725 522 713 522 699 c 256
EndSplineSet
PickledDataWithLists: "(dp0
Vcom.fontlab.hintData\\u000d\\u000d\\u000d
p1
(dp2
Vhhints\\u000d\\u000d\\u000d
p3
(lp4
(dp5
Vposition\\u000d\\u000d\\u000d
p6
I6
sVwidth\\u000d\\u000d\\u000d
p7
I78
sa(dp8
g6
I886
sg7
I20
sasVvhints\\u000d\\u000d\\u000d
p9
(lp10
(dp11
g6
I532
sg7
I82
sass."
EndChar

StartChar: K
Encoding: 75 75 71
GlifName: K_
Width: 545
VWidth: 0
Flags: W
HStem: 710 20G<96.5 110>
VStem: 51 66<367.153 716.133> 56 72<96.3681 256> 65 52<477.406 726.436>
AnchorPoint: "bottom" 272 33 basechar 0
AnchorPoint: "top" 264 742 basechar 0
LayerCount: 2
Fore
SplineSet
128 256 m 257xa0
 128 137 158 93 158 45 c 256
 158 24 154 16 130 16 c 256
 114 16 98 25 90 43 c 256
 64 101 59 198 56 275 c 256xa0
 52 362 51 385 51 431 c 256
 51 454 51 484 51 530 c 256xc0
 51 570 61 663 65 696 c 256x90
 68 722 87 730 106 730 c 256
 114 730 117 717 117 691 c 258
 117 629 l 257xc0
 115 562 113 532 113 498 c 256
 113 453 113 453 122 363 c 257
 141 382 152 398 166 414 c 256
 208 457 219 471 227 482 c 256
 277 545 312 572 347 618 c 256
 379 658 389 675 400 691 c 256
 406 699 411 704 427 704 c 256
 438 704 464 701 464 685 c 256
 464 662 415 600 405 584 c 257
 392 566 364 528 298 462 c 256
 202 366 199 350 173 318 c 257
 176 314 219 270 360 154 c 257
 450 76 531 74 531 42 c 256
 531 18 516 8 486 8 c 256
 443 8 409 26 374 48 c 256
 313 87 257 131 206 182 c 256
 176 212 160 229 128 256 c 257xa0
EndSplineSet
PickledDataWithLists: "(dp0
Vcom.fontlab.hintData\\u000d\\u000d\\u000d
p1
(dp2
Vhhints\\u000d\\u000d\\u000d
p3
(lp4
(dp5
Vposition\\u000d\\u000d\\u000d
p6
I10
sVwidth\\u000d\\u000d\\u000d
p7
I102
sa(dp8
g6
I892
sg7
I20
sasVvhints\\u000d\\u000d\\u000d
p9
(lp10
(dp11
g6
I64
sg7
I82
sa(dp12
g6
I70
sg7
I90
sa(dp13
g6
I81
sg7
I65
sass."
EndChar

StartChar: L
Encoding: 76 76 73
GlifName: L_
Width: 497
VWidth: 0
Flags: W
HStem: -16 21G<106 150.5> 40 58<295.151 464.664> 695 20G<91 107>
VStem: 64 77<68.4534 307.968> 64 62<115.95 711.053>
AnchorPoint: "bottom" 256 41 basechar 0
AnchorPoint: "top" 243 729 basechar 0
LayerCount: 2
Fore
SplineSet
61 662 m 256xe8
 61 696 88 715 94 715 c 256
 120 715 130 704 130 682 c 256
 130 658 128 651 128 536 c 256
 128 470 126 405 126 344 c 256xe8
 126 302 141 167 141 67 c 257
 249 75 303 98 373 98 c 256
 435 98 467 91 467 75 c 256
 467 53 449 38 438 38 c 256
 433 38 430 40 427 40 c 256
 346 40 187 -16 114 -16 c 256
 98 -16 78 4 70 38 c 256
 64 62 64 109 64 162 c 256
 64 183 64 205 64 227 c 258xf0
 64 528 l 258
 64 552 61 660 61 662 c 256xe8
EndSplineSet
PickledDataWithLists: "(dp0
Vcom.fontlab.hintData\\u000d\\u000d\\u000d
p1
(dp2
Vhhints\\u000d\\u000d\\u000d
p3
(lp4
(dp5
Vposition\\u000d\\u000d\\u000d
p6
I-20
sVwidth\\u000d\\u000d\\u000d
p7
I21
sa(dp8
g6
I50
sg7
I72
sasVvhints\\u000d\\u000d\\u000d
p9
(lp10
(dp11
g6
I76
sg7
I86
sa(dp12
g6
I80
sg7
I96
sass."
EndChar

StartChar: uni039B
Encoding: 923 923 75
GlifName: L_ambda
Width: 556
VWidth: 0
Flags: W
HStem: -1 21G<55 76.5> 714 20G<253.5 266>
VStem: 29 68<4.39101 102.318>
AnchorPoint: "top" 264 762 basechar 0
AnchorPoint: "bottom" 272 33 basechar 0
LayerCount: 2
Fore
SplineSet
67 -1 m 257
 43 -1 29 31 29 55 c 256
 29 85 49 118 58 148 c 256
 75 206 96 260 114 319 c 256
 144 421 168 527 198 629 c 256
 204 650 208 668 218 689 c 256
 228 713 246 734 261 734 c 256
 271 734 289 731 298 725 c 256
 316 713 327 691 339 673 c 256
 360 643 368 610 378 574 c 256
 397 497 414 419 435 333 c 256
 455 253 472 150 494 116 c 256
 501 104 509 87 518 81 c 256
 528 74 539 61 539 48 c 256
 539 43 538 6 500 6 c 256
 462 6 435 64 423 94 c 257
 350 309 351 526 273 650 c 257
 259 597 246 555 242 534 c 256
 223 444 170 283 160 242 c 256
 151 206 141 170 129 134 c 256
 119 102 107 69 97 39 c 256
 91 20 86 0 67 -1 c 257
EndSplineSet
PickledDataWithLists: "(dp0
Vcom.fontlab.hintData\\u000d\\u000d\\u000d
p1
(dp2
Vhhints\\u000d\\u000d\\u000d
p3
(lp4
(dp5
Vposition\\u000d\\u000d\\u000d
p6
I-1
sVwidth\\u000d\\u000d\\u000d
p7
I21
sa(dp8
g6
I897
sg7
I20
sass."
EndChar

StartChar: Lslash
Encoding: 321 321 78
GlifName: L_slash
Width: 537
VWidth: 0
Flags: W
HStem: 0 62<199.488 501.906> 3 67<261.156 508.958> 702 20G<141.5 173.5>
VStem: 127 68<473.328 717.455> 130 69<62.5731 235 356 567.103 568.153 715.344>
AnchorPoint: "bottom" 312 25 basechar 0
AnchorPoint: "top" 266 725 basechar 0
LayerCount: 2
Fore
SplineSet
154 722 m 256xb0
 193 722 202 680 202 674 c 256
 202 673 202 672 202 671 c 256
 197 653 195 570 195 568 c 256xb0
 195 549 196 521 196 471 c 256
 196 414 197 402 198 356 c 257
 231 378 248 389 326 439 c 256
 342 449 361 466 389 466 c 256
 408 466 418 462 418 452 c 256
 418 421 361 380 337 366 c 256
 307 348 262 316 222 294 c 256
 215 290 206 285 199 280 c 257
 199 257 l 257
 197 243 196 223 196 194 c 256
 196 109 199 120 199 62 c 257
 206 61 215 62 225 62 c 256
 246 62 272 62 314 62 c 256xa8
 404 62 460 65 482 70 c 256
 488 71 492 70 494 70 c 256
 497 70 500 71 502 70 c 256
 508 67 510 43 510 29 c 256
 510 4 500 2 482 2 c 258
 470 2 l 258
 459 2 448 3 435 3 c 256x68
 345 3 315 2 238 0 c 257
 210 0 l 258
 172 0 140 3 135 43 c 256
 131 77 130 101 130 126 c 256xa8
 130 144 131 163 131 185 c 258
 131 235 l 257
 61 185 62 185 61 183 c 256
 58 177 52 174 45 174 c 256
 20 174 12 198 12 214 c 256
 12 233 60 263 75 272 c 257
 92 283 110 296 131 311 c 257
 130 441 127 507 127 667 c 256
 127 703 129 722 154 722 c 256xb0
EndSplineSet
PickledDataWithLists: "(dp0
Vcom.fontlab.hintData\\u000d\\u000d\\u000d
p1
(dp2
Vhhints\\u000d\\u000d\\u000d
p3
(lp4
(dp5
Vposition\\u000d\\u000d\\u000d
p6
I0
sVwidth\\u000d\\u000d\\u000d
p7
I78
sa(dp8
g6
I2
sg7
I86
sasVvhints\\u000d\\u000d\\u000d
p9
(lp10
(dp11
g6
I164
sg7
I81
sass."
EndChar

StartChar: M
Encoding: 77 77 79
GlifName: M_
Width: 705
VWidth: 0
Flags: W
HStem: -8 21G<105.5 124.5> 221 75<307.473 387.885> 705 20G<67 89>
VStem: 45 83<620.962 711.568> 62 61<220.695 512.636> 560 70<521.466 686.26> 573 57<219.237 445>
AnchorPoint: "bottom" 376 33 basechar 0
AnchorPoint: "top" 349 727 basechar 0
LayerCount: 2
Fore
SplineSet
586 101 m 256xe2
 586 172 573 208 573 362 c 258
 573 445 l 257
 567 434 552 402 538 381 c 257
 527 363 509 347 477 310 c 256
 453 283 407 251 370 230 c 257
 360 224 349 221 336 221 c 256
 314 221 296 229 282 243 c 257
 258 270 256 263 234 293 c 256
 210 325 200 355 174 398 c 256
 166 411 144 462 136 483 c 256
 131 494 128 504 123 515 c 257
 123 448 l 258
 123 341 125 222 133 123 c 256
 136 89 136 67 146 59 c 257
 156 53 160 47 160 37 c 256
 160 18 134 -8 115 -8 c 256
 96 -8 92 9 86 27 c 256
 67 74 62 166 62 302 c 256
 62 340 62 375 62 408 c 256xea
 62 416 61 484 61 490 c 256
 58 575 45 610 45 653 c 256
 45 699 54 725 80 725 c 256
 98 725 101 725 128 674 c 257
 139 647 157 605 163 586 c 256
 181 528 215 475 237 429 c 256
 250 403 305 296 341 296 c 256
 343 296 348 298 350 298 c 256
 389 304 471 392 491 422 c 256
 523 470 557 560 560 608 c 257
 562 650 559 691 586 691 c 256
 627 691 630 661 630 617 c 256
 630 607 630 594 630 582 c 258xf4
 630 517 l 258
 630 488 630 466 630 442 c 256
 630 372 650 66 651 62 c 256
 653 41 678 -3 678 -14 c 256
 678 -27 651 -42 637 -42 c 256
 600 -42 588 7 586 101 c 256xe2
EndSplineSet
PickledDataWithLists: "(dp0
Vcom.fontlab.hintData\\u000d\\u000d\\u000d
p1
(dp2
Vhhints\\u000d\\u000d\\u000d
p3
(lp4
(dp5
Vposition\\u000d\\u000d\\u000d
p6
I-10
sVwidth\\u000d\\u000d\\u000d
p7
I21
sa(dp8
g6
I276
sg7
I94
sa(dp9
g6
I886
sg7
I20
sasVvhints\\u000d\\u000d\\u000d
p10
(lp11
(dp12
g6
I56
sg7
I104
sa(dp13
g6
I78
sg7
I76
sa(dp14
g6
I700
sg7
I88
sa(dp15
g6
I716
sg7
I72
sa(dp16
g6
I732
sg7
I72
sass."
EndChar

StartChar: N
Encoding: 78 78 81
GlifName: N_
Width: 617
VWidth: 0
Flags: W
HStem: -10 85<460.243 514>
VStem: 51 66<260.593 523.974> 466 70<407.615 671.279> 490 63<118.936 502.871> 501 62<75.4145 219.816>
AnchorPoint: "bottom" 320 33 basechar 0
AnchorPoint: "top" 317 730 basechar 0
LayerCount: 2
Fore
SplineSet
553 220 m 256xd0
 553 174 563 172 563 106 c 256
 563 61 558 37 550 11 c 257
 542 -10 519 -10 509 -10 c 256
 440 -10 337 117 291 210 c 256
 288 216 234 318 194 374 c 257
 186 382 134 490 120 525 c 257
 118 503 117 489 117 438 c 256
 117 320 118 382 118 272 c 257
 121 72 158 74 158 38 c 256
 158 16 136 -5 114 -5 c 256
 98 -5 87 2 82 18 c 257
 77 48 75 76 72 98 c 256
 70 106 58 250 56 258 c 256
 53 284 51 363 51 493 c 256
 51 700 58 708 64 714 c 257
 70 719 77 720 85 720 c 256
 106 720 123 704 134 674 c 256
 134 672 149 639 181 573 c 256
 205 527 209 491 251 416 c 256
 283 358 320 313 344 254 c 256
 362 212 467 75 486 75 c 256
 496 75 501 76 501 118 c 256xc8
 501 138 490 155 490 225 c 256xd0
 490 253 491 277 491 296 c 256
 491 299 480 591 469 629 c 256
 467 635 466 638 466 643 c 256
 466 664 475 683 491 702 c 257
 501 712 517 718 539 718 c 256
 565 718 571 718 571 702 c 256
 571 672 536 657 536 645 c 256xe0
 536 603 546 454 546 452 c 256
 546 442 546 436 546 430 c 256
 548 411 556 278 556 274 c 256
 556 253 553 240 553 220 c 256xd0
EndSplineSet
PickledDataWithLists: "(dp0
Vcom.fontlab.hintData\\u000d\\u000d\\u000d
p1
(dp2
Vhhints\\u000d\\u000d\\u000d
p3
(lp4
(dp5
Vposition\\u000d\\u000d\\u000d
p6
I-12
sVwidth\\u000d\\u000d\\u000d
p7
I106
sasVvhints\\u000d\\u000d\\u000d
p8
(lp9
(dp10
g6
I64
sg7
I82
sa(dp11
g6
I68
sg7
I100
sa(dp12
g6
I582
sg7
I88
sa(dp13
g6
I614
sg7
I80
sa(dp14
g6
I626
sg7
I78
sass."
EndChar

StartChar: O
Encoding: 79 79 86
GlifName: O_
Width: 611
VWidth: 0
Flags: W
HStem: -10 71<212.581 358.043> 632 82<138 173.462> 658 65<285.451 430.308>
VStem: 45 67<193.415 457.482> 501 61<227.617 539.711>
AnchorPoint: "bottom" 280 33 basechar 0
AnchorPoint: "top" 310 745 basechar 0
LayerCount: 2
Fore
SplineSet
174 624 m 257xd8
 171 626 160 632 157 632 c 256
 149 632 141 590 141 579 c 257
 141 579 166 616 174 624 c 257xd8
501 336 m 256
 501 419 499 449 493 478 c 256
 477 555 462 658 368 658 c 256xb8
 338 658 314 651 296 643 c 257
 247 618 172 527 149 477 c 257
 141 463 133 458 125 458 c 257
 121 448 112 370 112 360 c 256
 112 343 112 329 112 317 c 256
 112 287 112 225 158 141 c 257
 196 83 232 61 293 61 c 256
 317 61 352 77 365 85 c 257
 411 119 433 142 451 171 c 256
 477 214 501 272 501 336 c 256
146 714 m 256xd8
 165 714 213 685 221 674 c 257
 263 704 301 723 362 723 c 256xb8
 405 723 436 713 462 686 c 256
 499 646 499 632 525 579 c 256
 549 531 562 456 562 355 c 256
 562 293 556 248 546 224 c 256
 448 -4 283 -10 280 -10 c 256
 192 -10 132 41 94 115 c 257
 70 158 72 164 64 206 c 256
 59 232 45 257 45 318 c 256
 45 428 59 501 67 541 c 257
 80 597 73 643 102 685 c 256
 115 704 130 714 146 714 c 256xd8
EndSplineSet
PickledDataWithLists: "(dp0
Vcom.fontlab.hintData\\u000d\\u000d\\u000d
p1
(dp2
Vhhints\\u000d\\u000d\\u000d
p3
(lp4
(dp5
Vposition\\u000d\\u000d\\u000d
p6
I-12
sVwidth\\u000d\\u000d\\u000d
p7
I88
sa(dp8
g6
I790
sg7
I102
sa(dp9
g6
I822
sg7
I82
sasVvhints\\u000d\\u000d\\u000d
p10
(lp11
(dp12
g6
I56
sg7
I84
sa(dp13
g6
I626
sg7
I76
sass."
EndChar

StartChar: OE
Encoding: 338 338 87
GlifName: O_E_
Width: 869
VWidth: 0
Flags: W
HStem: -3 84<214.553 336.215> 22 75<471 676.453> 56 74<645.83 814.155> 336 78<506.901 662.401> 632 65<518.049 790.05> 660 65<226.949 356.154>
VStem: 54 68<246.904 513.835> 414 91<409.427 588.705> 427 79<191.438 336 408 558.344>
AnchorPoint: "bottom" 488 47 basechar 0
AnchorPoint: "top" 448 759 basechar 0
LayerCount: 2
Fore
SplineSet
490 22 m 256x5280
 452 22 446 59 441 101 c 257
 431 90 418 76 411 70 c 256
 374 34 360 31 344 22 c 256x5280
 330 13 280 -3 270 -3 c 256
 202 -3 142 51 126 101 c 256
 116 133 101 148 94 170 c 256
 88 190 73 232 69 257 c 257
 62 283 60 302 58 320 c 256
 58 326 54 349 54 387 c 256
 54 406 61 446 67 484 c 256
 79 554 104 593 146 651 c 256
 152 660 168 680 204 704 c 256
 224 718 253 725 294 725 c 256
 339 725 369 718 387 704 c 256
 418 678 432 658 436 644 c 256
 437 642 437 639 439 636 c 257
 442 660 l 257x9680
 445 682 454 697 468 703 c 257
 476 705 488 710 505 710 c 256
 512 710 515 709 522 704 c 256
 526 702 553 697 569 697 c 256
 584 697 742 696 758 696 c 256
 784 696 796 681 796 671 c 256
 796 636 744 630 698 630 c 256
 674 630 650 632 629 632 c 256
 586 632 518 634 518 634 c 257
 518 630 505 556 505 534 c 256x1b
 506 523 506 513 506 504 c 256x1a80
 506 486 505 469 505 446 c 256x1b
 505 431 505 420 506 408 c 257
 525 409 558 414 569 414 c 256
 598 414 661 414 668 421 c 256
 674 427 697 430 714 430 c 256
 737 430 744 410 744 403 c 256
 744 385 722 369 715 367 c 256
 702 365 670 362 648 353 c 256
 612 339 546 336 504 336 c 257
 504 334 505 188 512 142 c 257
 518 112 527 97 541 97 c 256x5a80
 560 97 785 126 787 127 c 256
 792 129 796 130 802 130 c 256
 816 130 830 124 832 114 c 256
 834 110 831 104 825 95 c 256
 809 69 803 56 787 56 c 256x3280
 783 56 743 54 742 54 c 256
 704 45 491 22 490 22 c 256x5280
285 660 m 256x97
 207 660 147 546 134 480 c 256
 130 455 122 387 122 344 c 256
 122 301 139 259 148 235 c 257
 154 217 154 207 166 183 c 257
 183 154 186 134 209 108 c 257
 222 92 250 81 276 81 c 256
 306 81 324 88 355 121 c 257
 378 143 391 160 397 171 c 256
 426 225 427 330 427 389 c 256x9680
 427 430 423 461 414 516 c 257
 414 546 393 595 375 619 c 257
 353 645 332 660 285 660 c 256x97
EndSplineSet
PickledDataWithLists: "(dp0
Vcom.fontlab.hintData\\u000d\\u000d\\u000d
p1
(dp2
Vhhints\\u000d\\u000d\\u000d
p3
(lp4
(dp5
Vposition\\u000d\\u000d\\u000d
p6
I-4
sVwidth\\u000d\\u000d\\u000d
p7
I105
sa(dp8
g6
I27
sg7
I94
sa(dp9
g6
I70
sg7
I93
sa(dp10
g6
I420
sg7
I90
sa(dp11
g6
I788
sg7
I82
sa(dp12
g6
I825
sg7
I81
sasVvhints\\u000d\\u000d\\u000d
p13
(lp14
(dp15
g6
I68
sg7
I85
sa(dp16
g6
I518
sg7
I114
sa(dp17
g6
I534
sg7
I98
sass."
EndChar

StartChar: uni01A0
Encoding: 416 416 93
GlifName: O_horn
Width: 590
VWidth: 0
Flags: W
HStem: -10 60<185.117 299.966> 610 60<199.583 361.598>
VStem: 40 78<394.006 539.338> 58 53<185.055 394> 446 56<230.09 499.508> 469 81<678.466 855.611>
AnchorPoint: "bottom" 272 25 basechar 0
AnchorPoint: "top" 253 745 basechar 0
LayerCount: 2
Fore
SplineSet
326 18 m 256xc8
 313 18 299 -10 244 -10 c 256
 208 -10 145 12 130 46 c 257
 127 56 119 65 113 70 c 256
 84 89 58 240 58 343 c 257xd8
 59 365 59 384 59 394 c 257
 45 394 40 402 40 426 c 256
 40 477 49 484 54 533 c 257
 56 562 57 565 70 579 c 256
 77 588 86 599 88 603 c 256
 94 615 183 659 213 666 c 256
 228 669 249 670 269 670 c 256
 295 670 321 668 337 663 c 256
 359 656 422 625 440 610 c 257
 455 640 458 678 464 687 c 256
 466 692 469 723 469 757 c 256xe4
 470 810 470 820 478 837 c 256
 485 854 488 856 502 859 c 256xc8
 505 859 509 860 512 860 c 256
 521 860 550 860 550 822 c 256xc4
 550 809 548 794 547 782 c 256
 544 743 529 693 527 670 c 256
 525 646 506 617 492 594 c 256
 482 576 476 566 470 555 c 257
 488 526 489 489 495 462 c 256
 500 440 502 413 502 385 c 256
 502 383 499 225 472 195 c 256
 468 191 462 180 460 170 c 256
 454 143 427 125 416 99 c 256
 412 89 397 75 390 67 c 256
 367 45 332 18 326 18 c 256xc8
442 440 m 256
 442 448 442 448 426 502 c 257
 423 502 419 502 417 502 c 256
 395 502 386 512 386 538 c 256
 386 545 387 553 388 562 c 257
 377 587 326 610 298 610 c 256
 292 610 284 610 273 608 c 256
 177 601 140 540 139 538 c 256
 125 512 117 478 118 455 c 257xe8
 118 413 111 384 111 338 c 256
 111 287 117 236 127 204 c 256
 130 193 136 173 139 159 c 256
 147 131 177 80 183 74 c 256
 186 70 204 51 235 50 c 256
 277 50 304 72 333 100 c 256
 417 183 429 215 443 330 c 256
 445 348 446 359 446 368 c 256
 446 390 440 397 440 413 c 256
 440 423 442 433 442 440 c 256
EndSplineSet
PickledDataWithLists: "(dp0
Vcom.fontlab.hintData\\u000d\\u000d\\u000d
p1
(dp2
Vhhints\\u000d\\u000d\\u000d
p3
(lp4
(dp5
Vposition\\u000d\\u000d\\u000d
p6
I-12
sVwidth\\u000d\\u000d\\u000d
p7
I75
sa(dp8
g6
I763
sg7
I75
sasVvhints\\u000d\\u000d\\u000d
p9
(lp10
(dp11
g6
I50
sg7
I97
sa(dp12
g6
I73
sg7
I66
sa(dp13
g6
I558
sg7
I68
sa(dp14
g6
I586
sg7
I101
sass."
EndChar

StartChar: uni2126
Encoding: 8486 8486 96
GlifName: O_mega
Width: 753
VWidth: 0
Flags: W
HStem: -14 74<72.1019 212.365> 0 78<35.3114 153.126> 15 72<560 706.842> 678 71<238.177 424.913>
VStem: 90 75<249.734 589.173> 570 70<242.187 544.813>
LayerCount: 2
Fore
SplineSet
28 42 m 256x5c
 28 64 50 78 82 78 c 256x5c
 92 78 101 76 110 74 c 256
 114 73 133 60 162 60 c 256x9c
 179 60 189 66 213 72 c 257
 160 122 112 211 101 299 c 256
 95 347 90 399 90 450 c 256
 90 504 95 558 109 605 c 256
 135 691 208 749 318 749 c 256
 457 749 546 685 602 592 c 256
 629 548 640 467 640 396 c 256
 640 300 623 244 594 158 c 256
 589 145 585 133 579 122 c 257
 574 111 570 101 560 88 c 257
 567 88 574 87 581 87 c 256
 614 87 705 94 707 94 c 256
 725 94 738 90 738 76 c 256
 738 18 617 15 560 15 c 256x3c
 542 15 526 16 512 16 c 256
 480 16 448 16 448 59 c 256
 448 92 478 100 493 122 c 256
 519 157 544 216 554 266 c 256
 563 314 570 369 570 423 c 256
 570 471 564 518 544 554 c 256
 509 621 421 678 320 678 c 256
 192 678 165 567 165 437 c 256
 165 399 167 360 170 322 c 256
 176 242 229 153 275 110 c 256
 289 97 326 98 334 80 c 256
 336 77 337 72 337 67 c 256
 337 50 327 28 318 21 c 256
 305 10 282 8 264 5 c 256
 219 -4 192 -14 154 -14 c 256x9c
 136 -14 76 -8 61 0 c 256
 47 7 28 23 28 42 c 256x5c
EndSplineSet
PickledDataWithLists: "(dp0
Vcom.fontlab.hintData\\u000d\\u000d\\u000d
p1
(dp2
Vhhints\\u000d\\u000d\\u000d
p3
(lp4
(dp5
Vposition\\u000d\\u000d\\u000d
p6
I-18
sVwidth\\u000d\\u000d\\u000d
p7
I93
sa(dp8
g6
I0
sg7
I97
sa(dp9
g6
I19
sg7
I90
sa(dp10
g6
I848
sg7
I88
sasVvhints\\u000d\\u000d\\u000d
p11
(lp12
(dp13
g6
I112
sg7
I93
sa(dp14
g6
I713
sg7
I86
sass."
EndChar

StartChar: Oslash
Encoding: 216 216 100
GlifName: O_slash
Width: 755
VWidth: 0
Flags: W
HStem: -10 21G<58.5 75> 0 70<313.539 456.387> 620 69<635.478 735.25> 661 77<249.458 394.717>
VStem: 14 101<25.1121 75.9863> 111 62<267.172 495.764> 579 63<229.256 494.773>
AnchorPoint: "bottom" 387 31 basechar 0
AnchorPoint: "top" 382 769 basechar 0
LayerCount: 2
Fore
SplineSet
579 331 m 256x42
 579 370 572 475 553 503 c 256
 547 512 543 521 541 523 c 257
 538 520 532 515 527 509 c 256
 522 503 509 492 490 478 c 257
 470 465 328 331 328 324 c 257
 294 282 243 239 213 193 c 257
 225 166 291 105 316 90 c 256
 333 80 351 72 370 70 c 257
 388 70 396 68 402 68 c 256
 467 68 553 189 561 243 c 257
 563 263 567 279 573 289 c 257
 578 296 579 311 579 331 c 256x42
325 661 m 256x16
 269 661 249 643 242 630 c 257
 222 600 202 569 199 523 c 256
 197 501 191 478 184 456 c 257
 176 436 173 400 173 348 c 256
 173 298 179 279 184 266 c 257
 190 269 198 280 213 295 c 256
 299 381 353 438 375 465 c 257
 401 491 425 514 446 532 c 256
 480 561 500 577 503 582 c 257
 501 584 495 591 492 594 c 256
 468 621 424 634 377 652 c 256
 359 660 342 661 325 661 c 256x16
117 441 m 257
 121 541 125 481 129 567 c 257
 129 599 142 630 184 687 c 256
 208 720 240 738 281 738 c 256x96
 336 738 341 725 395 716 c 257
 448 706 492 684 534 646 c 256
 538 642 552 630 554 625 c 257
 567 634 579 641 591 650 c 256
 615 668 632 689 672 689 c 256
 691 689 723 688 726 686 c 256
 732 683 740 667 740 658 c 256
 740 636 715 620 694 620 c 256
 666 620 616 590 598 570 c 257
 609 554 629 501 635 482 c 257
 640 472 642 437 642 378 c 256
 642 292 630 286 628 262 c 256
 623 208 578 128 544 86 c 257
 492 28 457 0 375 0 c 256
 324 0 236 62 201 96 c 256
 183 114 170 122 162 129 c 257
 154 122 115 78 115 70 c 256x6a
 115 68 118 61 123 61 c 256
 127 61 129 56 129 49 c 256
 129 13 84 -10 66 -10 c 256
 51 -10 14 27 14 41 c 256x8a
 14 58 36 76 46 86 c 257
 70 121 80 142 110 172 c 257
 120 184 121 191 127 196 c 257
 127 198 111 261 111 334 c 256
 111 371 117 404 117 441 c 257
EndSplineSet
PickledDataWithLists: "(dp0
Vcom.fontlab.hintData\\u000d\\u000d\\u000d
p1
(dp2
Vhhints\\u000d\\u000d\\u000d
p3
(lp4
(dp5
Vposition\\u000d\\u000d\\u000d
p6
I-13
sVwidth\\u000d\\u000d\\u000d
p7
I21
sa(dp8
g6
I0
sg7
I87
sa(dp9
g6
I775
sg7
I86
sa(dp10
g6
I826
sg7
I97
sasVvhints\\u000d\\u000d\\u000d
p11
(lp12
(dp13
g6
I17
sg7
I127
sa(dp14
g6
I139
sg7
I77
sa(dp15
g6
I724
sg7
I78
sass."
EndChar

StartChar: P
Encoding: 80 80 103
GlifName: P_
Width: 497
VWidth: 0
Flags: W
HStem: -2 21G<129 151.5> 632 70<141 228.427> 710 20G<101 115.5>
VStem: 18 32<539.398 609.759> 72 67<304.293 629> 394 65<411.069 502.167>
AnchorPoint: "bottom" 143 33 basechar 0
AnchorPoint: "top" 235 742 basechar 0
LayerCount: 2
Fore
SplineSet
141 632 m 257
 141 583 139 497 139 473 c 256
 139 365 144 333 146 299 c 257
 185 305 222 312 265 334 c 256
 286 344 317 361 335 375 c 256
 354 391 394 426 394 450 c 256
 394 463 378 494 371 504 c 256
 346 537 320 554 278 584 c 256
 236 614 202 632 141 632 c 257
251 255 m 256
 227 245 176 236 149 232 c 257
 149 224 149 206 150 198 c 256
 152 174 151 146 155 125 c 256
 163 87 179 80 179 56 c 256
 179 29 167 -2 136 -2 c 256
 122 -2 109 14 104 32 c 256
 101 45 100 71 98 82 c 256
 72 188 72 493 72 520 c 256
 72 575 78 628 78 629 c 257
 72 626 53 615 51 610 c 256
 49 605 50 591 50 565 c 256
 50 549 45 538 37 538 c 256
 29 538 18 569 18 603 c 256
 18 649 35 685 83 699 c 257
 85 707 83 715 85 718 c 256
 88 724 93 730 109 730 c 256
 122 730 135 728 138 725 c 256
 140 723 141 705 141 702 c 257
 203 697 259 670 307 640 c 256
 367 602 387 588 419 547 c 256
 444 514 459 488 459 462 c 256
 459 414 437 391 419 369 c 256
 387 327 297 273 251 255 c 256
EndSplineSet
PickledDataWithLists: "(dp0
Vcom.fontlab.hintData\\u000d\\u000d\\u000d
p1
(dp2
Vhhints\\u000d\\u000d\\u000d
p3
(lp4
(dp5
Vposition\\u000d\\u000d\\u000d
p6
I-2
sVwidth\\u000d\\u000d\\u000d
p7
I21
sa(dp8
g6
I290
sg7
I84
sa(dp9
g6
I790
sg7
I88
sa(dp10
g6
I892
sg7
I20
sasVvhints\\u000d\\u000d\\u000d
p11
(lp12
(dp13
g6
I22
sg7
I40
sa(dp14
g6
I90
sg7
I84
sa(dp15
g6
I94
sg7
I94
sa(dp16
g6
I98
sg7
I78
sa(dp17
g6
I130
sg7
I94
sa(dp18
g6
I492
sg7
I82
sass."
EndChar

StartChar: uni03A6
Encoding: 934 934 104
GlifName: P_hi
Width: 576
VWidth: 0
Flags: W
HStem: -5 21G<301 310> 140 74<175.986 251> 444 138<166.133 225.268> 518 73<318.904 436.971> 729 20G<266.5 294>
VStem: 52 66<267.683 463.098> 254 68<5.44136 140 228 446.751> 458 69<324.236 497.585>
AnchorPoint: "bottom" 294 33 basechar 0
AnchorPoint: "top" 285 767 basechar 0
LayerCount: 2
Fore
SplineSet
166 498 m 257xef
 141 480 118 427 118 347 c 256
 118 285 139 257 185 229 c 256
 205 217 228 214 251 214 c 257
 249 304 248 398 248 490 c 257
 244 488 240 484 236 481 c 256
 228 475 230 472 224 464 c 256
 217 456 204 444 193 444 c 258
 190 444 l 257
 178 446 161 465 161 481 c 256
 161 487 163 492 166 498 c 257xef
317 511 m 257
 317 439 l 258
 317 369 317 298 319 228 c 257
 406 263 458 320 458 418 c 256
 458 478 446 518 376 518 c 256xdf
 358 518 338 514 317 511 c 257
248 571 m 257
 248 687 l 258
 248 712 250 749 283 749 c 256
 305 749 322 708 322 690 c 257
 320 656 319 620 318 586 c 257
 336 589 352 591 370 591 c 256xdf
 476 591 527 529 527 421 c 256
 527 363 511 304 489 270 c 256
 455 219 380 169 322 151 c 257
 322 115 325 77 332 42 c 257
 332 37 l 258
 332 25 327 5 318 -2 c 256
 316 -4 312 -5 308 -5 c 256
 294 -5 275 4 270 10 c 256
 253 28 258 69 256 98 c 256
 255 112 255 126 254 140 c 257
 243 140 l 258
 110 140 52 242 52 366 c 256
 52 411 63 470 87 508 c 256
 116 551 145 582 199 582 c 256xef
 216 582 234 578 248 571 c 257
EndSplineSet
PickledDataWithLists: "(dp0
Vcom.fontlab.hintData\\u000d\\u000d\\u000d
p1
(dp2
Vhhints\\u000d\\u000d\\u000d
p3
(lp4
(dp5
Vposition\\u000d\\u000d\\u000d
p6
I-6
sVwidth\\u000d\\u000d\\u000d
p7
I21
sa(dp8
g6
I175
sg7
I93
sa(dp9
g6
I555
sg7
I172
sa(dp10
g6
I647
sg7
I92
sa(dp11
g6
I916
sg7
I20
sasVvhints\\u000d\\u000d\\u000d
p12
(lp13
(dp14
g6
I65
sg7
I83
sa(dp15
g6
I310
sg7
I86
sa(dp16
g6
I320
sg7
I83
sa(dp17
g6
I572
sg7
I87
sass."
EndChar

StartChar: uni03A0
Encoding: 928 928 105
GlifName: P_i
Width: 657
VWidth: 0
Flags: W
HStem: -14 29G<234 253.5 532.5 554.5> 634 60<44.3932 161 225 387.035> 647 65<14.612 160.22 226.404 498.904> 666 68<351.587 502 565.842 638.028>
VStem: 162 63<409.438 632.511> 182 54<83.1421 109.72> 478 59<52.8445 386.081> 502 45<457.109 557.851>
LayerCount: 2
Fore
SplineSet
278 33 m 256x94
 278 12 264 -6 243 -6 c 256
 225 -6 201 6 194 19 c 256
 183 37 183 64 182 88 c 257x94
 168 247 167 415 162 582 c 256
 162 599 161 615 161 632 c 257
 151 634 138 634 127 634 c 256
 120 634 113 634 106 634 c 256xc8
 80 634 57 635 39 647 c 256
 26 656 9 668 9 686 c 256
 9 700 25 712 43 712 c 256xa8
 73 712 85 700 113 698 c 256
 132 696 152 694 171 694 c 256xc8
 214 694 258 701 298 706 c 256
 404 720 500 723 550 729 c 257
 572 731 590 734 614 734 c 256
 629 734 644 728 644 714 c 256
 644 704 641 694 638 687 c 256
 628 667 591 671 568 666 c 257
 556 560 552 459 547 348 c 256x99
 545 299 541 243 539 186 c 256
 539 165 537 143 537 121 c 256x92
 537 33 577 62 577 28 c 256
 577 10 562 -12 547 -14 c 257x91
 542 -14 l 258
 523 -14 501 2 492 15 c 256
 480 33 482 63 480 90 c 256
 478 115 478 140 478 166 c 256x92
 478 170 483 466 497 596 c 256
 499 617 501 637 502 661 c 257
 436 657 367 653 308 642 c 257
 282 638 255 633 225 630 c 257x99
 225 624 228 276 237 110 c 256
 237 104 236 100 236 94 c 256
 236 91 236 86 238 83 c 256
 244 71 262 69 270 59 c 257
 275 50 278 42 278 33 c 256x94
EndSplineSet
PickledDataWithLists: "(dp0
Vcom.fontlab.hintData\\u000d\\u000d\\u000d
p1
(dp2
Vhhints\\u000d\\u000d\\u000d
p3
(lp4
(dp5
Vposition\\u000d\\u000d\\u000d
p6
I-17
sVwidth\\u000d\\u000d\\u000d
p7
I21
sa(dp8
g6
I792
sg7
I76
sasVvhints\\u000d\\u000d\\u000d
p9
(lp10
(dp11
g6
I203
sg7
I82
sa(dp12
g6
I228
sg7
I67
sa(dp13
g6
I597
sg7
I74
sa(dp14
g6
I602
sg7
I82
sass."
EndChar

StartChar: uni03A8
Encoding: 936 936 106
GlifName: P_si
Width: 657
VWidth: 0
Flags: W
HStem: -10 21G<351 370.5> 304 77<233.163 290 362 461.794> 713 20G<86 100 322 349.5>
VStem: 34 62<528.921 658.86> 290 68<70.7529 302.719 386 613.697> 301 73<441.633 730.255> 541 73<597.12 781.586> 552 63<482.504 732.403>
LayerCount: 2
Fore
SplineSet
552 594 m 256xf5
 552 661 541 700 541 734 c 256
 541 761 556 789 586 789 c 256
 607 789 614 762 614 745 c 256xf2
 614 742 613 738 613 736 c 256
 611 725 611 698 611 688 c 256
 613 658 615 628 615 598 c 256
 615 428 546 312 365 304 c 256
 363 304 361 304 359 303 c 257
 358 297 358 292 358 286 c 256
 358 235 360 183 363 130 c 256
 365 106 368 86 376 70 c 256
 382 57 400 50 400 29 c 256
 400 8 381 -10 360 -10 c 256
 342 -10 336 3 328 11 c 256
 291 45 289 155 289 202 c 256
 289 226 290 250 290 272 c 258
 290 306 l 257xf9
 181 324 116 390 70 470 c 256
 43 516 34 579 34 648 c 256
 34 675 37 701 53 717 c 256
 60 724 81 733 91 733 c 256
 109 733 118 718 118 702 c 256
 118 686 112 669 107 659 c 256
 105 656 101 654 101 651 c 257
 98 641 96 632 96 622 c 256
 96 595 106 566 112 544 c 256
 138 462 192 405 282 387 c 256
 285 386 288 386 291 386 c 257
 294 469 299 549 301 635 c 257
 301 670 l 258
 301 699 305 734 339 734 c 256
 360 734 374 717 374 696 c 258
 374 680 l 257
 372 578 366 481 362 381 c 257
 371 381 378 380 387 382 c 256
 499 400 516 428 546 528 c 257
 551 547 552 570 552 594 c 256xf5
EndSplineSet
PickledDataWithLists: "(dp0
Vcom.fontlab.hintData\\u000d\\u000d\\u000d
p1
(dp2
Vhhints\\u000d\\u000d\\u000d
p3
(lp4
(dp5
Vposition\\u000d\\u000d\\u000d
p6
I-12
sVwidth\\u000d\\u000d\\u000d
p7
I21
sa(dp8
g6
I380
sg7
I96
sa(dp9
g6
I896
sg7
I20
sasVvhints\\u000d\\u000d\\u000d
p10
(lp11
(dp12
g6
I42
sg7
I78
sa(dp13
g6
I362
sg7
I86
sa(dp14
g6
I376
sg7
I92
sa(dp15
g6
I676
sg7
I91
sa(dp16
g6
I690
sg7
I79
sass."
EndChar

StartChar: Q
Encoding: 81 81 107
GlifName: Q_
Width: 626
VWidth: 0
Flags: W
HStem: 2 72<246.18 351.079> 646 76<243.438 457.101>
VStem: 50 65<259.315 523.579> 502 71<328.133 601.017>
AnchorPoint: "bottom" 306 38 basechar 0
AnchorPoint: "top" 330 758 basechar 0
LayerCount: 2
Fore
SplineSet
353 298 m 256
 376 298 408 226 438 196 c 257
 468 239 478 283 487 358 c 256
 501 453 502 512 502 535 c 256
 502 540 502 544 502 546 c 256
 502 562 500 581 485 602 c 257
 467 622 434 640 403 645 c 256
 395 646 384 646 370 646 c 256
 360 646 348 647 334 645 c 256
 239 635 144 625 118 455 c 256
 116 444 115 433 115 420 c 256
 115 410 118 291 147 229 c 256
 165 193 169 168 194 138 c 256
 207 124 219 113 232 105 c 256
 257 90 270 74 309 74 c 256
 331 74 366 106 387 135 c 257
 384 143 371 156 363 167 c 257
 353 183 352 184 341 202 c 256
 336 208 299 252 299 260 c 256
 299 270 327 298 353 298 c 256
609 -6 m 256
 609 -9 603 -39 565 -39 c 256
 560 -39 557 -38 552 -38 c 256
 531 -35 528 -19 514 -9 c 256
 503 -1 496 8 485 18 c 256
 467 34 453 52 434 79 c 257
 408 52 351 2 301 2 c 256
 259 2 211 29 179 50 c 256
 147 71 135 102 114 134 c 256
 92 166 50 281 50 386 c 256
 50 397 49 423 54 458 c 256
 64 535 70 543 88 588 c 256
 96 607 111 625 138 646 c 256
 186 683 226 700 298 713 c 256
 317 717 340 722 370 722 c 256
 385 722 401 720 419 718 c 256
 475 710 498 701 530 666 c 256
 559 636 573 604 573 550 c 256
 573 480 571 455 563 401 c 256
 544 267 524 208 498 165 c 257
 490 154 490 145 482 134 c 257
 495 112 500 105 518 84 c 257
 526 73 544 59 570 41 c 257
 596 22 609 5 609 -6 c 256
EndSplineSet
PickledDataWithLists: "(dp0
Vcom.fontlab.hintData\\u000d\\u000d\\u000d
p1
(dp2
Vhhints\\u000d\\u000d\\u000d
p3
(lp4
(dp5
Vposition\\u000d\\u000d\\u000d
p6
I3
sVwidth\\u000d\\u000d\\u000d
p7
I89
sa(dp8
g6
I808
sg7
I94
sasVvhints\\u000d\\u000d\\u000d
p9
(lp10
(dp11
g6
I62
sg7
I82
sa(dp12
g6
I627
sg7
I89
sass."
EndChar

StartChar: R
Encoding: 82 82 108
GlifName: R_
Width: 566
VWidth: 0
Flags: W
HStem: -1 21G<112 119 486.5 512.5> 717 20G<71 93>
VStem: 56 74<407.562 625> 56 66<104.793 257 324 624.652> 411 71<421.169 527.917>
AnchorPoint: "bottom" 280 33 basechar 0
AnchorPoint: "top" 251 732 basechar 0
LayerCount: 2
Fore
SplineSet
411 478 m 256xd8
 411 532 321 600 238 614 c 256
 224 616 198 622 171 622 c 256
 157 622 141 623 130 625 c 257xe8
 130 619 122 521 122 402 c 256
 122 377 122 351 123 324 c 257
 123 324 153 322 174 322 c 256
 220 322 307 342 363 390 c 256
 393 416 411 459 411 478 c 256xd8
128 257 m 257
 130 211 134 116 154 73 c 257
 160 62 162 52 162 47 c 256
 162 39 154 28 141 15 c 257
 128 1 123 -1 115 -1 c 256
 109 -1 98 9 90 22 c 256
 76 44 70 67 67 118 c 256
 65 150 65 173 59 234 c 256
 56 264 56 292 56 318 c 256
 56 335 56 351 56 367 c 256
 56 466 57 509 57 561 c 256
 57 587 57 615 56 654 c 257xd8
 46 662 35 678 35 689 c 256
 35 708 60 737 82 737 c 256
 104 737 131 708 133 697 c 257
 159 695 216 692 245 686 c 256
 274 680 301 668 315 663 c 256
 374 643 420 613 454 561 c 257
 464 542 482 499 482 481 c 256
 482 425 433 375 398 343 c 256
 368 316 322 296 296 286 c 257
 326 273 362 240 378 222 c 256
 404 193 449 128 470 106 c 256
 499 76 517 60 525 57 c 256
 533 54 536 46 536 36 c 256
 536 17 523 -4 502 -4 c 256
 471 -4 428 44 408 66 c 256
 398 76 374 105 358 126 c 256
 340 150 311 177 290 199 c 256
 256 234 216 249 128 257 c 257
EndSplineSet
PickledDataWithLists: "(dp0
Vcom.fontlab.hintData\\u000d\\u000d\\u000d
p1
(dp2
Vhhints\\u000d\\u000d\\u000d
p3
(lp4
(dp5
Vposition\\u000d\\u000d\\u000d
p6
I-1
sVwidth\\u000d\\u000d\\u000d
p7
I21
sa(dp8
g6
I781
sg7
I90
sa(dp9
g6
I901
sg7
I20
sasVvhints\\u000d\\u000d\\u000d
p10
(lp11
(dp12
g6
I70
sg7
I92
sa(dp13
g6
I71
sg7
I82
sa(dp14
g6
I84
sg7
I118
sa(dp15
g6
I514
sg7
I88
sass."
EndChar

StartChar: S
Encoding: 83 83 112
GlifName: S_
Width: 487
VWidth: 0
Flags: W
HStem: -5 72<124.489 277.441> 638 79<213.881 357.843>
VStem: 49 72<368.143 530.936> 374 76<120.914 171.428>
AnchorPoint: "bottom" 248 34 basechar 0
AnchorPoint: "top" 267 751 basechar 0
LayerCount: 2
Fore
SplineSet
105 91 m 256
 147 91 136 67 190 67 c 256
 220 67 269 78 290 86 c 257
 330 104 346 117 367 130 c 256
 372 133 374 135 374 141 c 256
 374 149 369 155 361 163 c 256
 267 256 234 260 186 274 c 257
 168 280 97 310 81 336 c 256
 59 373 49 387 49 440 c 256
 49 509 95 581 114 608 c 257
 122 618 130 632 146 648 c 256
 171 673 236 717 270 717 c 256
 315 717 339 709 353 699 c 256
 358 696 364 691 374 686 c 256
 395 675 404 661 404 645 c 256
 404 629 391 614 372 614 c 256
 341 614 346 638 274 638 c 256
 230 638 190 602 166 568 c 256
 139 530 121 502 121 443 c 256
 121 411 124 386 137 373 c 256
 155 354 195 339 222 331 c 257
 299 305 367 259 423 206 c 256
 447 184 450 164 450 154 c 256
 450 135 438 111 412 85 c 256
 369 42 232 -5 174 -5 c 256
 126 -5 65 21 65 53 c 256
 65 76 83 91 105 91 c 256
EndSplineSet
PickledDataWithLists: "(dp0
Vcom.fontlab.hintData\\u000d\\u000d\\u000d
p1
(dp2
Vhhints\\u000d\\u000d\\u000d
p3
(lp4
(dp5
Vposition\\u000d\\u000d\\u000d
p6
I-6
sVwidth\\u000d\\u000d\\u000d
p7
I90
sa(dp8
g6
I798
sg7
I98
sasVvhints\\u000d\\u000d\\u000d
p9
(lp10
(dp11
g6
I61
sg7
I90
sa(dp12
g6
I467
sg7
I96
sass."
EndChar

StartChar: Scedilla
Encoding: 350 350 115
GlifName: S_cedilla
Width: 487
VWidth: 0
Flags: W
HStem: 3 71<146.989 328.384> 652 74<205.28 291.921>
VStem: 65 69<443.231 555.678> 345 69<-145.046 1.23178> 427 67<121.497 239.54>
AnchorPoint: "bottom" 303 -204 basechar 0
AnchorPoint: "top" 267 751 basechar 0
LayerCount: 2
Fore
SplineSet
310 -224 m 257
 301 -224 272 -224 272 -205 c 256
 272 -191 293 -182 303 -170 c 256
 313 -157 327 -143 334 -128 c 256
 341 -114 345 -98 345 -80 c 256
 345 -50 325 -10 322 6 c 257
 313 4 296 3 274 3 c 256
 252 3 226 5 204 8 c 256
 163 14 116 12 89 42 c 257
 82 48 78 60 78 71 c 256
 78 101 115 102 116 102 c 256
 156 102 160 74 254 74 c 256
 271 74 288 75 305 77 c 256
 359 81 427 113 427 175 c 256
 427 274 298 319 196 353 c 256
 167 362 139 366 114 383 c 256
 94 397 77 416 70 438 c 256
 67 449 65 462 65 474 c 256
 65 497 70 520 78 542 c 256
 107 614 147 703 222 723 c 256
 228 725 232 726 238 726 c 256
 268 726 299 704 322 686 c 256
 333 678 352 664 352 650 c 257
 352 650 350 626 319 626 c 256
 313 626 308 626 302 627 c 256
 288 629 259 652 241 652 c 256
 239 652 239 651 237 651 c 256
 207 642 188 611 171 584 c 256
 153 555 134 520 134 486 c 256
 134 480 135 472 137 466 c 256
 141 449 156 444 170 434 c 257
 214 408 320 396 395 342 c 256
 423 321 454 300 470 270 c 256
 484 242 494 208 494 175 c 256
 494 161 492 149 489 136 c 256
 479 100 445 74 418 48 c 256
 408 39 391 30 385 25 c 257
 386 24 414 -40 414 -86 c 256
 414 -156 346 -218 310 -224 c 257
EndSplineSet
PickledDataWithLists: "(dp0
Vcom.fontlab.hintData\\u000d\\u000d\\u000d
p1
(dp2
Vhhints\\u000d\\u000d\\u000d
p3
(lp4
(dp5
Vposition\\u000d\\u000d\\u000d
p6
I4
sVwidth\\u000d\\u000d\\u000d
p7
I89
sa(dp8
g6
I815
sg7
I92
sasVvhints\\u000d\\u000d\\u000d
p9
(lp10
(dp11
g6
I81
sg7
I87
sa(dp12
g6
I431
sg7
I87
sa(dp13
g6
I534
sg7
I83
sass."
EndChar

StartChar: uni03A3
Encoding: 931 931 117
GlifName: S_igma
Width: 540
VWidth: 0
Flags: W
HStem: -5 67<139.051 493.618> 5 58<246.562 493.618> 654 84<220.063 456.318> 658 57<119 442.157> 702 20G<66.5 90>
LayerCount: 2
Fore
SplineSet
220 716 m 256x10
 430 716 416 738 462 738 c 256x20
 478 738 490 734 490 717 c 256
 490 714 489 710 488 706 c 256
 478 664 395 664 350 658 c 257x10
 321 655 294 654 266 654 c 256x20
 218 654 170 657 119 658 c 257
 145 592 168 548 210 495 c 256
 235 465 264 422 294 396 c 256
 304 387 320 376 323 362 c 256
 324 359 324 357 324 354 c 256
 324 328 294 306 282 292 c 256
 183 176 150 134 137 68 c 257
 172 62 215 62 258 62 c 258
 329 62 l 258x90
 357 62 383 61 411 63 c 256
 420 63 429 64 438 64 c 256
 443 64 447 64 451 63 c 257
 470 63 l 258
 492 63 497 50 497 29 c 256
 497 23 496 17 494 14 c 256
 486 4 469 7 456 5 c 256x40
 402 -4 340 -2 282 -4 c 256
 270 -5 258 -5 246 -5 c 256
 217 -5 188 -3 160 -2 c 256
 102 0 60 7 60 62 c 256
 60 103 88 189 246 349 c 257
 215 383 185 420 155 456 c 256
 129 487 110 518 90 557 c 256
 75 587 66 621 52 654 c 257xa0
 43 658 34 671 34 685 c 256
 34 708 56 722 77 722 c 256x08
 103 722 96 715 158 715 c 256
 179 715 200 716 220 716 c 256x10
EndSplineSet
PickledDataWithLists: "(dp0
Vcom.fontlab.hintData\\u000d\\u000d\\u000d
p1
(dp2
Vhhints\\u000d\\u000d\\u000d
p3
(lp4
(dp5
Vposition\\u000d\\u000d\\u000d
p6
I-6
sVwidth\\u000d\\u000d\\u000d
p7
I83
sa(dp8
g6
I6
sg7
I73
sa(dp9
g6
I817
sg7
I78
sa(dp10
g6
I883
sg7
I20
sass."
EndChar

StartChar: T
Encoding: 84 84 118
GlifName: T_
Width: 592
VWidth: 0
Flags: W
HStem: -2 21G<317.5 323> 623 63<86.2057 253.007> 650 73<348.802 562.948>
VStem: 254 64<327.319 625.53> 271 63<94.4135 424.565>
AnchorPoint: "bottom" 320 33 basechar 0
AnchorPoint: "top" 288 742 basechar 0
LayerCount: 2
Fore
SplineSet
482 650 m 257xb0
 394 650 405 642 317 634 c 257
 317 634 318 582 318 555 c 256xb0
 321 416 329 267 334 200 c 256
 337 163 336 102 339 94 c 256
 342 86 345 80 350 77 c 256
 361 67 368 53 368 43 c 256
 368 30 358 18 336 8 c 257
 323 0 326 -2 320 -2 c 256
 315 -2 312 0 304 5 c 257
 277 18 274 54 271 94 c 256xa8
 268 136 268 197 266 216 c 256
 263 254 254 350 254 504 c 256
 254 538 256 566 256 590 c 256
 256 604 256 616 254 626 c 257
 233 624 200 623 160 623 c 256
 61 623 22 624 22 664 c 256
 22 667 24 670 29 675 c 257
 39 692 40 694 85 694 c 256
 111 694 119 686 146 686 c 256xd0
 165 686 192 686 229 691 c 256
 231 691 351 702 416 706 c 257
 459 711 477 714 482 717 c 256
 487 720 494 723 507 723 c 256
 513 723 570 723 570 690 c 256
 570 671 559 668 546 662 c 256
 535 656 512 652 482 650 c 257xb0
EndSplineSet
PickledDataWithLists: "(dp0
Vcom.fontlab.hintData\\u000d\\u000d\\u000d
p1
(dp2
Vhhints\\u000d\\u000d\\u000d
p3
(lp4
(dp5
Vposition\\u000d\\u000d\\u000d
p6
I-2
sVwidth\\u000d\\u000d\\u000d
p7
I21
sa(dp8
g6
I779
sg7
I79
sa(dp9
g6
I813
sg7
I91
sasVvhints\\u000d\\u000d\\u000d
p10
(lp11
(dp12
g6
I318
sg7
I80
sa(dp13
g6
I339
sg7
I79
sass."
EndChar

StartChar: uni0166
Encoding: 358 358 120
GlifName: T_bar
Width: 614
VWidth: 0
Flags: W
HStem: 662 73<128 345 414 556.065> 680 53<462.703 580.24>
VStem: 345 69<610.663 661> 357 67<-26.235 270>
AnchorPoint: "bottom" 390 1 basechar 0
AnchorPoint: "top" 304 764 basechar 0
LayerCount: 2
Fore
SplineSet
358 42 m 256x90
 358 61 357 48 357 130 c 258
 357 198 l 258x90
 357 220 357 245 355 267 c 257
 355 270 l 257
 346 269 338 270 328 269 c 256
 310 268 291 262 273 262 c 256
 266 262 234 263 234 292 c 256
 234 302 237 311 243 317 c 256
 254 328 274 325 290 328 c 256
 309 331 329 331 350 333 c 257
 350 363 l 257
 344 529 345 530 345 552 c 256
 345 575 346 599 346 621 c 256
 346 635 346 648 345 661 c 257
 343 661 198 651 152 651 c 256
 136 651 120 649 104 649 c 256
 96 649 88 649 80 651 c 256
 66 654 43 653 40 667 c 256
 40 668 39 669 39 670 c 256
 39 681 54 691 64 698 c 256
 75 706 91 706 104 709 c 256
 189 725 276 725 362 730 c 256
 396 732 429 735 462 735 c 256xa0
 477 735 492 735 507 733 c 256
 530 730 582 736 582 708 c 256
 582 695 561 686 549 680 c 256x60
 522 666 488 665 458 662 c 256
 454 661 450 662 447 662 c 256
 440 662 433 662 426 662 c 258
 414 662 l 257xa0
 415 648 416 624 416 610 c 256
 416 608 414 580 422 339 c 257
 442 341 462 342 482 342 c 256
 500 342 517 326 517 312 c 256
 517 274 438 274 438 274 c 258
 433 274 429 274 424 274 c 257
 424 210 l 258
 424 180 426 148 426 118 c 256
 426 96 428 76 428 54 c 256
 428 40 427 27 424 13 c 256
 418 -10 412 -30 386 -30 c 256
 379 -30 358 -27 358 13 c 256
 358 23 358 32 358 42 c 256x90
EndSplineSet
PickledDataWithLists: "(dp0
Vcom.fontlab.hintData\\u000d\\u000d\\u000d
p1
(dp2
Vhhints\\u000d\\u000d\\u000d
p3
(lp4
(dp5
Vposition\\u000d\\u000d\\u000d
p6
I327
sVwidth\\u000d\\u000d\\u000d
p7
I83
sa(dp8
g6
I342
sg7
I85
sa(dp9
g6
I828
sg7
I91
sa(dp10
g6
I828
sg7
I84
sasVvhints\\u000d\\u000d\\u000d
p11
(lp12
(dp13
g6
I431
sg7
I89
sa(dp14
g6
I432
sg7
I90
sa(dp15
g6
I446
sg7
I84
sass."
EndChar

StartChar: uni0398
Encoding: 920 920 122
GlifName: T_heta
Width: 640
VWidth: 0
Flags: W
HStem: 3 67<232.452 409.025> 320 58<247.917 392.095> 657 64<294.357 419.517>
VStem: 38 63<238.232 477.184> 537 66<225.084 478.67>
AnchorPoint: "top" 328 747 basechar 0
AnchorPoint: "bottom" 342 25 basechar 0
LayerCount: 2
Fore
SplineSet
267 705 m 256
 292 715 318 721 345 721 c 256
 384 721 417 712 443 696 c 256
 472 679 511 649 526 623 c 256
 573 542 603 436 603 342 c 256
 603 286 598 236 576 194 c 256
 540 124 481 36 402 10 c 256
 388 5 367 3 345 3 c 256
 259 3 223 22 153 73 c 256
 109 106 94 141 72 183 c 256
 46 233 38 307 38 377 c 256
 38 451 57 514 86 565 c 256
 110 607 167 655 212 676 c 256
 221 681 232 684 242 684 c 257
 249 691 257 700 267 705 c 256
127 491 m 257
 113 451 101 406 101 354 c 256
 101 308 117 249 132 213 c 256
 150 169 174 138 210 108 c 256
 234 87 267 72 315 70 c 256
 337 70 361 71 382 78 c 256
 438 99 468 148 498 194 c 256
 525 236 537 274 537 346 c 256
 537 402 526 449 511 491 c 256
 501 520 492 550 474 577 c 257
 452 612 412 657 353 657 c 256
 319 657 298 638 278 623 c 257
 256 605 233 588 218 565 c 257
 203 539 193 490 159 482 c 256
 157 481 153 481 150 481 c 256
 141 481 133 485 127 491 c 257
314 378 m 256
 367 378 412 414 431 414 c 256
 444 414 454 410 454 398 c 256
 454 372 415 320 315 320 c 256
 280 320 237 325 227 366 c 256
 227 368 226 369 226 371 c 256
 226 385 237 398 255 398 c 256
 272 398 276 378 314 378 c 256
EndSplineSet
PickledDataWithLists: "(dp0
Vcom.fontlab.hintData\\u000d\\u000d\\u000d
p1
(dp2
Vhhints\\u000d\\u000d\\u000d
p3
(lp4
(dp5
Vposition\\u000d\\u000d\\u000d
p6
I4
sVwidth\\u000d\\u000d\\u000d
p7
I84
sa(dp8
g6
I400
sg7
I72
sa(dp9
g6
I420
sg7
I98
sa(dp10
g6
I821
sg7
I80
sasVvhints\\u000d\\u000d\\u000d
p11
(lp12
(dp13
g6
I48
sg7
I78
sa(dp14
g6
I671
sg7
I83
sass."
EndChar

StartChar: Thorn
Encoding: 222 222 123
GlifName: T_horn
Width: 484
VWidth: 0
Flags: W
HStem: 0 21G<72.5 106.5> 195 66<119 288.192> 495 67<119.465 330.706> 718 20G<80 90>
VStem: 50 68<53.6836 198 263.02 488.153 552 685.255> 370 62<332.047 457.112>
AnchorPoint: "bottom" 88 31 basechar 0
AnchorPoint: "top" 243 759 basechar 0
LayerCount: 2
Fore
SplineSet
370 385 m 256
 370 412 369 495 243 495 c 256
 196 495 147 491 118 484 c 257
 116 469 116 438 116 400 c 256
 116 353 117 281 119 267 c 257
 134 262 160 261 207 261 c 256
 227 261 261 270 272 274 c 256
 298 283 343 318 353 335 c 256
 361 349 370 375 370 385 c 256
131 686 m 256
 131 670 119 661 119 603 c 258
 119 552 l 257
 130 554 197 562 239 562 c 256
 299 562 368 544 403 491 c 257
 424 464 432 450 432 382 c 256
 432 272 297 195 199 195 c 256
 169 195 148 196 118 198 c 257
 118 198 118 156 118 130 c 256
 118 96 118 0 95 0 c 256
 50 0 50 146 50 288 c 256
 50 441 54 527 54 529 c 256
 54 549 53 550 53 635 c 256
 53 692 55 722 60 726 c 257
 65 734 73 738 87 738 c 256
 93 738 100 736 106 731 c 256
 111 728 131 698 131 686 c 256
EndSplineSet
PickledDataWithLists: "(dp0
Vcom.fontlab.hintData\\u000d\\u000d\\u000d
p1
(dp2
Vhhints\\u000d\\u000d\\u000d
p3
(lp4
(dp5
Vposition\\u000d\\u000d\\u000d
p6
I0
sVwidth\\u000d\\u000d\\u000d
p7
I21
sa(dp8
g6
I244
sg7
I82
sa(dp9
g6
I619
sg7
I83
sa(dp10
g6
I902
sg7
I20
sasVvhints\\u000d\\u000d\\u000d
p11
(lp12
(dp13
g6
I66
sg7
I83
sa(dp14
g6
I462
sg7
I78
sass."
EndChar

StartChar: U
Encoding: 85 85 124
GlifName: U_
Width: 536
VWidth: 0
Flags: W
HStem: -6 65<227.251 326.255> 709 20G<81.5 99 428.5 439>
VStem: 48 66<266.338 713.566> 429 62<199.356 654.571>
AnchorPoint: "bottom" 270 33 basechar 0
AnchorPoint: "top" 269 758 basechar 0
LayerCount: 2
Fore
SplineSet
89 729 m 256
 109 729 116 718 116 656 c 256
 116 595 114 520 114 461 c 256
 114 380 123 256 151 182 c 256
 161 157 172 136 194 113 c 256
 226 79 251 59 272 59 c 256
 310 59 349 92 386 151 c 256
 420 206 429 242 429 427 c 256
 429 614 416 650 394 674 c 257
 392 678 387 681 387 687 c 256
 387 696 396 705 405 715 c 256
 412 724 423 729 434 729 c 256
 444 729 473 700 482 638 c 257
 490 559 491 529 491 430 c 256
 491 416 491 405 491 393 c 256
 491 217 470 172 438 114 c 256
 399 44 330 -6 267 -6 c 256
 219 -6 192 22 158 54 c 256
 129 82 108 115 90 160 c 256
 56 238 48 409 48 499 c 256
 48 540 50 594 50 634 c 256
 50 679 53 705 57 714 c 257
 63 723 74 729 89 729 c 256
EndSplineSet
PickledDataWithLists: "(dp0
Vcom.fontlab.hintData\\u000d\\u000d\\u000d
p1
(dp2
Vhhints\\u000d\\u000d\\u000d
p3
(lp4
(dp5
Vposition\\u000d\\u000d\\u000d
p6
I-7
sVwidth\\u000d\\u000d\\u000d
p7
I81
sa(dp8
g6
I891
sg7
I20
sasVvhints\\u000d\\u000d\\u000d
p9
(lp10
(dp11
g6
I60
sg7
I83
sa(dp12
g6
I536
sg7
I78
sass."
EndChar

StartChar: uni01AF
Encoding: 431 431 130
GlifName: U_horn
Width: 651
VWidth: 0
Flags: W
HStem: 8 66<206.694 309.149> 704 20G<441 457>
VStem: 45 78<418.388 687.565> 59 61<250.716 661.717> 401 80<389.062 411 474.003 713.734> 410 76<634.476 719.569> 422 59<260.032 411 474.003 633.58> 543 66<552.88 791.089>
AnchorPoint: "bottom" 264 33 basechar 0
AnchorPoint: "top" 272 758 basechar 0
LayerCount: 2
Fore
SplineSet
511 831 m 256xc9
 511 853 542 871 547 871 c 256
 561 871 580 860 588 846 c 256
 597 829 609 761 609 730 c 256
 609 720 608 707 606 661 c 256
 601 538 540 428 510 414 c 256
 505 412 494 411 486 411 c 257
 486 381 472 337 472 316 c 256
 472 263 450 243 450 221 c 256
 450 213 447 200 445 194 c 256
 442 188 437 175 435 167 c 256
 431 153 409 119 395 103 c 256
 392 100 382 89 374 79 c 256
 356 57 317 26 295 16 c 256
 284 10 266 8 250 8 c 256
 236 8 225 10 217 13 c 256
 211 16 203 22 201 26 c 257
 198 29 191 35 186 37 c 256
 139 63 125 111 118 115 c 256
 112 121 106 144 96 162 c 256
 94 168 89 182 87 195 c 256
 85 208 82 220 80 222 c 256
 76 227 59 388 59 402 c 256xd5
 59 407 58 456 58 510 c 256
 58 588 57 614 52 630 c 256
 47 648 45 656 45 662 c 256
 45 668 47 671 53 678 c 256
 61 689 64 691 78 691 c 256
 110 691 123 679 123 645 c 256xe1
 123 632 122 628 122 615 c 256
 122 593 126 573 126 538 c 256
 126 503 120 445 120 411 c 256
 120 367 126 300 148 227 c 256
 163 173 160 160 186 122 c 256
 208 90 226 74 250 74 c 256
 266 74 285 81 308 95 c 256
 338 113 333 120 373 178 c 256
 394 208 417 324 419 400 c 256
 419 438 422 504 422 505 c 256
 422 519 423 533 422 546 c 256xd3
 420 588 424 591 414 605 c 256
 404 619 401 625 401 634 c 256xc9
 401 644 410 664 410 686 c 256
 410 711 432 724 450 724 c 256
 464 724 486 714 486 682 c 256xc5
 486 666 481 615 481 533 c 256
 481 478 483 474 490 474 c 256
 500 474 542 594 542 658 c 256
 542 672 543 688 543 704 c 256
 543 742 537 787 527 787 c 256
 521 787 511 807 511 831 c 256xc9
EndSplineSet
PickledDataWithLists: "(dp0
Vcom.fontlab.hintData\\u000d\\u000d\\u000d
p1
(dp2
Vhhints\\u000d\\u000d\\u000d
p3
(lp4
(dp5
Vposition\\u000d\\u000d\\u000d
p6
I10
sVwidth\\u000d\\u000d\\u000d
p7
I82
sa(dp8
g6
I885
sg7
I20
sasVvhints\\u000d\\u000d\\u000d
p9
(lp10
(dp11
g6
I56
sg7
I96
sa(dp12
g6
I74
sg7
I76
sa(dp13
g6
I512
sg7
I95
sa(dp14
g6
I528
sg7
I72
sa(dp15
g6
I679
sg7
I82
sass."
EndChar

StartChar: Uogonek
Encoding: 370 370 133
GlifName: U_ogonek
Width: 536
VWidth: 0
Flags: W
HStem: -262 68<400.082 549.697> -19 75<183.397 308.888>
VStem: 45 62<173.273 593.941> 298 64<-155.634 -10.9639> 458 72<498.695 774.217> 470 60<450.154 735.964> 482 62<237.867 675.948>
AnchorPoint: "bottom" 306 -246 basechar 0
AnchorPoint: "top" 285 751 basechar 0
LayerCount: 2
Fore
SplineSet
460 -262 m 256xf4
 369 -262 298 -199 298 -94 c 256
 298 -64 302 -33 310 -10 c 257
 287 -15 267 -19 248 -19 c 256
 235 -19 223 -18 210 -14 c 257
 154 -2 123 32 98 78 c 256
 60 148 53 223 47 309 c 256
 45 332 45 356 45 380 c 256
 45 447 51 516 58 571 c 256
 63 609 83 686 110 686 c 256
 132 686 144 673 144 651 c 256
 144 638 120 579 112 522 c 257
 108 489 107 455 107 422 c 256
 107 412 107 404 107 395 c 256
 112 182 135 100 201 66 c 256
 216 58 238 58 254 56 c 257
 319 56 373 80 411 133 c 256
 462 203 482 286 482 448 c 256xf2
 482 494 472 537 470 581 c 258xf4
 466 662 l 258
 464 686 458 715 458 737 c 256
 458 761 465 779 490 781 c 257
 512 781 520 760 526 742 c 256
 529 729 528 689 530 662 c 256xf8
 533 596 544 530 544 464 c 256
 544 454 544 444 544 434 c 256xf2
 544 351 542 269 518 203 c 256
 494 136 472 86 410 32 c 256
 402 25 395 19 386 14 c 257
 373 -20 362 -50 362 -82 c 256
 362 -108 369 -194 470 -194 c 256
 511 -194 541 -177 571 -177 c 256
 585 -177 597 -180 597 -194 c 256
 597 -223 523 -262 460 -262 c 256xf4
EndSplineSet
PickledDataWithLists: "(dp0
Vcom.fontlab.hintData\\u000d\\u000d\\u000d
p1
(dp2
Vhhints\\u000d\\u000d\\u000d
p3
(lp4
(dp5
Vposition\\u000d\\u000d\\u000d
p6
I-327
sVwidth\\u000d\\u000d\\u000d
p7
I85
sa(dp8
g6
I-33
sg7
I20
sa(dp9
g6
I-24
sg7
I94
sasVvhints\\u000d\\u000d\\u000d
p10
(lp11
(dp12
g6
I56
sg7
I78
sa(dp13
g6
I372
sg7
I80
sa(dp14
g6
I573
sg7
I89
sa(dp15
g6
I602
sg7
I78
sass."
EndChar

StartChar: uni03A5
Encoding: 933 933 134
GlifName: U_psilon
Width: 573
VWidth: 0
Flags: W
HStem: -2 21G<217.5 246.5> 726 20G<55.5 72 508.5 528>
VStem: 201 72<3.20796 302.08>
LayerCount: 2
Fore
SplineSet
273 110 m 256
 273 18 262 -2 231 -2 c 256
 204 -2 201 36 201 58 c 256
 201 100 202 126 202 155 c 256
 202 168 196 292 196 294 c 257
 148 310 123 372 113 446 c 256
 100 534 87 637 49 690 c 256
 44 696 33 699 30 707 c 257
 27 712 26 717 26 722 c 256
 26 738 46 746 65 746 c 256
 79 746 103 736 111 723 c 256
 154 657 168 541 182 450 c 256
 187 415 195 365 233 365 c 256
 252 365 320 497 330 517 c 256
 364 586 413 664 466 714 c 256
 476 724 498 745 519 745 c 256
 537 745 542 731 542 714 c 256
 542 665 480 632 454 590 c 256
 436 561 404 499 388 470 c 256
 364 428 338 387 314 344 c 256
 309 336 300 323 295 317 c 256
 287 307 276 297 270 291 c 257
 272 252 271 214 271 174 c 257
 272 152 273 131 273 110 c 256
EndSplineSet
PickledDataWithLists: "(dp0
Vcom.fontlab.hintData\\u000d\\u000d\\u000d
p1
(dp2
Vhhints\\u000d\\u000d\\u000d
p3
(lp4
(dp5
Vposition\\u000d\\u000d\\u000d
p6
I-2
sVwidth\\u000d\\u000d\\u000d
p7
I21
sa(dp8
g6
I912
sg7
I20
sasVvhints\\u000d\\u000d\\u000d
p9
(lp10
(dp11
g6
I245
sg7
I92
sa(dp12
g6
I251
sg7
I88
sass."
EndChar

StartChar: uni03D2
Encoding: 978 978 135
GlifName: U_psilon1
Width: 831
VWidth: 0
Flags: W
HStem: -8 21G<394 414> 618 91<644.641 712.013> 662 77<178.195 234.956>
LayerCount: 2
Fore
SplineSet
68 541 m 256xa0
 53 541 26 554 26 580 c 256
 26 607 52 630 66 645 c 256
 80 660 92 675 107 687 c 257
 120 698 173 736 191 738 c 256
 197 739 204 739 210 739 c 256xa0
 278 739 311 672 322 610 c 256
 323 605 380 294 398 128 c 257
 408 187 409 208 423 254 c 256
 463 385 501 511 568 613 c 256
 591 649 631 709 679 709 c 256
 693 709 706 705 718 693 c 256
 730 681 746 669 758 655 c 256
 778 633 795 616 801 582 c 256
 802 577 802 573 802 568 c 256
 802 554 798 533 776 533 c 256
 749 533 737 582 703 603 c 256
 696 608 687 618 679 618 c 258
 678 618 l 257xc0
 640 616 611 543 590 491 c 256
 572 445 548 400 531 351 c 256
 485 205 473 143 454 81 c 256
 448 58 429 -4 399 -8 c 257
 389 -8 379 -4 372 3 c 256
 338 35 338 103 326 158 c 256
 304 261 287 370 269 480 c 256
 261 523 254 573 242 616 c 256
 236 637 237 662 209 662 c 256
 171 662 152 622 134 601 c 257
 128 593 121 584 114 576 c 256
 103 564 89 543 70 541 c 256
 69 541 69 541 68 541 c 256xa0
EndSplineSet
PickledDataWithLists: "(dp0
Vcom.fontlab.hintData\\u000d\\u000d\\u000d
p1
(dp2
Vhhints\\u000d\\u000d\\u000d
p3
(lp4
(dp5
Vposition\\u000d\\u000d\\u000d
p6
I-10
sVwidth\\u000d\\u000d\\u000d
p7
I21
sa(dp8
g6
I773
sg7
I113
sass."
EndChar

StartChar: V
Encoding: 86 86 140
GlifName: V_
Width: 553
VWidth: 0
Flags: W
HStem: -22 21G<304 324> 695 20G<52 80> 718 20G<481.5 497>
VStem: 440 80<615.252 726.108>
AnchorPoint: "bottom" 307 33 basechar 0
AnchorPoint: "top" 282 750 basechar 0
LayerCount: 2
Fore
SplineSet
198 318 m 256
 224 257 218 272 248 211 c 256
 253 203 258 192 266 176 c 257
 277 150 277 150 282 142 c 256
 285 136 301 104 307 96 c 257
 315 110 315 122 323 141 c 256
 328 151 326 166 334 187 c 256
 353 238 366 282 374 317 c 256
 376 325 378 339 386 358 c 257
 399 393 406 429 411 443 c 257
 426 505 434 567 440 630 c 256
 443 668 440 677 445 701 c 256
 450 723 475 738 488 738 c 256
 506 738 520 700 520 685 c 256
 520 663 511 682 498 614 c 257
 488 513 469 424 443 344 c 256
 432 307 429 269 408 211 c 256
 407 209 390 129 355 24 c 256
 347 -1 339 -22 309 -22 c 256
 299 -22 291 -19 283 -13 c 256
 264 1 239 91 213 130 c 257
 207 138 193 161 166 219 c 256
 165 221 105 354 78 486 c 256
 64 561 61 589 34 640 c 257
 26 653 22 666 22 677 c 256
 22 691 45 715 59 715 c 256
 101 715 119 629 125 600 c 257
 151 494 163 437 166 424 c 256
 179 365 176 371 198 318 c 256
EndSplineSet
PickledDataWithLists: "(dp0
Vcom.fontlab.hintData\\u000d\\u000d\\u000d
p1
(dp2
Vhhints\\u000d\\u000d\\u000d
p3
(lp4
(dp5
Vposition\\u000d\\u000d\\u000d
p6
I-28
sVwidth\\u000d\\u000d\\u000d
p7
I21
sa(dp8
g6
I902
sg7
I20
sasVvhints\\u000d\\u000d\\u000d
p9
(lp10
(dp11
g6
I550
sg7
I100
sass."
EndChar

StartChar: W
Encoding: 87 87 141
GlifName: W_
Width: 702
VWidth: 0
Flags: W
HStem: -11 21G<568 575> 711 20G<54 75 642 648.5>
VStem: 579 47<400.594 613.953>
AnchorPoint: "bottom" 368 33 basechar 0
AnchorPoint: "top" 342 743 basechar 0
LayerCount: 2
Fore
SplineSet
606 138 m 256
 606 110 611 102 611 82 c 256
 611 72 608 59 600 46 c 256
 594 36 579 -11 571 -11 c 256
 565 -11 555 -5 539 6 c 256
 505 32 480 66 461 101 c 256
 442 135 434 176 426 194 c 256
 415 220 387 259 379 302 c 256
 371 342 352 379 341 432 c 257
 316 364 320 334 298 262 c 256
 291 236 284 196 270 155 c 256
 265 139 261 119 256 93 c 256
 248 50 240 36 214 10 c 256
 209 5 206 5 200 5 c 256
 192 5 187 7 184 13 c 256
 154 61 142 85 128 147 c 256
 101 280 79 427 78 429 c 256
 67 504 63 571 50 621 c 256
 42 650 27 664 27 690 c 256
 27 711 47 731 61 731 c 256
 89 731 103 697 106 674 c 256
 109 648 125 600 130 550 c 256
 138 467 144 430 170 296 c 256
 181 237 185 202 187 197 c 256
 192 178 197 158 202 150 c 257
 211 170 212 216 222 240 c 256
 228 254 232 265 237 283 c 256
 245 312 248 329 256 358 c 256
 262 375 274 432 286 462 c 257
 294 488 299 508 310 526 c 256
 321 543 334 553 354 553 c 256
 355 553 356 553 357 552 c 256
 381 542 421 384 442 342 c 257
 453 315 465 269 475 240 c 257
 483 219 503 185 509 171 c 257
 520 141 536 114 544 109 c 257
 550 152 544 174 552 254 c 256
 557 297 568 382 574 451 c 256
 580 515 577 550 579 611 c 256
 582 694 579 699 614 717 c 256
 625 723 638 725 646 725 c 256
 651 725 652 725 654 723 c 256
 664 707 670 695 670 690 c 256
 670 685 669 675 661 662 c 257
 641 623 628 464 626 422 c 256
 626 419 606 236 606 138 c 256
EndSplineSet
PickledDataWithLists: "(dp0
Vcom.fontlab.hintData\\u000d\\u000d\\u000d
p1
(dp2
Vhhints\\u000d\\u000d\\u000d
p3
(lp4
(dp5
Vposition\\u000d\\u000d\\u000d
p6
I-14
sVwidth\\u000d\\u000d\\u000d
p7
I21
sa(dp8
g6
I894
sg7
I20
sasVvhints\\u000d\\u000d\\u000d
p9
(lp10
(dp11
g6
I724
sg7
I58
sass."
EndChar

StartChar: X
Encoding: 88 88 146
GlifName: X_
Width: 590
VWidth: 0
Flags: W
HStem: 705 20G<53 87 523.5 539.5>
VStem: 96 70<-31.576 48.9984> 102 85<-52.2369 1.61485>
AnchorPoint: "bottom" 344 33 basechar 0
AnchorPoint: "top" 314 746 basechar 0
LayerCount: 2
Fore
SplineSet
58 725 m 256xa0
 116 725 250 467 318 390 c 257
 320 392 414 571 443 621 c 257
 451 632 467 654 485 683 c 256
 501 709 514 726 533 726 c 256
 546 726 554 714 554 704 c 256
 554 701 554 696 554 690 c 256
 554 664 541 653 530 646 c 256
 527 644 401 403 390 381 c 256
 382 367 369 342 366 336 c 257
 374 328 373 330 402 293 c 256
 404 291 405 291 408 286 c 256
 418 273 462 200 485 174 c 256
 536 118 531 134 552 112 c 256
 560 104 563 92 563 74 c 256
 563 51 554 22 526 22 c 256
 508 22 491 42 464 85 c 256
 454 101 364 235 330 274 c 257
 279 200 218 107 173 24 c 257
 167 14 166 8 166 5 c 256xc0
 166 2 171 -3 179 -8 c 257
 189 -16 187 -18 187 -26 c 256
 187 -37 161 -62 150 -62 c 256
 142 -62 102 -44 102 -38 c 256xa0
 102 -28 96 -6 96 2 c 256xc0
 96 10 97 16 102 24 c 256
 116 50 115 50 133 85 c 256
 168 159 184 185 237 262 c 257
 251 279 269 314 277 333 c 257
 269 344 260 356 250 374 c 257
 213 433 187 455 150 514 c 256
 113 575 88 602 56 637 c 256
 42 653 21 664 21 682 c 256
 21 688 24 693 30 699 c 257
 38 710 48 725 58 725 c 256xa0
EndSplineSet
PickledDataWithLists: "(dp0
Vcom.fontlab.hintData\\u000d\\u000d\\u000d
p1
(dp2
Vhhints\\u000d\\u000d\\u000d
p3
(lp4
(dp5
Vposition\\u000d\\u000d\\u000d
p6
I888
sVwidth\\u000d\\u000d\\u000d
p7
I20
sasVvhints\\u000d\\u000d\\u000d
p8
(lp9
(dp10
g6
I120
sg7
I88
sa(dp11
g6
I128
sg7
I106
sass."
EndChar

StartChar: uni039E
Encoding: 926 926 147
GlifName: X_i
Width: 630
VWidth: 0
Flags: W
HStem: 7 68<90.1545 498.113> 19 60<78.336 301.266> 46 84<524.413 579.624> 422 20G<483 498.5> 654 65<112.132 566.715>
LayerCount: 2
Fore
SplineSet
308 655 m 256x18
 206 655 116 629 81 629 c 256
 62 629 40 639 40 661 c 256
 40 674 49 687 59 693 c 256
 69 699 87 699 98 701 c 256
 173 714 254 723 338 723 c 258
 348 723 l 258
 391 723 425 717 473 717 c 256
 490 717 507 719 524 719 c 256
 554 719 574 714 574 695 c 256
 574 679 557 663 547 658 c 256
 540 655 531 654 522 654 c 256
 507 654 490 656 476 656 c 258
 470 656 l 258
 460 656 448 657 438 657 c 256
 413 657 431 654 371 654 c 256
 349 654 330 655 308 655 c 256x18
441 432 m 256
 453 435 474 442 492 442 c 256
 505 442 523 435 523 420 c 256
 523 401 489 382 473 376 c 256
 447 366 419 362 393 352 c 257
 351 338 258 326 214 326 c 256
 194 326 148 328 134 344 c 256
 128 352 119 361 119 371 c 256
 119 373 120 376 121 378 c 256
 135 415 289 388 404 421 c 256
 417 424 428 429 441 432 c 256
510 101 m 256
 524 107 558 130 580 130 c 256
 595 130 601 115 601 102 c 256
 601 98 600 94 599 91 c 256
 593 67 556 57 537 46 c 256x38
 509 28 474 7 303 7 c 256x98
 266 7 229 8 191 10 c 256
 162 12 130 8 108 19 c 256
 85 30 75 38 75 54 c 256
 75 68 88 79 102 79 c 256x58
 110 79 118 77 127 77 c 256
 150 78 174 78 196 78 c 256
 251 78 305 76 362 75 c 257
 374 75 l 258x98
 428 75 472 85 510 101 c 256
EndSplineSet
PickledDataWithLists: "(dp0
Vcom.fontlab.hintData\\u000d\\u000d\\u000d
p1
(dp2
Vhhints\\u000d\\u000d\\u000d
p3
(lp4
(dp5
Vposition\\u000d\\u000d\\u000d
p6
I9
sVwidth\\u000d\\u000d\\u000d
p7
I85
sa(dp8
g6
I58
sg7
I104
sa(dp9
g6
I408
sg7
I92
sa(dp10
g6
I533
sg7
I20
sa(dp11
g6
I820
sg7
I76
sass."
EndChar

StartChar: Y
Encoding: 89 89 148
GlifName: Y_
Width: 568
VWidth: 0
Flags: W
HStem: 702 20G<54 74>
VStem: 269 67<24.4091 305.794>
AnchorPoint: "bottom" 304 3 basechar 0
AnchorPoint: "top" 291 750 basechar 0
LayerCount: 2
Fore
SplineSet
269 70 m 256
 269 81 280 251 280 253 c 256
 280 275 283 283 286 304 c 257
 280 302 276 302 271 302 c 256
 254 302 242 311 229 325 c 257
 202 357 194 376 170 408 c 256
 146 438 137 466 118 501 c 256
 113 509 107 529 88 566 c 256
 58 625 30 653 30 691 c 256
 30 712 42 722 66 722 c 256
 82 722 86 718 88 712 c 256
 90 707 93 703 101 690 c 257
 107 682 123 655 131 634 c 256
 139 615 164 576 178 547 c 257
 204 499 205 499 237 440 c 256
 247 422 259 408 272 397 c 257
 285 384 297 368 299 360 c 257
 313 406 328 440 347 486 c 256
 368 536 390 602 408 640 c 256
 427 683 432 704 459 731 c 256
 478 750 496 760 512 760 c 257
 530 758 539 752 539 742 c 256
 539 732 533 721 522 710 c 257
 512 699 499 683 488 664 c 256
 453 603 442 544 403 459 c 257
 395 438 387 419 381 397 c 256
 378 384 376 368 371 354 c 256
 357 314 357 314 350 258 c 256
 345 213 336 150 336 94 c 256
 336 64 341 43 349 35 c 256
 357 27 362 19 362 11 c 256
 362 -7 331 -30 314 -30 c 256
 306 -30 301 -29 296 -24 c 256
 291 -19 288 -10 282 3 c 257
 274 22 269 44 269 70 c 256
EndSplineSet
PickledDataWithLists: "(dp0
Vcom.fontlab.hintData\\u000d\\u000d\\u000d
p1
(dp2
Vvhints\\u000d\\u000d\\u000d
p3
(lp4
(dp5
Vposition\\u000d\\u000d\\u000d
p6
I336
sVwidth\\u000d\\u000d\\u000d
p7
I84
sass."
EndChar

StartChar: Z
Encoding: 90 90 153
GlifName: Z_
Width: 628
VWidth: 0
Flags: W
HStem: 0 66<149.133 413.54> 637 67<64.7668 439.377> 706 20G<466.5 493>
AnchorPoint: "bottom" 336 33 basechar 0
AnchorPoint: "top" 309 748 basechar 0
LayerCount: 2
Fore
SplineSet
234 704 m 256
 384 704 376 722 446 725 c 256
 454 725 463 726 470 726 c 256
 516 726 539 719 546 717 c 256
 552 715 556 705 556 699 c 256
 556 687 555 677 549 667 c 256
 535 643 527 631 511 601 c 257
 455 511 403 444 339 356 c 256
 337 354 196 159 148 77 c 257
 161 71 183 66 204 66 c 256
 369 66 419 88 513 88 c 256
 526 88 544 83 558 81 c 256
 598 76 611 67 611 53 c 256
 611 29 576 16 557 14 c 256
 429 6 300 0 166 0 c 257
 125 2 100 3 90 5 c 256
 72 8 49 29 49 47 c 256
 49 89 127 150 188 249 c 257
 218 292 244 333 278 383 c 256
 347 485 435 583 466 661 c 257
 380 656 335 637 210 637 c 256
 166 637 30 637 30 690 c 256
 30 696 42 714 48 717 c 257
 53 718 60 719 74 719 c 256
 96 719 102 713 116 711 c 256
 140 705 160 704 234 704 c 256
EndSplineSet
PickledDataWithLists: "(dp0
Vcom.fontlab.hintData\\u000d\\u000d\\u000d
p1
(dp2
Vhhints\\u000d\\u000d\\u000d
p3
(lp4
(dp5
Vposition\\u000d\\u000d\\u000d
p6
I0
sVwidth\\u000d\\u000d\\u000d
p7
I82
sa(dp8
g6
I796
sg7
I84
sa(dp9
g6
I887
sg7
I20
sass."
EndChar

StartChar: a
Encoding: 97 97 158
GlifName: a
Width: 426
VWidth: 0
Flags: W
HStem: -10 69<120.393 275.326> 184 67<175.879 278.625> 370 72<122.538 291.566>
VStem: 45 75<61.0799 125.767> 304 70<85.0453 157.149> 323 64<212.721 340.663>
AnchorPoint: "bottom" 216 33 basechar 0
AnchorPoint: "top" 218 484 basechar 0
LayerCount: 2
Fore
SplineSet
219 184 m 256xf8
 197 184 167 157 149 136 c 256
 135 118 120 88 120 78 c 256
 120 60 141 59 189 59 c 256
 230 59 272 74 304 99 c 257
 304 112 301 130 293 146 c 257
 285 165 246 184 219 184 c 256xf8
179 438 m 256
 193 440 206 442 219 442 c 256
 245 442 258 440 285 430 c 257
 317 416 324 414 342 398 c 257
 384 356 387 293 387 238 c 256xf4
 387 172 374 93 374 42 c 256xf8
 374 31 371 15 368 10 c 256
 365 5 346 -5 333 -5 c 256
 320 -5 313 8 310 22 c 257
 272 1 213 -10 160 -10 c 256
 130 -10 93 -6 82 0 c 256
 68 8 45 59 45 77 c 256
 45 122 69 153 96 182 c 256
 126 214 160 251 237 251 c 256
 271 251 304 232 322 211 c 257
 322 225 323 232 323 246 c 256xf4
 323 284 322 309 314 323 c 257
 303 350 259 370 219 370 c 256
 161 370 130 359 101 333 c 256
 80 315 82 294 50 294 c 256
 42 294 34 301 34 323 c 256
 34 337 35 347 40 355 c 256
 74 406 110 430 179 438 c 256
EndSplineSet
PickledDataWithLists: "(dp0
Vcom.fontlab.hintData\\u000d\\u000d\\u000d
p1
(dp2
Vhhints\\u000d\\u000d\\u000d
p3
(lp4
(dp5
Vposition\\u000d\\u000d\\u000d
p6
I-12
sVwidth\\u000d\\u000d\\u000d
p7
I86
sa(dp8
g6
I230
sg7
I84
sa(dp9
g6
I462
sg7
I90
sasVvhints\\u000d\\u000d\\u000d
p10
(lp11
(dp12
g6
I56
sg7
I94
sa(dp13
g6
I380
sg7
I88
sa(dp14
g6
I404
sg7
I80
sass."
EndChar

StartChar: acute
Encoding: 180 180 162
GlifName: acute
Width: 299
VWidth: 0
Flags: W
HStem: 523 195
VStem: 29 243
LayerCount: 2
Fore
SplineSet
198 702 m 257
 212 713 227 718 240 718 c 256
 260 718 272 708 272 688 c 256
 272 654 116 543 78 526 c 256
 73 524 68 523 62 523 c 256
 52 523 29 530 29 544 c 256
 29 561 29 567 118 638 c 256
 148 663 177 688 198 702 c 257
EndSplineSet
PickledDataWithLists: "(dp0
Vcom.fontlab.hintData\\u000d\\u000d\\u000d
p1
(dp2
Vhhints\\u000d\\u000d\\u000d
p3
(lp4
(dp5
Vposition\\u000d\\u000d\\u000d
p6
I654
sVwidth\\u000d\\u000d\\u000d
p7
I244
sasVvhints\\u000d\\u000d\\u000d
p8
(lp9
(dp10
g6
I36
sg7
I304
sass."
EndChar

StartChar: acutecomb
Encoding: 769 769 163
GlifName: acutecomb
Width: 0
VWidth: 0
Flags: W
HStem: 717 195
VStem: -344 243
AnchorPoint: "top" -240 704 mark 0
AnchorPoint: "top" -243 902 basechar 0
LayerCount: 2
Fore
SplineSet
-174 896 m 257
 -160 907 -146 912 -133 912 c 256
 -113 912 -101 902 -101 882 c 256
 -101 848 -256 737 -294 720 c 256
 -299 718 -305 717 -311 717 c 256
 -321 717 -344 724 -344 738 c 256
 -344 755 -344 760 -255 831 c 256
 -225 856 -195 882 -174 896 c 257
EndSplineSet
PickledDataWithLists: "(dp0
Vcom.fontlab.hintData\\u000d\\u000d\\u000d
p1
(dp2
Vhhints\\u000d\\u000d\\u000d
p3
(lp4
(dp5
Vposition\\u000d\\u000d\\u000d
p6
I896
sVwidth\\u000d\\u000d\\u000d
p7
I244
sasVvhints\\u000d\\u000d\\u000d
p8
(lp9
(dp10
g6
I-430
sg7
I304
sass."
EndChar

StartChar: ae
Encoding: 230 230 165
GlifName: ae
Width: 664
VWidth: 0
Flags: W
HStem: -10 64<117.692 246.897> -3 74<382.215 538.448> 160 68<353.609 500.575> 161 76<124.205 270> 366 63<405.032 521.517> 374 70<138.212 252.193>
VStem: 36 63<62.4883 136.73> 274 79<238 317.016> 547 72<267.901 343.999>
AnchorPoint: "bottom" 322 22 basechar 0
AnchorPoint: "top" 330 486 basechar 0
LayerCount: 2
Fore
SplineSet
254 82 m 257x9380
 270 112 270 129 270 161 c 257
 221 161 154 158 128 142 c 256
 107 129 99 128 99 98 c 256
 99 77 116 64 128 58 c 256
 130 57 144 54 163 54 c 256
 185 54 243 66 254 82 c 257x9380
520 350 m 256
 506 361 488 366 466 366 c 256
 429 366 421 358 392 334 c 256
 356 304 355 288 353 234 c 257
 369 232 385 228 403 228 c 256x2b80
 421 228 441 230 459 234 c 257
 475 236 497 247 506 253 c 256
 519 263 547 280 547 300 c 256
 547 307 535 337 520 350 c 256
475 71 m 256x5380
 521 71 577 122 598 122 c 256
 613 122 626 109 626 91 c 256
 626 77 624 71 618 66 c 256
 569 24 515 -3 450 -3 c 256x5380
 404 -3 351 20 320 54 c 257
 313 42 292 19 279 11 c 256
 261 -2 238 -10 177 -10 c 256
 134 -10 64 4 50 34 c 256
 36 68 36 76 36 107 c 256
 36 218 174 237 259 237 c 256
 263 237 268 238 274 238 c 257
 274 260 273 276 270 309 c 256
 268 331 249 365 230 371 c 257
 224 372 213 374 196 374 c 256
 171 374 152 368 142 357 c 257
 131 343 119 342 99 342 c 256
 73 342 69 348 69 374 c 256
 69 400 114 444 189 444 c 256x9780
 207 444 226 440 242 438 c 256
 267 435 316 394 322 370 c 257
 361 401 406 429 472 429 c 256
 598 429 619 315 619 296 c 256
 619 274 606 253 592 238 c 256
 534 172 467 160 381 160 c 256x2b80
 372 160 363 160 353 161 c 257
 355 126 357 71 475 71 c 256x5380
EndSplineSet
PickledDataWithLists: "(dp0
Vcom.fontlab.hintData\\u000d\\u000d\\u000d
p1
(dp2
Vhhints\\u000d\\u000d\\u000d
p3
(lp4
(dp5
Vposition\\u000d\\u000d\\u000d
p6
I-13
sVwidth\\u000d\\u000d\\u000d
p7
I81
sa(dp8
g6
I-4
sg7
I93
sa(dp9
g6
I200
sg7
I85
sa(dp10
g6
I201
sg7
I97
sa(dp11
g6
I458
sg7
I78
sa(dp12
g6
I467
sg7
I88
sasVvhints\\u000d\\u000d\\u000d
p13
(lp14
(dp15
g6
I45
sg7
I79
sa(dp16
g6
I684
sg7
I90
sass."
EndChar

StartChar: uni03B1
Encoding: 945 945 168
GlifName: alpha
Width: 497
VWidth: 0
Flags: W
HStem: -1 65<135.919 223.593> 368 67<161.335 213.69>
VStem: 51 61<85.6324 280.409> 366 61<332.293 429.453>
AnchorPoint: "bottom" 253 33 basechar 0
AnchorPoint: "top" 245 458 basechar 0
LayerCount: 2
Fore
SplineSet
286 190 m 257
 265 244 248 301 216 343 c 256
 209 353 201 368 186 368 c 256
 183 368 179 368 175 366 c 256
 156 357 112 238 112 164 c 256
 112 126 126 64 174 64 c 256
 181 64 189 66 198 68 c 256
 220 74 224 87 236 104 c 256
 258 133 272 160 286 190 c 257
192 435 m 256
 240 435 276 389 326 279 c 257
 328 285 332 293 334 299 c 256
 344 329 354 366 366 396 c 256
 366 397 382 434 398 434 c 256
 415 434 427 413 427 398 c 256
 427 354 380 235 362 195 c 257
 367 185 370 176 374 166 c 256
 386 139 403 112 413 90 c 257
 419 71 453 67 455 36 c 257
 455 9 445 2 418 2 c 256
 410 2 404 4 398 6 c 256
 389 11 384 20 378 26 c 256
 354 51 335 80 319 114 c 257
 258 3 219 1 182 -1 c 257
 174 -1 l 258
 73 -1 51 80 51 166 c 256
 51 200 56 233 62 259 c 256
 77 327 104 435 192 435 c 256
EndSplineSet
PickledDataWithLists: "(dp0
Vcom.fontlab.hintData\\u000d\\u000d\\u000d
p1
(dp2
Vhhints\\u000d\\u000d\\u000d
p3
(lp4
(dp5
Vposition\\u000d\\u000d\\u000d
p6
I-1
sVwidth\\u000d\\u000d\\u000d
p7
I81
sa(dp8
g6
I460
sg7
I84
sasVvhints\\u000d\\u000d\\u000d
p9
(lp10
(dp11
g6
I64
sg7
I76
sa(dp12
g6
I457
sg7
I77
sass."
EndChar

StartChar: ampersand
Encoding: 38 38 171
GlifName: ampersand
Width: 502
VWidth: 0
Flags: W
HStem: 29 73<145.482 226.723> 658 68<177.142 245.486>
VStem: 34 64<151.25 244.576> 99 66<417.434 652.495> 275 66<491.746 625.883> 381 85<353.932 413.689>
LayerCount: 2
Fore
SplineSet
166 285 m 257
 128 258 98 228 98 198 c 256
 98 166 156 102 187 102 c 256
 209 102 226 120 240 139 c 256
 253 155 261 163 266 173 c 257
 242 194 196 247 166 285 c 257
200 658 m 256
 170 658 165 590 165 568 c 256
 165 566 166 469 189 411 c 257
 235 457 275 512 275 558 c 256
 275 584 263 610 253 626 c 256
 239 650 226 658 200 658 c 256
99 582 m 256
 99 652 115 726 200 726 c 256
 270 726 293 697 322 638 c 256
 332 619 341 584 341 555 c 256
 341 509 325 477 307 448 c 256
 281 405 233 352 219 333 c 257
 264 274 264 274 274 266 c 256
 284 258 294 240 307 230 c 257
 344 293 380 404 381 406 c 256
 383 412 396 421 410 421 c 256
 429 421 466 409 466 395 c 256
 466 384 452 360 446 354 c 256
 441 349 427 320 422 310 c 257
 409 273 386 233 360 179 c 257
 374 161 386 146 416 122 c 256
 448 96 466 93 488 85 c 257
 502 79 512 72 512 62 c 256
 512 52 506 11 493 11 c 256
 464 11 445 23 408 45 c 257
 382 58 366 72 347 91 c 256
 339 99 323 114 317 120 c 257
 291 81 238 29 189 29 c 256
 178 29 165 31 154 37 c 256
 125 51 92 88 66 118 c 256
 34 158 34 187 34 213 c 256
 34 259 63 288 133 354 c 257
 106 408 99 520 99 582 c 256
EndSplineSet
PickledDataWithLists: "(dp0
Vcom.fontlab.hintData\\u000d\\u000d\\u000d
p1
(dp2
Vhhints\\u000d\\u000d\\u000d
p3
(lp4
(dp5
Vposition\\u000d\\u000d\\u000d
p6
I36
sVwidth\\u000d\\u000d\\u000d
p7
I92
sa(dp8
g6
I822
sg7
I86
sasVvhints\\u000d\\u000d\\u000d
p9
(lp10
(dp11
g6
I42
sg7
I80
sa(dp12
g6
I124
sg7
I82
sa(dp13
g6
I344
sg7
I82
sa(dp14
g6
I476
sg7
I106
sass."
EndChar

StartChar: uni0387
Encoding: 903 903 172
GlifName: anoteleia
Width: 168
VWidth: 0
Flags: W
HStem: 160 94<55.024 125.826>
VStem: 54 84<194.504 248.667>
LayerCount: 2
Fore
SplineSet
138 216 m 256
 138 192 115 160 98 160 c 256
 84 160 42 177 42 194 c 256
 42 205 54 200 54 224 c 256
 54 245 66 254 90 254 c 256
 114 254 138 243 138 216 c 256
EndSplineSet
PickledDataWithLists: "(dp0
Vcom.fontlab.hintData\\u000d\\u000d\\u000d
p1
(dp2
Vhhints\\u000d\\u000d\\u000d
p3
(lp4
(dp5
Vposition\\u000d\\u000d\\u000d
p6
I200
sVwidth\\u000d\\u000d\\u000d
p7
I118
sasVvhints\\u000d\\u000d\\u000d
p8
(lp9
(dp10
g6
I68
sg7
I104
sass."
EndChar

StartChar: aogonek
Encoding: 261 261 173
GlifName: aogonek
Width: 422
VWidth: 0
Flags: W
HStem: -251 65<355.778 441.953> -58 63<118.069 224.283> -18 21G<366 371.5> 168 67<162.238 302.528> 369 69<171.144 275.816>
VStem: 36 66<21.2771 118.536> 266 62<-158.467 -12.8225>
AnchorPoint: "bottom" 216 -175 basechar 0
AnchorPoint: "top" 216 468 basechar 0
LayerCount: 2
Fore
SplineSet
102 74 m 256xde
 102 46 121 5 158 5 c 256
 179 5 202 17 218 24 c 256
 237 32 254 43 272 53 c 256
 290 63 304 83 321 87 c 257
 320 95 316 132 314 148 c 256
 313 148 313 149 312 149 c 256
 290 160 269 168 243 168 c 256
 183 168 102 124 102 74 c 256xde
396 16 m 256
 396 -16 374 -18 369 -18 c 256xbe
 363 -18 357 -15 350 -12 c 257
 347 -19 l 257
 341 -45 328 -69 328 -99 c 256
 328 -146 362 -186 411 -186 c 257
 420 -184 429 -178 439 -178 c 258
 442 -178 l 257
 456 -180 464 -195 464 -210 c 256
 464 -239 436 -251 406 -251 c 256
 352 -251 295 -224 277 -170 c 256
 272 -155 266 -132 266 -115 c 256
 266 -74 271 -48 286 -8 c 257
 248 -41 226 -58 176 -58 c 256
 113 -58 79 -35 50 22 c 256
 43 37 36 54 36 73 c 256
 36 80 36 87 38 94 c 256
 48 139 80 164 110 189 c 256
 140 213 174 228 222 234 c 256
 231 236 241 235 250 235 c 256
 269 235 288 232 303 224 c 257
 299 253 294 283 290 308 c 256
 284 342 271 369 230 369 c 256
 211 369 193 366 177 358 c 256
 151 345 145 300 116 300 c 256
 105 300 84 310 84 332 c 256
 84 351 100 369 110 382 c 256
 126 402 146 424 175 430 c 257
 195 436 213 438 231 438 c 256
 277 438 312 420 330 385 c 257
 356 339 368 263 374 198 c 257
 381 142 379 116 389 66 c 257
 391 52 396 33 396 16 c 256
EndSplineSet
PickledDataWithLists: "(dp0
Vcom.fontlab.hintData\\u000d\\u000d\\u000d
p1
(dp2
Vhhints\\u000d\\u000d\\u000d
p3
(lp4
(dp5
Vposition\\u000d\\u000d\\u000d
p6
I-314
sVwidth\\u000d\\u000d\\u000d
p7
I82
sa(dp8
g6
I-73
sg7
I79
sa(dp9
g6
I-35
sg7
I20
sa(dp10
g6
I-22
sg7
I21
sa(dp11
g6
I210
sg7
I84
sa(dp12
g6
I461
sg7
I87
sasVvhints\\u000d\\u000d\\u000d
p13
(lp14
(dp15
g6
I45
sg7
I83
sa(dp16
g6
I332
sg7
I78
sass."
EndChar

StartChar: aring
Encoding: 229 229 174
GlifName: aring
Width: 426
VWidth: 0
Flags: W
HStem: -27 72<120.178 241.779> 138 64<127.705 265.143> 382 90<157.259 231.425> 598 60<170.745 246.491>
VStem: 44 74<45.7532 124.772> 87 63<475.844 577.554> 267 67<505.328 577.939> 289 65<177.558 340.214>
AnchorPoint: "bottom" 203 17 basechar 0
AnchorPoint: "top" 211 692 basechar 0
LayerCount: 2
Fore
SplineSet
118 85 m 256xf8
 118 73 120 45 146 45 c 256
 195 45 253 67 298 85 c 257
 295 94 293 96 291 98 c 256
 278 112 233 138 199 138 c 256
 188 138 176 137 165 132 c 257
 159 131 149 129 143 126 c 257
 133 123 118 113 118 85 c 256xf8
156 501 m 257
 158 479 171 472 191 472 c 256
 196 472 200 472 204 475 c 256
 224 491 226 487 246 506 c 256
 259 517 267 531 267 542 c 256
 267 571 222 598 197 598 c 256
 192 598 181 594 175 583 c 257
 161 561 150 547 150 528 c 256xf6
 150 518 154 506 156 501 c 257
312 30 m 257
 285 -1 171 -27 136 -27 c 256
 123 -27 109 -23 91 -16 c 257
 78 -9 68 -4 62 2 c 256
 56 8 54 21 50 34 c 256
 46 44 44 57 44 70 c 256
 44 72 44 146 104 184 c 256
 123 196 140 202 154 202 c 256
 163 202 174 202 184 202 c 256
 189 202 194 203 197 202 c 256
 233 197 255 193 262 190 c 256
 269 188 283 182 291 177 c 257
 289 189 289 195 289 218 c 256
 289 222 286 227 286 234 c 256
 284 272 280 291 278 310 c 256
 276 326 264 348 253 366 c 257
 241 381 234 382 217 382 c 257
 178 376 143 358 116 328 c 257
 94 306 80 297 70 297 c 256
 57 297 51 309 51 335 c 256
 51 345 57 357 70 373 c 256
 83 389 96 395 104 402 c 256
 111 408 125 416 136 425 c 257
 130 427 122 436 118 441 c 256xf9
 104 455 87 477 87 530 c 256
 87 564 90 587 111 614 c 257
 130 636 161 658 183 658 c 256
 212 658 279 635 298 616 c 256
 315 599 334 564 334 540 c 256xf6
 334 527 329 516 319 506 c 256
 309 496 300 483 293 474 c 256
 286 465 274 455 258 445 c 257
 269 439 280 434 291 420 c 256
 313 396 309 400 329 374 c 257
 338 361 352 305 354 225 c 256xf1
 356 146 361 101 363 92 c 256
 366 82 370 67 370 60 c 256
 370 49 370 28 365 22 c 256
 363 19 352 11 329 11 c 256
 319 11 313 27 312 30 c 257
EndSplineSet
PickledDataWithLists: "(dp0
Vcom.fontlab.hintData\\u000d\\u000d\\u000d
p1
(dp2
Vhhints\\u000d\\u000d\\u000d
p3
(lp4
(dp5
Vposition\\u000d\\u000d\\u000d
p6
I-34
sVwidth\\u000d\\u000d\\u000d
p7
I90
sa(dp8
g6
I173
sg7
I80
sa(dp9
g6
I477
sg7
I113
sa(dp10
g6
I747
sg7
I75
sasVvhints\\u000d\\u000d\\u000d
p11
(lp12
(dp13
g6
I55
sg7
I92
sa(dp14
g6
I109
sg7
I79
sa(dp15
g6
I334
sg7
I84
sa(dp16
g6
I361
sg7
I81
sass."
EndChar

StartChar: asciicircum
Encoding: 94 94 176
GlifName: asciicircum
Width: 376
VWidth: 0
Flags: W
HStem: 722 20G<215 230>
VStem: 14 79<384.039 473.983> 179 67<714 735.378>
LayerCount: 2
Fore
SplineSet
179 709 m 256
 179 727 208 742 222 742 c 256
 238 742 240 728 246 714 c 258
 246 714 278 636 288 597 c 256
 292 582 315 511 323 499 c 257
 333 481 342 469 350 459 c 257
 363 440 370 432 370 413 c 256
 370 397 363 387 342 387 c 256
 331 387 323 387 318 390 c 256
 313 393 309 401 301 411 c 257
 288 432 279 442 277 445 c 256
 269 464 262 480 248 518 c 257
 227 569 224 584 206 622 c 257
 201 617 198 610 190 600 c 257
 128 511 115 491 99 416 c 256
 97 408 96 395 93 390 c 256
 90 385 69 381 56 381 c 256
 29 381 14 392 14 419 c 256
 14 438 38 483 54 509 c 256
 81 552 72 551 104 597 c 256
 136 645 124 628 158 674 c 257
 171 693 179 704 179 709 c 256
EndSplineSet
PickledDataWithLists: "(dp0
Vcom.fontlab.hintData\\u000d\\u000d\\u000d
p1
(dp2
Vhhints\\u000d\\u000d\\u000d
p3
(lp4
(dp5
Vposition\\u000d\\u000d\\u000d
p6
I908
sVwidth\\u000d\\u000d\\u000d
p7
I20
sasVvhints\\u000d\\u000d\\u000d
p8
(lp9
(dp10
g6
I18
sg7
I106
sa(dp11
g6
I224
sg7
I84
sass."
EndChar

StartChar: asciitilde
Encoding: 126 126 177
GlifName: asciitilde
Width: 392
VWidth: 0
Flags: W
HStem: 131 69<252.195 303.803> 253 75<120.79 169.115>
LayerCount: 2
Fore
SplineSet
54 181 m 256
 43 181 26 187 26 222 c 256
 26 247 111 328 141 328 c 256
 154 328 170 323 184 309 c 256
 210 283 256 200 283 200 c 256
 301 200 312 256 342 256 c 256
 352 256 368 246 368 221 c 256
 368 210 354 188 333 162 c 256
 314 138 298 131 274 131 c 256
 225 131 163 253 149 253 c 256
 127 253 90 181 54 181 c 256
EndSplineSet
PickledDataWithLists: "(dp0
Vcom.fontlab.hintData\\u000d\\u000d\\u000d
p1
(dp2
Vhhints\\u000d\\u000d\\u000d
p3
(lp4
(dp5
Vposition\\u000d\\u000d\\u000d
p6
I164
sVwidth\\u000d\\u000d\\u000d
p7
I86
sa(dp8
g6
I316
sg7
I94
sass."
EndChar

StartChar: asterisk
Encoding: 42 42 178
GlifName: asterisk
Width: 368
VWidth: 0
Flags: W
HStem: 430 21G<54.5 77.5> 512 70<253.727 346.599> 598 80<27.489 102.207> 729 20G<201.5 227>
VStem: 35 77<439.833 511.461> 171 72<677 743.465> 178 73<380.346 528> 197 77<354.573 490.464>
LayerCount: 2
Fore
SplineSet
342 512 m 256xfc
 316 512 310 521 251 528 c 257xfa
 251 506 252 487 254 466 c 256
 260 372 274 396 274 370 c 256
 274 359 259 352 238 352 c 256
 216 352 205 357 197 384 c 256xf9
 183 430 178 456 178 496 c 258
 178 539 l 257xfa
 176 541 169 544 166 546 c 257
 152 532 120 500 112 478 c 257
 99 448 91 430 64 430 c 256
 45 430 35 443 35 469 c 256
 35 511 72 560 104 586 c 257
 96 589 77 595 66 598 c 256
 32 608 16 627 16 645 c 256
 16 663 37 678 56 678 c 256
 105 678 141 647 171 642 c 257
 171 647 171 656 171 666 c 256
 171 676 171 687 173 696 c 256
 179 739 192 749 211 749 c 256
 243 749 243 699 243 677 c 257
 261 685 288 698 301 698 c 256
 317 698 333 694 346 678 c 257
 354 670 357 662 357 656 c 256
 357 635 312 649 246 611 c 257
 246 606 248 606 248 600 c 257
 274 595 294 585 302 582 c 256
 353 563 362 551 362 525 c 256
 362 515 352 512 342 512 c 256xfc
EndSplineSet
PickledDataWithLists: "(dp0
Vcom.fontlab.hintData\\u000d\\u000d\\u000d
p1
(dp2
Vhhints\\u000d\\u000d\\u000d
p3
(lp4
(dp5
Vposition\\u000d\\u000d\\u000d
p6
I538
sVwidth\\u000d\\u000d\\u000d
p7
I21
sa(dp8
g6
I640
sg7
I88
sa(dp9
g6
I800
sg7
I72
sa(dp10
g6
I916
sg7
I20
sasVvhints\\u000d\\u000d\\u000d
p11
(lp12
(dp13
g6
I44
sg7
I96
sa(dp14
g6
I214
sg7
I90
sa(dp15
g6
I222
sg7
I92
sa(dp16
g6
I246
sg7
I96
sass."
EndChar

StartChar: at
Encoding: 64 64 179
GlifName: at
Width: 744
VWidth: 0
Flags: W
HStem: -128 75<212.318 422.256> 88 70<471.373 590.744> 160 74<275.5 366.505> 446 71<374.102 440.967> 642 60<247.302 456.453>
VStem: 27 66<72.9959 395.714> 229 69<213 340.163> 674 57<254.43 455.642>
LayerCount: 2
Fore
SplineSet
467 418 m 256
 432 418 424 446 410 446 c 256
 392 446 357 414 336 371 c 257
 325 345 298 318 298 259 c 256
 298 241 302 234 318 234 c 256
 328 234 369 256 374 261 c 256
 382 269 390 275 406 299 c 256
 424 325 440 334 454 334 c 256
 476 334 485 314 485 290 c 256
 485 269 456 249 456 222 c 256
 456 204 459 194 461 192 c 256
 477 170 498 158 530 158 c 256
 546 158 573 165 581 171 c 256
 634 211 674 267 674 344 c 256
 674 387 667 415 662 429 c 256
 648 474 616 533 581 560 c 256
 538 592 523 595 494 608 c 256
 468 619 382 642 342 642 c 256
 233 642 179 578 141 480 c 256
 103 381 93 297 93 238 c 256
 93 102 98 67 165 0 c 256
 205 -40 260 -53 326 -53 c 256
 380 -53 432 -40 462 -16 c 257
 537 40 574 45 590 45 c 256
 598 45 600 43 600 38 c 256
 600 32 586 11 530 -35 c 256
 477 -77 409 -128 339 -128 c 256
 265 -128 169 -104 123 -53 c 256
 87 -13 27 53 27 234 c 256
 27 351 59 431 77 490 c 256
 88 532 141 626 176 650 c 256
 224 684 261 702 328 702 c 256
 411 702 531 676 597 622 c 257
 687 555 731 444 731 334 c 256
 731 251 712 207 648 149 c 256
 605 111 576 88 520 88 c 256
 493 88 406 109 392 194 c 257
 354 168 346 160 298 160 c 256
 253 160 229 196 229 230 c 256
 229 307 230 334 291 430 c 256
 333 494 368 517 410 517 c 256
 452 517 494 509 494 459 c 256
 494 433 493 418 467 418 c 256
EndSplineSet
PickledDataWithLists: "(dp0
Vcom.fontlab.hintData\\u000d\\u000d\\u000d
p1
(dp2
Vhhints\\u000d\\u000d\\u000d
p3
(lp4
(dp5
Vposition\\u000d\\u000d\\u000d
p6
I-160
sVwidth\\u000d\\u000d\\u000d
p7
I94
sa(dp8
g6
I110
sg7
I88
sa(dp9
g6
I200
sg7
I92
sa(dp10
g6
I558
sg7
I88
sa(dp11
g6
I802
sg7
I76
sasVvhints\\u000d\\u000d\\u000d
p12
(lp13
(dp14
g6
I34
sg7
I82
sa(dp15
g6
I286
sg7
I86
sa(dp16
g6
I842
sg7
I72
sass."
EndChar

StartChar: b
Encoding: 98 98 181
GlifName: b
Width: 480
VWidth: 0
Flags: W
HStem: -18 71<148.136 256.324> 354 76<261.996 369.931> 706 20G<58.5 79>
VStem: 40 69<323.498 689.366> 382 66<170.672 343.633>
AnchorPoint: "bottom" 240 33 basechar 0
AnchorPoint: "top" 248 468 basechar 0
LayerCount: 2
Fore
SplineSet
382 251 m 256
 382 318 378 332 352 350 c 256
 347 353 340 354 330 354 c 256
 293 354 260 335 238 314 c 256
 222 300 214 288 206 280 c 256
 154 226 142 176 142 104 c 256
 142 91 147 68 150 58 c 257
 156 55 170 53 192 53 c 256
 218 53 237 66 261 77 c 256
 327 107 382 177 382 251 c 256
30 698 m 256
 30 711 51 726 66 726 c 256
 92 726 104 696 104 674 c 256
 104 666 109 622 109 547 c 256
 109 532 109 502 109 467 c 256
 109 397 110 306 114 272 c 257
 130 294 131 297 171 339 c 256
 214 384 237 407 282 421 c 256
 301 427 318 430 331 430 c 256
 377 430 424 386 442 346 c 256
 448 332 448 304 448 269 c 256
 448 229 447 203 442 189 c 257
 405 105 374 60 296 14 c 256
 243 -16 226 -18 160 -18 c 256
 115 -18 91 -14 86 -8 c 256
 81 -2 76 43 66 126 c 256
 53 227 40 229 40 554 c 256
 40 631 38 677 32 690 c 256
 30 692 30 695 30 698 c 256
EndSplineSet
PickledDataWithLists: "(dp0
Vcom.fontlab.hintData\\u000d\\u000d\\u000d
p1
(dp2
Vhhints\\u000d\\u000d\\u000d
p3
(lp4
(dp5
Vposition\\u000d\\u000d\\u000d
p6
I-22
sVwidth\\u000d\\u000d\\u000d
p7
I88
sa(dp8
g6
I442
sg7
I96
sa(dp9
g6
I888
sg7
I20
sasVvhints\\u000d\\u000d\\u000d
p10
(lp11
(dp12
g6
I37
sg7
I93
sa(dp13
g6
I50
sg7
I86
sa(dp14
g6
I478
sg7
I82
sass."
EndChar

StartChar: backslash
Encoding: 92 92 182
GlifName: backslash
Width: 492
VWidth: 0
Flags: W
HStem: 702 20G<46.5 62.5>
LayerCount: 2
Fore
SplineSet
328 259 m 256
 354 219 374 176 414 138 c 256
 459 95 483 67 483 54 c 256
 483 41 469 29 461 29 c 256
 439 29 437 30 429 38 c 256
 421 46 419 56 397 74 c 256
 338 122 310 176 288 213 c 256
 275 235 214 317 198 339 c 257
 177 366 149 423 122 482 c 256
 117 492 106 523 80 573 c 256
 54 623 36 656 26 667 c 256
 21 672 19 676 19 682 c 256
 19 697 39 722 54 722 c 256
 71 722 105 673 115 659 c 257
 125 638 140 612 154 578 c 256
 194 480 198 468 248 382 c 257
 275 339 302 299 328 259 c 256
EndSplineSet
EndChar

StartChar: bar
Encoding: 124 124 183
GlifName: bar
Width: 176
VWidth: 0
Flags: W
HStem: -230 21G<115.5 129.5>
VStem: 43 66<142.144 575.163>
LayerCount: 2
Fore
SplineSet
90 696 m 256
 105 696 134 638 134 598 c 256
 134 578 116 526 112 488 c 256
 110 477 109 429 109 344 c 256
 109 222 109 193 134 -46 c 256
 138 -83 140 -117 150 -144 c 257
 158 -170 163 -183 163 -189 c 256
 163 -204 137 -230 122 -230 c 256
 109 -230 92 -222 85 -197 c 256
 62 -114 53 62 50 168 c 256
 46 248 43 292 43 373 c 256
 43 438 48 660 54 682 c 256
 56 691 79 696 90 696 c 256
EndSplineSet
PickledDataWithLists: "(dp0
Vcom.fontlab.hintData\\u000d\\u000d\\u000d
p1
(dp2
Vhhints\\u000d\\u000d\\u000d
p3
(lp4
(dp5
Vposition\\u000d\\u000d\\u000d
p6
I-288
sVwidth\\u000d\\u000d\\u000d
p7
I21
sasVvhints\\u000d\\u000d\\u000d
p8
(lp9
(dp10
g6
I54
sg7
I82
sa(dp11
g6
I62
sg7
I106
sa(dp12
g6
I62
sg7
I74
sass."
EndChar

StartChar: uni03B2
Encoding: 946 946 184
GlifName: beta
Width: 508
VWidth: 0
Flags: W
HStem: -266 21G<126.5 145> -2 76<242.282 352.094> 654 73<180.205 261.755>
VStem: 54 68<21.697 478.231> 100 66<-259.908 -108.947> 305 64<436.297 601.316> 396 70<116.102 241.78>
AnchorPoint: "bottom" 267 38 basechar 0
AnchorPoint: "top" 222 754 basechar 0
LayerCount: 2
Fore
SplineSet
54 239 m 256xf6
 54 514 76 727 217 727 c 256
 319 727 369 609 369 529 c 256
 369 467 359 419 323 368 c 257
 364 350 401 323 425 286 c 256
 447 252 466 211 466 170 c 256
 466 78 376 -2 286 -2 c 258
 274 -2 l 257
 212 2 175 54 175 78 c 256
 175 98 197 103 214 103 c 256
 255 103 248 74 290 74 c 256
 344 74 396 119 396 174 c 256
 396 198 387 223 374 242 c 256
 354 274 336 283 302 300 c 256
 293 305 282 304 273 307 c 257
 251 293 226 272 204 272 c 256
 182 272 175 294 175 313 c 256
 175 324 179 334 185 336 c 256
 214 348 239 368 254 390 c 256
 279 424 305 466 305 518 c 256
 305 564 274 654 222 654 c 256
 213 654 202 651 192 645 c 256
 124 605 122 324 122 265 c 256xf6
 122 -31 166 -132 166 -231 c 256
 166 -248 152 -266 138 -266 c 258
 136 -266 l 258
 117 -266 105 -237 100 -218 c 256xee
 61 -61 54 151 54 239 c 256xf6
EndSplineSet
PickledDataWithLists: "(dp0
Vcom.fontlab.hintData\\u000d\\u000d\\u000d
p1
(dp2
Vhhints\\u000d\\u000d\\u000d
p3
(lp4
(dp5
Vposition\\u000d\\u000d\\u000d
p6
I-332
sVwidth\\u000d\\u000d\\u000d
p7
I21
sa(dp8
g6
I-2
sg7
I94
sa(dp9
g6
I817
sg7
I92
sasVvhints\\u000d\\u000d\\u000d
p10
(lp11
(dp12
g6
I68
sg7
I85
sa(dp13
g6
I125
sg7
I83
sa(dp14
g6
I381
sg7
I80
sa(dp15
g6
I495
sg7
I88
sass."
EndChar

StartChar: braceleft
Encoding: 123 123 185
GlifName: braceleft
Width: 366
VWidth: 0
Flags: W
HStem: -206 67<227.742 308.366> 630 79<234.527 313.256>
VStem: 98 65<422.5 542.067> 152 62<-128.791 107.193> 174 64<-2.87626 177.387>
LayerCount: 2
Fore
SplineSet
163 483 m 256xe8
 163 439 221 374 221 348 c 256
 221 313 187 282 154 266 c 257
 207 233 238 228 238 138 c 256xe8
 238 83 214 36 214 -46 c 256
 214 -72 219 -139 258 -139 c 256
 277 -139 280 -123 302 -123 c 256
 313 -123 322 -125 330 -130 c 257
 340 -138 346 -140 346 -146 c 256
 346 -168 294 -206 260 -206 c 256
 226 -206 199 -188 186 -175 c 256
 164 -153 152 -114 152 -64 c 256xd0
 152 12 174 97 174 141 c 256
 174 159 168 173 118 198 c 256
 89 212 60 222 50 227 c 256
 24 239 16 252 16 266 c 256
 16 293 89 315 110 320 c 256
 130 325 144 336 150 346 c 257
 148 364 127 387 117 408 c 256
 109 423 98 462 98 486 c 256
 98 524 117 568 131 590 c 256
 158 631 214 709 266 709 c 256
 297 709 346 667 346 637 c 256
 346 617 343 608 325 608 c 256
 296 608 280 630 270 630 c 256
 261 630 227 603 221 597 c 256
 200 571 163 514 163 483 c 256xe8
EndSplineSet
PickledDataWithLists: "(dp0
Vcom.fontlab.hintData\\u000d\\u000d\\u000d
p1
(dp2
Vhhints\\u000d\\u000d\\u000d
p3
(lp4
(dp5
Vposition\\u000d\\u000d\\u000d
p6
I-258
sVwidth\\u000d\\u000d\\u000d
p7
I84
sa(dp8
g6
I787
sg7
I99
sasVvhints\\u000d\\u000d\\u000d
p9
(lp10
(dp11
g6
I122
sg7
I82
sa(dp12
g6
I190
sg7
I78
sa(dp13
g6
I217
sg7
I80
sass."
EndChar

StartChar: braceright
Encoding: 125 125 186
GlifName: braceright
Width: 380
VWidth: 0
Flags: W
HStem: -234 72<62.7901 182.747> 633 65<40.4183 158.127>
VStem: 173 62<286.999 431.402> 197 66<-37.1365 119.414> 206 61<393.979 591.117> 226 64<-123.905 13.9719>
LayerCount: 2
Fore
SplineSet
98 633 m 256xc8
 61 633 68 614 50 614 c 256
 29 614 18 630 18 650 c 256
 18 668 20 673 48 686 c 256
 64 693 78 698 88 698 c 256
 145 698 188 671 222 646 c 256
 253 623 267 552 267 518 c 256xc8
 267 424 235 395 235 333 c 256xe0
 235 314 237 301 243 293 c 256
 259 274 280 264 304 264 c 256
 315 264 323 266 333 266 c 256
 360 266 374 259 374 248 c 256
 374 232 356 204 341 192 c 256
 318 174 263 98 263 64 c 256xd0
 263 14 290 -20 290 -86 c 256
 290 -192 164 -234 110 -234 c 256
 109 -234 45 -234 45 -197 c 256
 45 -180 55 -154 75 -154 c 256
 87 -154 86 -162 120 -162 c 256
 156 -162 226 -122 226 -94 c 256xc4
 226 -45 197 17 197 64 c 256xd0
 197 118 241 174 265 205 c 257
 253 209 232 208 214 226 c 256
 187 253 173 276 173 302 c 256xe0
 173 371 206 442 206 518 c 256
 206 577 188 597 146 618 c 256
 133 624 109 633 98 633 c 256xc8
EndSplineSet
PickledDataWithLists: "(dp0
Vcom.fontlab.hintData\\u000d\\u000d\\u000d
p1
(dp2
Vhhints\\u000d\\u000d\\u000d
p3
(lp4
(dp5
Vposition\\u000d\\u000d\\u000d
p6
I-292
sVwidth\\u000d\\u000d\\u000d
p7
I90
sa(dp8
g6
I791
sg7
I81
sasVvhints\\u000d\\u000d\\u000d
p9
(lp10
(dp11
g6
I216
sg7
I78
sa(dp12
g6
I246
sg7
I83
sa(dp13
g6
I257
sg7
I77
sa(dp14
g6
I282
sg7
I80
sass."
EndChar

StartChar: bracketleft
Encoding: 91 91 187
GlifName: bracketleft
Width: 364
VWidth: 0
Flags: W
HStem: -259 81<141.135 300.362> 677 62<130.056 332.428> 726 20G<95 100.5>
VStem: 60 68<369.971 673.903> 72 57<98.6972 526.136> 80 253<-219.928 -7.5 683.733 733.75> 80 63<-183.685 158.434>
LayerCount: 2
Fore
SplineSet
334 706 m 256xd0
 334 682 309 677 227 677 c 258
 168 677 l 258
 145 677 131 677 130 674 c 257
 128 672 128 666 128 660 c 256xd0
 128 648 130 630 130 613 c 256
 130 571 129 512 129 454 c 256xc8
 129 407 130 360 134 322 c 256
 139 272 143 26 143 -67 c 256xc2
 143 -110 142 -154 140 -184 c 257
 164 -182 202 -178 237 -178 c 256
 258 -178 306 -178 317 -181 c 256
 323 -183 326 -184 328 -190 c 257
 331 -198 333 -205 333 -210 c 256
 333 -218 330 -227 322 -230 c 256
 314 -233 299 -239 275 -242 c 256
 233 -247 191 -249 154 -252 c 256
 128 -254 112 -259 104 -259 c 256
 90 -259 62 -233 62 -218 c 256
 62 -216 62 -215 64 -213 c 257
 75 -186 80 -131 80 -53 c 256xc4
 80 38 77 246 72 307 c 256xc8
 69 352 61 552 61 603 c 256
 61 616 60 628 60 642 c 256
 60 688 75 733 83 741 c 256
 87 745 92 746 98 746 c 256xb0
 103 746 109 746 115 744 c 256
 133 739 168 739 224 739 c 256
 313 739 334 736 334 706 c 256xd0
EndSplineSet
PickledDataWithLists: "(dp0
Vcom.fontlab.hintData\\u000d\\u000d\\u000d
p1
(dp2
Vhhints\\u000d\\u000d\\u000d
p3
(lp4
(dp5
Vposition\\u000d\\u000d\\u000d
p6
I-324
sVwidth\\u000d\\u000d\\u000d
p7
I102
sa(dp8
g6
I846
sg7
I78
sa(dp9
g6
I913
sg7
I20
sasVvhints\\u000d\\u000d\\u000d
p10
(lp11
(dp12
g6
I75
sg7
I85
sa(dp13
g6
I90
sg7
I71
sa(dp14
g6
I100
sg7
I79
sass."
EndChar

StartChar: bracketright
Encoding: 93 93 188
GlifName: bracketright
Width: 401
VWidth: 0
Flags: W
HStem: -260 66<46.803 266.412> 646 71<51.6094 215.294> 654 68<216.1 268> 654 61<122.503 268>
VStem: 267 79<-193.963 35.7203> 268 63<-193.813 91.0549 220.597 651.42>
LayerCount: 2
Fore
SplineSet
32 685 m 256xc4
 32 724 35 731 51 731 c 256
 64 731 77 719 101 717 c 256xc4
 119 715 202 715 216 715 c 256x94
 217 715 291 722 293 722 c 256
 329 722 331 700 331 634 c 256xa4
 331 630 325 423 325 269 c 256
 325 210 330 51 330 -34 c 256
 330 -120 332 -147 338 -174 c 256
 341 -185 346 -193 346 -207 c 256
 346 -251 333 -260 256 -260 c 258
 138 -260 l 258
 93 -260 60 -252 46 -239 c 256
 33 -228 26 -223 26 -212 c 256
 26 -196 36 -185 46 -185 c 256
 64 -185 25 -194 195 -194 c 256
 222 -194 262 -195 267 -193 c 257xa8
 267 -180 266 -172 266 -134 c 256
 266 -19 265 -26 260 116 c 257
 260 193 262 361 262 446 c 256
 262 499 266 544 268 602 c 257
 268 654 l 257
 229 654 l 257xa4
 189 652 153 646 121 646 c 256
 39 646 32 684 32 685 c 256xc4
EndSplineSet
PickledDataWithLists: "(dp0
Vcom.fontlab.hintData\\u000d\\u000d\\u000d
p1
(dp2
Vhhints\\u000d\\u000d\\u000d
p3
(lp4
(dp5
Vposition\\u000d\\u000d\\u000d
p6
I-325
sVwidth\\u000d\\u000d\\u000d
p7
I82
sa(dp8
g6
I808
sg7
I88
sa(dp9
g6
I817
sg7
I85
sa(dp10
g6
I817
sg7
I77
sasVvhints\\u000d\\u000d\\u000d
p11
(lp12
(dp13
g6
I325
sg7
I81
sa(dp14
g6
I334
sg7
I98
sa(dp15
g6
I335
sg7
I79
sass."
EndChar

StartChar: bullet
Encoding: 8226 8226 189
GlifName: bullet
Width: 332
VWidth: 0
Flags: W
HStem: 62 295<72.2181 215.993>
VStem: 24 293<149.067 277.063>
LayerCount: 2
Fore
SplineSet
69 336 m 256
 77 347 102 357 131 357 c 256
 189 357 227 344 248 328 c 256
 286 298 317 259 317 208 c 256
 317 162 283 120 216 83 c 257
 192 69 167 62 141 62 c 256
 47 62 24 146 24 226 c 256
 24 263 47 308 69 336 c 256
EndSplineSet
PickledDataWithLists: "(dp0
Vcom.fontlab.hintData\\u000d\\u000d\\u000d
p1
(dp2
Vhhints\\u000d\\u000d\\u000d
p3
(lp4
(dp5
Vposition\\u000d\\u000d\\u000d
p6
I78
sVwidth\\u000d\\u000d\\u000d
p7
I368
sasVvhints\\u000d\\u000d\\u000d
p8
(lp9
(dp10
g6
I30
sg7
I366
sass."
EndChar

StartChar: c
Encoding: 99 99 190
GlifName: c
Width: 403
VWidth: 0
Flags: W
HStem: -13 75<163.245 289.605> 366 71<151.097 248.166>
VStem: 40 72<121.383 319.399> 258 65<302.764 354.1>
AnchorPoint: "bottom" 216 33 basechar 0
AnchorPoint: "top" 203 495 basechar 0
LayerCount: 2
Fore
SplineSet
211 62 m 256
 285 62 333 118 371 118 c 256
 382 118 392 112 392 101 c 256
 392 93 388 81 374 67 c 257
 363 54 347 42 333 34 c 256
 304 16 264 -13 205 -13 c 256
 146 -13 109 19 80 64 c 256
 54 104 40 149 40 187 c 256
 40 192 42 208 42 216 c 256
 50 318 76 376 102 403 c 256
 124 427 167 437 205 437 c 256
 235 437 267 418 280 405 c 256
 309 376 323 367 323 341 c 256
 323 295 262 288 261 288 c 256
 253 288 248 293 248 301 c 256
 248 309 258 316 258 322 c 256
 258 349 221 366 198 366 c 256
 169 366 136 340 126 302 c 257
 116 259 112 221 112 192 c 256
 112 143 157 62 211 62 c 256
EndSplineSet
PickledDataWithLists: "(dp0
Vcom.fontlab.hintData\\u000d\\u000d\\u000d
p1
(dp2
Vhhints\\u000d\\u000d\\u000d
p3
(lp4
(dp5
Vposition\\u000d\\u000d\\u000d
p6
I-16
sVwidth\\u000d\\u000d\\u000d
p7
I94
sa(dp8
g6
I458
sg7
I88
sasVvhints\\u000d\\u000d\\u000d
p9
(lp10
(dp11
g6
I50
sg7
I90
sa(dp12
g6
I322
sg7
I82
sass."
EndChar

StartChar: caron
Encoding: 711 711 192
GlifName: caron
Width: 414
VWidth: 0
Flags: W
HStem: 523 195
VStem: 69 277<666 704>
LayerCount: 2
Fore
SplineSet
205 523 m 256
 176 523 165 539 146 565 c 256
 116 605 69 666 69 683 c 256
 69 705 80 718 102 718 c 256
 118 718 130 701 143 682 c 256
 181 623 200 608 206 598 c 257
 225 621 239 637 265 670 c 256
 291 704 301 720 320 720 c 256
 340 720 346 704 346 686 c 256
 346 657 325 640 314 626 c 256
 288 592 292 598 250 547 c 256
 238 532 234 523 205 523 c 256
EndSplineSet
PickledDataWithLists: "(dp0
Vcom.fontlab.hintData\\u000d\\u000d\\u000d
p1
(dp2
Vhhints\\u000d\\u000d\\u000d
p3
(lp4
(dp5
Vposition\\u000d\\u000d\\u000d
p6
I654
sVwidth\\u000d\\u000d\\u000d
p7
I244
sass."
EndChar

StartChar: ccedilla
Encoding: 231 231 194
GlifName: ccedilla
Width: 441
VWidth: 0
Flags: W
HStem: -233 21G<160.5 181.5> -10 70<139.663 250.058> 381 69<189.119 267.168>
VStem: 34 71<101.692 274.257> 270 72<-132.181 -10.9979>
AnchorPoint: "bottom" 226 -194 basechar 0
AnchorPoint: "top" 226 489 basechar 0
LayerCount: 2
Fore
SplineSet
385 126 m 256
 399 126 422 117 422 107 c 256
 422 87 392 57 374 48 c 257
 351 38 337 26 317 14 c 257
 319 5 322 -2 326 -15 c 256
 340 -57 342 -68 342 -90 c 256
 342 -113 330 -139 326 -146 c 256
 312 -168 282 -205 246 -217 c 256
 227 -223 190 -233 173 -233 c 256
 148 -233 135 -204 135 -183 c 256
 135 -179 141 -169 203 -159 c 256
 234 -153 270 -118 270 -86 c 256
 270 -72 253 -24 246 -5 c 257
 228 -7 209 -10 186 -10 c 256
 166 -10 142 -8 124 4 c 257
 78 30 58 70 42 118 c 256
 38 129 34 152 34 188 c 256
 34 249 49 304 88 350 c 257
 102 365 119 386 135 406 c 256
 159 436 196 450 234 450 c 256
 277 450 299 438 317 414 c 256
 326 402 330 389 330 379 c 256
 330 355 317 329 295 329 c 256
 286 329 281 333 276 343 c 257
 270 359 254 381 236 381 c 256
 208 381 167 344 153 322 c 256
 131 288 105 237 105 195 c 256
 105 162 109 136 119 116 c 256
 138 77 151 60 197 60 c 256
 251 60 326 85 366 119 c 256
 372 124 377 126 385 126 c 256
EndSplineSet
PickledDataWithLists: "(dp0
Vcom.fontlab.hintData\\u000d\\u000d\\u000d
p1
(dp2
Vhhints\\u000d\\u000d\\u000d
p3
(lp4
(dp5
Vposition\\u000d\\u000d\\u000d
p6
I-291
sVwidth\\u000d\\u000d\\u000d
p7
I21
sa(dp8
g6
I-13
sg7
I88
sa(dp9
g6
I476
sg7
I87
sasVvhints\\u000d\\u000d\\u000d
p10
(lp11
(dp12
g6
I43
sg7
I88
sa(dp13
g6
I338
sg7
I90
sass."
EndChar

StartChar: cedilla
Encoding: 184 184 197
GlifName: cedilla
Width: 312
VWidth: 0
Flags: W
HStem: -261 67<30.726 172.869>
VStem: 140 71<-27.242 36.4828> 203 72<-164.936 -77.8547>
LayerCount: 2
Fore
SplineSet
140 0 m 256xc0
 140 28 164 42 182 42 c 256
 196 42 208 34 211 19 c 256xc0
 217 -7 231 -24 242 -42 c 256
 268 -85 275 -87 275 -141 c 256
 275 -197 192 -261 107 -261 c 256
 59 -261 6 -235 6 -214 c 256
 6 -200 21 -181 34 -181 c 256
 48 -181 50 -194 94 -194 c 256
 136 -194 167 -182 186 -160 c 257
 197 -146 203 -134 203 -128 c 256xa0
 203 -114 186 -80 170 -64 c 256
 163 -57 140 -34 140 0 c 256xc0
EndSplineSet
PickledDataWithLists: "(dp0
Vcom.fontlab.hintData\\u000d\\u000d\\u000d
p1
(dp2
Vhhints\\u000d\\u000d\\u000d
p3
(lp4
(dp5
Vposition\\u000d\\u000d\\u000d
p6
I-326
sVwidth\\u000d\\u000d\\u000d
p7
I84
sasVvhints\\u000d\\u000d\\u000d
p8
(lp9
(dp10
g6
I176
sg7
I88
sa(dp11
g6
I254
sg7
I90
sass."
EndChar

StartChar: cent
Encoding: 162 162 198
GlifName: cent
Width: 422
VWidth: 0
Flags: W
HStem: 13 75<183.936 240> 418 64<142.376 242.428>
VStem: 37 72<166.727 376.995> 242 67<-114.469 -107 -106.967 19.5171 94 386>
LayerCount: 2
Fore
SplineSet
240 88 m 257
 242 126 242 192 242 258 c 256
 242 317 243 411 243 411 c 257
 229 417 211 418 192 418 c 256
 165 418 143 406 130 376 c 257
 120 344 109 317 109 269 c 256
 109 226 115 196 128 170 c 256
 150 128 193 96 240 88 c 257
307 94 m 257
 336 106 334 126 376 126 c 256
 400 126 408 117 408 109 c 256
 408 103 395 88 371 62 c 256
 353 43 333 30 309 19 c 257
 309 -32 l 258
 309 -61 310 -107 310 -107 c 258
 310 -129 304 -139 291 -139 c 256
 249 -139 242 -15 242 13 c 257
 224 18 208 24 171 35 c 257
 150 43 131 56 109 78 c 256
 55 132 37 186 37 262 c 256
 37 331 52 389 70 419 c 256
 99 469 149 482 203 482 c 256
 217 482 235 480 245 477 c 257
 245 528 245 538 253 589 c 256
 258 615 261 629 266 634 c 256
 271 639 277 640 290 640 c 256
 322 640 323 634 323 619 c 256
 323 617 315 505 315 461 c 257
 323 458 333 445 341 437 c 257
 355 419 362 416 362 400 c 256
 362 384 359 374 338 374 c 256
 328 374 318 380 312 386 c 257
 312 375 310 358 310 342 c 256
 307 232 307 161 307 134 c 258
 307 94 l 257
EndSplineSet
PickledDataWithLists: "(dp0
Vcom.fontlab.hintData\\u000d\\u000d\\u000d
p1
(dp2
Vhhints\\u000d\\u000d\\u000d
p3
(lp4
(dp5
Vposition\\u000d\\u000d\\u000d
p6
I16
sVwidth\\u000d\\u000d\\u000d
p7
I94
sa(dp8
g6
I522
sg7
I80
sasVvhints\\u000d\\u000d\\u000d
p9
(lp10
(dp11
g6
I46
sg7
I90
sa(dp12
g6
I302
sg7
I84
sass."
EndChar

StartChar: uni03C7
Encoding: 967 967 199
GlifName: chi
Width: 478
VWidth: 0
Flags: W
HStem: -254 21G<373 396.5> 374 80<95.1331 139.982> 418 20G<391 412>
VStem: 34 57<333.407 369.764> 90 74<-250.102 -141.026> 338 86<-240.859 -165.821>
LayerCount: 2
Fore
SplineSet
269 236 m 257xd4
 343 414 379 438 403 438 c 256
 421 438 437 419 437 401 c 256
 437 391 432 379 426 368 c 256
 420 356 409 348 401 338 c 257
 368 289 300 136 299 134 c 257
 315 79 330 22 352 -40 c 256
 364 -75 378 -128 396 -157 c 256
 405 -171 424 -187 424 -210 c 256
 424 -230 407 -254 386 -254 c 258
 382 -254 l 257
 364 -251 344 -226 338 -211 c 256
 300 -125 292 -106 255 30 c 257
 237 -12 177 -161 176 -163 c 256
 172 -176 164 -188 164 -201 c 256
 164 -216 179 -220 181 -230 c 256
 181 -232 182 -233 182 -235 c 256
 182 -256 166 -279 144 -279 c 256
 110 -279 90 -258 90 -226 c 256xac
 90 -179 139 -66 158 -22 c 256
 180 30 202 84 226 138 c 257
 191 256 175 306 141 351 c 256
 135 358 123 374 110 374 c 256
 106 374 102 373 98 370 c 256
 92 365 94 358 91 350 c 256
 85 339 77 331 67 331 c 256
 45 331 34 355 34 373 c 256
 34 414 79 454 118 454 c 256
 127 454 135 452 144 448 c 256
 171 436 217 371 228 345 c 256
 244 308 257 272 269 236 c 257xd4
EndSplineSet
PickledDataWithLists: "(dp0
Vcom.fontlab.hintData\\u000d\\u000d\\u000d
p1
(dp2
Vhhints\\u000d\\u000d\\u000d
p3
(lp4
(dp5
Vposition\\u000d\\u000d\\u000d
p6
I-318
sVwidth\\u000d\\u000d\\u000d
p7
I21
sa(dp8
g6
I468
sg7
I99
sa(dp9
g6
I527
sg7
I20
sasVvhints\\u000d\\u000d\\u000d
p10
(lp11
(dp12
g6
I43
sg7
I71
sa(dp13
g6
I113
sg7
I92
sa(dp14
g6
I423
sg7
I107
sass."
EndChar

StartChar: circumflex
Encoding: 710 710 200
GlifName: circumflex
Width: 404
VWidth: 0
Flags: W
HStem: 653 70<164.302 222.632>
VStem: 29 328<559 592>
LayerCount: 2
Fore
SplineSet
199 653 m 256
 171 653 76 538 59 538 c 256
 57 538 56 538 54 538 c 256
 48 538 29 552 29 566 c 256
 29 570 30 574 30 576 c 256
 30 598 95 658 114 675 c 256
 132 690 165 723 199 723 c 256
 236 723 253 703 280 666 c 256
 298 642 326 612 338 606 c 256
 351 600 357 592 357 581 c 256
 357 559 335 550 316 550 c 256
 258 550 222 653 199 653 c 256
EndSplineSet
PickledDataWithLists: "(dp0
Vcom.fontlab.hintData\\u000d\\u000d\\u000d
p1
(dp2
Vhhints\\u000d\\u000d\\u000d
p3
(lp4
(dp5
Vposition\\u000d\\u000d\\u000d
p6
I816
sVwidth\\u000d\\u000d\\u000d
p7
I88
sass."
EndChar

StartChar: colon
Encoding: 58 58 201
GlifName: colon
Width: 155
VWidth: 0
Flags: W
HStem: -14 91<33.6007 105.332> 341 99<37.2423 120.43>
VStem: 34 102<357.292 439.266> 34 88<1.80981 39.6653>
LayerCount: 2
Fore
SplineSet
66 341 m 256xe0
 51 341 34 348 34 379 c 256
 34 389 34 404 37 418 c 256
 40 432 53 440 58 440 c 256
 66 440 90 443 101 443 c 256
 123 443 136 418 136 398 c 256
 136 362 99 341 66 341 c 256xe0
67 77 m 256
 74 77 122 76 122 26 c 256
 122 16 114 16 104 6 c 257
 91 -10 77 -14 59 -14 c 256
 43 -14 34 -5 34 3 c 256xd0
 34 17 22 33 22 40 c 256
 22 52 36 77 67 77 c 256
EndSplineSet
PickledDataWithLists: "(dp0
Vcom.fontlab.hintData\\u000d\\u000d\\u000d
p1
(dp2
Vhhints\\u000d\\u000d\\u000d
p3
(lp4
(dp5
Vposition\\u000d\\u000d\\u000d
p6
I-18
sVwidth\\u000d\\u000d\\u000d
p7
I114
sa(dp8
g6
I426
sg7
I128
sasVvhints\\u000d\\u000d\\u000d
p9
(lp10
(dp11
g6
I42
sg7
I128
sass."
EndChar

StartChar: comma
Encoding: 44 44 202
GlifName: comma
Width: 145
VWidth: 0
Flags: W
HStem: -224 310<55.4531 74.5021>
VStem: 37 81<-139.977 71.6594> 37 56<-208.402 -22.4891>
LayerCount: 2
Fore
SplineSet
93 86 m 256xa0
 115 86 118 68 118 38 c 256xc0
 118 -13 111 -55 104 -96 c 256
 99 -122 96 -142 93 -155 c 256
 90 -169 71 -224 54 -224 c 256
 43 -224 37 -200 37 -155 c 256
 37 -90 42 -23 50 42 c 256
 55 80 69 86 93 86 c 256xa0
EndSplineSet
PickledDataWithLists: "(dp0
Vcom.fontlab.hintData\\u000d\\u000d\\u000d
p1
(dp2
Vvhints\\u000d\\u000d\\u000d
p3
(lp4
(dp5
Vposition\\u000d\\u000d\\u000d
p6
I46
sVwidth\\u000d\\u000d\\u000d
p7
I102
sa(dp8
g6
I46
sg7
I70
sass."
EndChar

StartChar: copyright
Encoding: 169 169 203
GlifName: copyright
Width: 784
VWidth: 0
Flags: W
HStem: -109 56<264.856 455.556> 99 71<299.768 429.935> 419 64<343.217 484.584> 592 66<238.071 431.608>
VStem: 37 56<146.084 446.665> 200 64<202.807 341.834> 691 64<161.826 373.552>
LayerCount: 2
Fore
SplineSet
272 -35 m 257
 298 -46 327 -53 362 -53 c 256
 442 -53 478 -21 563 43 c 256
 587 61 610 94 640 126 c 256
 664 152 677 170 682 186 c 257
 690 204 691 230 691 264 c 256
 691 323 677 356 669 374 c 256
 667 376 664 386 656 405 c 256
 638 448 557 528 512 542 c 257
 451 560 461 563 389 584 c 256
 367 590 344 592 323 592 c 256
 270 592 222 570 179 525 c 256
 147 491 128 474 123 466 c 256
 104 428 93 374 93 288 c 256
 93 214 107 152 136 94 c 257
 168 19 189 8 272 -35 c 257
256 645 m 257
 290 653 318 658 339 658 c 256
 389 658 481 626 528 608 c 256
 582 586 584 581 610 562 c 256
 642 538 644 527 670 498 c 256
 680 487 688 473 696 462 c 257
 704 446 714 418 722 405 c 256
 727 397 734 377 744 350 c 257
 754 315 755 298 755 272 c 256
 755 203 737 142 678 83 c 256
 636 41 605 12 579 -10 c 256
 536 -48 528 -51 472 -85 c 257
 425 -107 417 -109 363 -109 c 256
 301 -109 296 -107 229 -75 c 256
 157 -40 108 -10 86 38 c 257
 60 100 48 105 42 198 c 256
 39 243 37 283 37 317 c 256
 37 370 54 443 67 480 c 256
 78 510 112 557 136 581 c 256
 173 618 197 629 256 645 c 257
410 419 m 256
 385 419 264 388 264 258 c 256
 264 216 280 205 315 181 c 256
 329 171 348 170 366 170 c 256
 395 170 434 180 456 198 c 256
 466 206 477 213 485 213 c 256
 507 213 530 205 530 194 c 256
 530 186 523 176 510 168 c 257
 489 152 474 142 461 136 c 258
 416 114 l 258
 395 104 368 99 334 99 c 256
 300 99 288 107 256 139 c 256
 211 184 200 197 200 261 c 256
 200 328 216 357 243 389 c 256
 257 407 269 414 272 419 c 256
 277 425 286 435 307 448 c 257
 345 474 368 483 395 483 c 256
 474 483 512 447 512 424 c 256
 512 408 504 400 494 400 c 256
 462 400 452 408 438 416 c 257
 435 419 418 419 410 419 c 256
EndSplineSet
PickledDataWithLists: "(dp0
Vcom.fontlab.hintData\\u000d\\u000d\\u000d
p1
(dp2
Vhhints\\u000d\\u000d\\u000d
p3
(lp4
(dp5
Vposition\\u000d\\u000d\\u000d
p6
I-136
sVwidth\\u000d\\u000d\\u000d
p7
I70
sa(dp8
g6
I124
sg7
I88
sa(dp9
g6
I524
sg7
I80
sa(dp10
g6
I740
sg7
I82
sasVvhints\\u000d\\u000d\\u000d
p11
(lp12
(dp13
g6
I46
sg7
I70
sa(dp14
g6
I250
sg7
I80
sa(dp15
g6
I864
sg7
I80
sass."
EndChar

StartChar: d
Encoding: 100 100 204
GlifName: d
Width: 468
VWidth: 0
Flags: W
HStem: 2 80<113.433 190.444> 346 70<153.833 258.947>
VStem: 34 68<91.9789 279.795> 296 90<378.538 707.277>
AnchorPoint: "bottom" 240 1 basechar 0
AnchorPoint: "top" 253 738 basechar 0
LayerCount: 2
Fore
SplineSet
202 346 m 256
 143 346 102 263 102 178 c 256
 102 116 109 82 154 82 c 256
 197 82 259 198 304 283 c 257
 288 299 248 346 202 346 c 256
34 146 m 256
 34 277 78 416 211 416 c 256
 253 416 284 397 310 368 c 257
 302 482 296 544 296 635 c 256
 296 673 312 718 339 718 c 256
 379 718 382 667 382 627 c 256
 382 609 386 566 386 494 c 256
 386 348 395 280 414 142 c 256
 419 108 424 48 434 22 c 256
 437 16 442 13 442 5 c 256
 442 -25 416 -29 405 -29 c 256
 349 -29 358 74 334 197 c 257
 257 67 224 2 141 2 c 256
 82 2 34 74 34 146 c 256
EndSplineSet
PickledDataWithLists: "(dp0
Vcom.fontlab.hintData\\u000d\\u000d\\u000d
p1
(dp2
Vhhints\\u000d\\u000d\\u000d
p3
(lp4
(dp5
Vposition\\u000d\\u000d\\u000d
p6
I2
sVwidth\\u000d\\u000d\\u000d
p7
I100
sa(dp8
g6
I432
sg7
I88
sasVvhints\\u000d\\u000d\\u000d
p9
(lp10
(dp11
g6
I42
sg7
I86
sa(dp12
g6
I370
sg7
I112
sass."
EndChar

StartChar: uni2020
Encoding: 8224 8224 205
GlifName: dagger
Width: 590
VWidth: 0
Flags: W
HStem: -264 21G<416.5 422> 422 72<91.1406 284.797> 432 89<368.467 511.877> 702 20G<300.5 331.5>
VStem: 272 83<506.554 716.526> 364 85<-252.938 -178.336>
LayerCount: 2
Fore
SplineSet
263 422 m 256xdc
 257 422 169 422 99 405 c 256
 97 405 94 404 91 404 c 256
 83 404 75 406 67 412 c 256
 56 419 51 424 51 442 c 256
 51 458 57 470 67 477 c 256
 83 488 150 491 242 494 c 256xdc
 260 494 285 495 285 495 c 257
 285 495 281 551 279 585 c 257
 276 625 272 630 272 668 c 256
 272 704 287 722 314 722 c 256
 349 722 353 688 355 630 c 256
 357 556 360 512 362 506 c 257
 362 506 451 521 498 521 c 256
 528 521 547 516 547 498 c 256
 547 488 541 476 531 465 c 257
 517 447 423 432 397 432 c 256xbc
 386 432 378 429 368 429 c 257
 375 391 375 283 378 247 c 256
 385 175 393 69 403 -25 c 256
 410 -84 419 -138 426 -174 c 256
 429 -187 436 -202 446 -218 c 256
 448 -221 449 -224 449 -228 c 256
 449 -243 426 -264 418 -264 c 256
 415 -264 407 -261 394 -257 c 257
 376 -250 367 -240 364 -229 c 257
 362 -218 356 -211 354 -205 c 256
 347 -165 333 -103 324 -34 c 256
 305 124 291 418 290 423 c 257
 283 421 277 422 263 422 c 256xdc
EndSplineSet
PickledDataWithLists: "(dp0
Vcom.fontlab.hintData\\u000d\\u000d\\u000d
p1
(dp2
Vhhints\\u000d\\u000d\\u000d
p3
(lp4
(dp5
Vposition\\u000d\\u000d\\u000d
p6
I-330
sVwidth\\u000d\\u000d\\u000d
p7
I21
sa(dp8
g6
I527
sg7
I90
sa(dp9
g6
I540
sg7
I111
sasVvhints\\u000d\\u000d\\u000d
p10
(lp11
(dp12
g6
I349
sg7
I95
sa(dp13
g6
I455
sg7
I106
sass."
EndChar

StartChar: uni2021
Encoding: 8225 8225 206
GlifName: daggerdbl
Width: 596
VWidth: 0
Flags: W
HStem: -240 21G<335 347> 13 76<102.761 274.201> 30 84<387.03 520.553> 33 72<360 445.155> 364 70<54.5793 265.543> 388 90<369.776 511.724>
VStem: 264 72<450.724 714.593> 279 71<105.516 334.266> 300 79<-229.673 19.3774> 300 70<-135.131 19.3774>
LayerCount: 2
Fore
SplineSet
97 53 m 256xc080
 97 75 102 89 161 89 c 256
 175 89 175 89 279 99 c 257
 274 141 271 330 270 364 c 257
 267 364 l 257
 222 360 191 359 152 359 c 256
 85 359 51 364 51 404 c 256
 51 420 74 429 87 431 c 256
 97 433 126 434 172 434 c 256xc9
 200 434 236 437 267 440 c 257
 265 473 266 517 266 523 c 256
 266 548 266 571 264 591 c 257
 264 640 l 258
 264 715 267 718 287 718 c 256
 312 718 328 714 330 694 c 256
 333 665 334 604 336 512 c 256
 336 509 340 465 342 450 c 257
 407 464 433 478 463 478 c 256x86
 488 478 516 474 516 434 c 256x8a
 516 396 507 388 472 388 c 256
 454 388 455 386 424 386 c 256
 413 386 380 380 350 377 c 257
 350 141 l 257
 351 128 352 116 353 105 c 257x95
 355 105 500 114 512 114 c 256
 528 114 538 105 538 87 c 256
 538 67 531 47 521 40 c 256
 512 34 468 30 446 30 c 256xa1
 428 30 408 33 386 33 c 256
 377 33 369 33 360 32 c 257
 370 -107 370 -105 370 -106 c 256x9040
 373 -128 379 -145 379 -163 c 256x9080
 379 -186 379 -196 370 -214 c 257x9040
 361 -230 352 -238 342 -240 c 257
 328 -240 321 -233 310 -208 c 256
 301 -190 300 -179 300 -168 c 258
 300 -136 l 258
 300 -134 286 11 284 25 c 257
 211 15 203 13 174 13 c 256
 124 13 97 26 97 53 c 256xc080
EndSplineSet
PickledDataWithLists: "(dp0
Vcom.fontlab.hintData\\u000d\\u000d\\u000d
p1
(dp2
Vhhints\\u000d\\u000d\\u000d
p3
(lp4
(dp5
Vposition\\u000d\\u000d\\u000d
p6
I-300
sVwidth\\u000d\\u000d\\u000d
p7
I21
sa(dp8
g6
I16
sg7
I95
sa(dp9
g6
I40
sg7
I91
sa(dp10
g6
I41
sg7
I93
sa(dp11
g6
I455
sg7
I88
sa(dp12
g6
I485
sg7
I112
sasVvhints\\u000d\\u000d\\u000d
p13
(lp14
(dp15
g6
I330
sg7
I90
sa(dp16
g6
I337
sg7
I76
sa(dp17
g6
I345
sg7
I93
sa(dp18
g6
I375
sg7
I99
sass."
EndChar

StartChar: dcroat
Encoding: 273 273 208
GlifName: dcroat
Width: 480
VWidth: 0
Flags: W
HStem: -6 72<115.064 167.8> 307 74<170.358 242> 480 62<115.302 241.577> 491 58<324.329 447.339> 491 50<347.217 447.339> 705 20G<291 299>
VStem: 40 69<67.905 233.25> 242 75<379 481> 310 101<22.2358 66.8449>
AnchorPoint: "bottom" 256 33 basechar 0
AnchorPoint: "top" 234 748 basechar 0
LayerCount: 2
Fore
SplineSet
449 521 m 256xce80
 449 511 440 491 414 491 c 258
 390 491 l 257
 366 489 343 488 320 486 c 257
 318 454 317 421 317 389 c 256xd7
 317 376 317 364 318 351 c 257
 336 341 376 312 376 290 c 256
 376 278 364 262 350 262 c 256
 343 262 335 265 328 270 c 257
 353 160 356 141 366 117 c 257
 373 95 383 79 392 61 c 257
 398 50 407 41 410 30 c 256
 411 26 411 21 411 17 c 256
 411 -9 380 -10 375 -10 c 256
 368 -10 361 -8 355 -6 c 256
 338 0 316 54 310 70 c 258xd680
 296 114 l 258
 290 136 283 160 278 182 c 257
 258 116 216 -6 130 -6 c 256
 122 -6 114 -5 106 -2 c 256
 58 12 45 85 40 136 c 257
 40 236 107 381 222 381 c 256
 228 381 236 380 242 379 c 257
 242 397 242 414 242 432 c 258
 242 481 l 257
 233 480 223 480 214 480 c 256
 160 480 144 482 143 482 c 256
 128 482 110 489 110 507 c 257
 112 530 145 542 165 542 c 258
 192 542 l 257
 209 544 225 546 242 546 c 257xe7
 243 553 243 561 244 570 c 256
 248 623 245 671 270 704 c 257
 276 710 285 725 297 725 c 256
 301 725 305 723 310 718 c 257
 327 705 329 682 329 656 c 256
 329 646 329 636 329 626 c 256
 329 580 326 574 324 548 c 257
 331 549 339 549 346 549 c 256xd680
 372 549 396 547 418 541 c 257
 432 538 449 535 449 521 c 256xce80
109 146 m 256
 109 123 108 66 138 66 c 256
 159 66 178 101 186 114 c 256
 196 128 199 147 205 163 c 257
 219 204 234 244 240 291 c 256
 241 296 241 301 242 306 c 257
 235 307 228 307 222 307 c 256
 206 307 191 303 178 293 c 256
 139 260 109 213 109 146 c 256
EndSplineSet
PickledDataWithLists: "(dp0
Vcom.fontlab.hintData\\u000d\\u000d\\u000d
p1
(dp2
Vhhints\\u000d\\u000d\\u000d
p3
(lp4
(dp5
Vposition\\u000d\\u000d\\u000d
p6
I-8
sVwidth\\u000d\\u000d\\u000d
p7
I91
sa(dp8
g6
I384
sg7
I92
sa(dp9
g6
I600
sg7
I78
sa(dp10
g6
I614
sg7
I72
sa(dp11
g6
I614
sg7
I62
sa(dp12
g6
I886
sg7
I20
sasVvhints\\u000d\\u000d\\u000d
p13
(lp14
(dp15
g6
I50
sg7
I86
sa(dp16
g6
I302
sg7
I94
sass."
EndChar

StartChar: degree
Encoding: 176 176 209
GlifName: degree
Width: 268
VWidth: 0
Flags: W
HStem: 501 86<125.817 161.271> 648 75<127.746 173.474>
VStem: 174 66<598.522 647.748>
LayerCount: 2
Fore
SplineSet
154 648 m 256
 152 648 143 640 133 632 c 256
 130 629 125 624 123 619 c 257
 125 611 125 606 125 600 c 256
 125 592 128 587 136 587 c 256
 145 587 174 620 174 629 c 256
 174 642 160 648 154 648 c 256
171 723 m 256
 213 723 240 681 240 642 c 256
 240 623 232 617 219 587 c 257
 210 564 164 501 136 501 c 256
 86 501 58 543 54 589 c 257
 49 591 37 605 37 618 c 256
 37 664 86 703 125 715 c 257
 147 720 161 723 171 723 c 256
EndSplineSet
PickledDataWithLists: "(dp0
Vcom.fontlab.hintData\\u000d\\u000d\\u000d
p1
(dp2
Vhhints\\u000d\\u000d\\u000d
p3
(lp4
(dp5
Vposition\\u000d\\u000d\\u000d
p6
I810
sVwidth\\u000d\\u000d\\u000d
p7
I94
sasVvhints\\u000d\\u000d\\u000d
p8
(lp9
(dp10
g6
I218
sg7
I82
sass."
EndChar

StartChar: uni03B4
Encoding: 948 948 210
GlifName: delta
Width: 430
VWidth: 0
Flags: W
HStem: -10 70<186.283 275.82> 333 69<149.801 224.205> 654 72<150 384.506>
VStem: 49 71<126.36 298.135> 314 68<110.745 313.755>
AnchorPoint: "bottom" 251 23 basechar 0
AnchorPoint: "top" 210 750 basechar 0
LayerCount: 2
Fore
SplineSet
182 333 m 257
 153 333 120 276 120 205 c 256
 120 191 121 178 123 164 c 256
 125 150 136 132 145 122 c 256
 166 96 203 60 240 60 c 256
 270 60 286 96 298 122 c 257
 308 148 312 178 314 205 c 257
 314 218 l 258
 314 275 293 312 275 353 c 256
 257 394 234 419 210 454 c 256
 196 474 177 494 163 514 c 256
 131 560 101 606 69 652 c 257
 59 665 49 689 49 707 c 256
 49 726 62 731 78 731 c 256
 94 731 112 726 123 726 c 256
 182 726 242 729 306 731 c 256
 314 731 322 732 330 732 c 256
 340 732 351 731 361 726 c 256
 375 718 393 699 393 684 c 256
 393 672 381 655 361 655 c 256
 341 655 320 659 300 659 c 256
 247 659 204 656 150 654 c 257
 184 603 281 482 307 444 c 256
 345 383 382 306 382 209 c 256
 382 159 373 119 351 73 c 257
 341 47 316 12 294 -2 c 256
 284 -8 270 -10 256 -10 c 256
 192 -10 147 19 101 62 c 256
 71 90 49 144 49 186 c 256
 49 256 87 402 168 402 c 256
 198 402 235 387 235 352 c 256
 235 342 232 328 211 328 c 256
 201 328 190 331 182 333 c 257
EndSplineSet
PickledDataWithLists: "(dp0
Vcom.fontlab.hintData\\u000d\\u000d\\u000d
p1
(dp2
Vhhints\\u000d\\u000d\\u000d
p3
(lp4
(dp5
Vposition\\u000d\\u000d\\u000d
p6
I-13
sVwidth\\u000d\\u000d\\u000d
p7
I88
sa(dp8
g6
I416
sg7
I87
sa(dp9
g6
I817
sg7
I91
sa(dp10
g6
I824
sg7
I90
sasVvhints\\u000d\\u000d\\u000d
p11
(lp12
(dp13
g6
I61
sg7
I89
sa(dp14
g6
I392
sg7
I86
sass."
EndChar

StartChar: dieresis
Encoding: 168 168 211
GlifName: dieresis
Width: 337
VWidth: 0
Flags: W
HStem: 616 112<264.564 285.472>
VStem: 8 314<653 694>
LayerCount: 2
Fore
SplineSet
8 694 m 256
 8 724 31 728 32 728 c 256
 35 728 47 728 58 720 c 256
 68 714 77 690 98 674 c 256
 109 666 114 652 114 634 c 256
 114 628 112 616 99 616 c 256
 61 616 38 639 16 667 c 256
 10 676 8 685 8 694 c 256
296 618 m 256
 286 618 216 667 216 704 c 256
 216 720 227 726 243 726 c 256
 270 726 276 720 298 691 c 256
 311 675 322 672 322 653 c 256
 322 627 315 618 296 618 c 256
EndSplineSet
PickledDataWithLists: "(dp0
Vcom.fontlab.hintData\\u000d\\u000d\\u000d
p1
(dp2
Vhhints\\u000d\\u000d\\u000d
p3
(lp4
(dp5
Vposition\\u000d\\u000d\\u000d
p6
I770
sVwidth\\u000d\\u000d\\u000d
p7
I140
sass."
EndChar

StartChar: uni0385
Encoding: 901 901 212
GlifName: dieresistonos
Width: 337
VWidth: 0
Flags: W
HStem: 462 73<29.748 92.1097> 474 75<220.234 289.274>
VStem: 26 70<465.156 530.215> 217 79<479.103 540.399>
AnchorPoint: "top" 164 438 mark 0
AnchorPoint: "top" 174 808 basechar 0
LayerCount: 2
Fore
SplineSet
26 501 m 256xb0
 26 529 59 535 68 535 c 256
 95 535 96 505 96 502 c 256
 96 480 80 462 61 462 c 256
 36 462 26 485 26 501 c 256xb0
253 474 m 256x70
 236 474 217 487 217 512 c 256
 217 530 227 547 245 549 c 257
 267 549 296 533 296 508 c 256
 296 490 275 474 253 474 c 256x70
110 572 m 256
 104 572 92 574 92 588 c 256
 92 602 104 622 110 635 c 256
 123 661 140 688 154 715 c 256
 164 734 190 779 216 779 c 256
 221 779 238 778 238 752 c 256
 238 726 220 691 190 648 c 256
 170 620 136 572 110 572 c 256
EndSplineSet
PickledDataWithLists: "(dp0
Vcom.fontlab.hintData\\u000d\\u000d\\u000d
p1
(dp2
Vhhints\\u000d\\u000d\\u000d
p3
(lp4
(dp5
Vposition\\u000d\\u000d\\u000d
p6
I593
sVwidth\\u000d\\u000d\\u000d
p7
I93
sasVvhints\\u000d\\u000d\\u000d
p8
(lp9
(dp10
g6
I32
sg7
I87
sa(dp11
g6
I271
sg7
I100
sass."
EndChar

StartChar: divide
Encoding: 247 247 213
GlifName: divide
Width: 548
VWidth: 0
Flags: W
HStem: -8 94<243.452 312.484> 162 83<56.9844 310.116> 203 85<368.705 497.528> 376 96<224.701 298.629>
VStem: 218 89<400.144 464.283> 235 99<11.5126 80.3557>
LayerCount: 2
Fore
SplineSet
218 435 m 256x98
 218 456 220 472 254 472 c 256
 286 472 304 456 307 422 c 256
 309 411 307 403 304 400 c 256
 292 388 268 376 251 376 c 256
 221 376 218 425 218 435 c 256x98
456 203 m 256xb0
 406 203 419 173 133 162 c 257
 128 162 l 258
 92 162 38 178 38 222 c 256
 38 233 48 242 64 245 c 256xd0
 115 255 292 242 418 278 c 256
 426 280 445 288 469 288 c 256
 503 288 518 285 518 277 c 256
 518 243 504 221 498 218 c 256
 488 213 474 203 456 203 c 256xb0
283 86 m 256
 334 86 334 50 334 49 c 256
 334 43 333 39 328 34 c 256
 309 15 312 -8 277 -8 c 256
 264 -8 235 14 235 32 c 256x94
 235 45 244 77 258 82 c 256
 266 85 273 86 283 86 c 256
EndSplineSet
PickledDataWithLists: "(dp0
Vcom.fontlab.hintData\\u000d\\u000d\\u000d
p1
(dp2
Vhhints\\u000d\\u000d\\u000d
p3
(lp4
(dp5
Vposition\\u000d\\u000d\\u000d
p6
I-10
sVwidth\\u000d\\u000d\\u000d
p7
I118
sa(dp8
g6
I202
sg7
I112
sa(dp9
g6
I202
sg7
I104
sa(dp10
g6
I254
sg7
I106
sa(dp11
g6
I470
sg7
I120
sasVvhints\\u000d\\u000d\\u000d
p12
(lp13
(dp14
g6
I272
sg7
I112
sa(dp15
g6
I294
sg7
I124
sass."
EndChar

StartChar: dollar
Encoding: 36 36 214
GlifName: dollar
Width: 366
VWidth: 0
Flags: W
HStem: -22 21G<253 265> 157 65<65.7095 205.443> 721 20G<221 229>
VStem: 22 58<424.638 494.923> 189 56<618 703.895> 197 59<378 489.249> 203 42<704.097 737.903> 218 94<-3.16209 51.0675>
LayerCount: 2
Fore
SplineSet
266 253 m 257xf0
 277 259 291 270 296 275 c 257
 291 281 269 289 261 294 c 257
 266 253 l 257xf0
197 378 m 257xf4
 197 394 190 412 190 493 c 258
 190 542 l 257
 168 539 150 535 118 509 c 256
 92 488 80 474 80 466 c 256
 80 456 88 441 104 422 c 257
 115 411 181 378 197 378 c 257xf4
43 256 m 256
 65 256 67 222 136 222 c 256
 165 222 185 224 206 232 c 257
 201 256 202 286 200 304 c 257
 194 309 170 317 154 325 c 257
 141 333 127 334 114 342 c 256
 101 350 90 355 82 358 c 256
 44 377 22 422 22 464 c 256
 22 483 23 496 26 502 c 256
 40 536 117 608 158 616 c 256
 163 618 181 618 189 618 c 257
 189 658 l 258xf8
 189 685 190 702 195 704 c 256
 200 706 203 712 203 722 c 256xf2
 203 730 205 736 211 738 c 256
 217 740 220 741 222 741 c 256
 236 741 245 722 245 685 c 258
 245 661 l 258xf8
 245 645 248 625 248 614 c 257
 259 606 272 605 298 581 c 256
 320 560 331 539 331 520 c 256
 331 518 330 519 330 517 c 258
 330 512 l 257
 327 499 320 493 312 493 c 256xf1
 292 493 265 531 251 541 c 257
 256 491 253 445 256 400 c 257
 256 365 l 257xf4
 280 354 318 336 331 328 c 256
 345 318 360 294 360 275 c 256
 360 251 318 213 272 192 c 257
 275 178 272 141 277 109 c 257
 280 82 281 58 302 40 c 257
 310 35 312 29 312 26 c 256
 312 10 272 -22 258 -22 c 256
 248 -22 218 22 218 48 c 256xf1
 218 114 216 144 210 170 c 257
 188 159 166 157 123 157 c 256
 81 157 50 162 32 178 c 256
 21 189 14 201 14 214 c 256
 14 235 29 256 43 256 c 256
EndSplineSet
PickledDataWithLists: "(dp0
Vcom.fontlab.hintData\\u000d\\u000d\\u000d
p1
(dp2
Vhhints\\u000d\\u000d\\u000d
p3
(lp4
(dp5
Vposition\\u000d\\u000d\\u000d
p6
I-28
sVwidth\\u000d\\u000d\\u000d
p7
I21
sa(dp8
g6
I196
sg7
I82
sa(dp9
g6
I906
sg7
I20
sasVvhints\\u000d\\u000d\\u000d
p10
(lp11
(dp12
g6
I28
sg7
I72
sa(dp13
g6
I236
sg7
I70
sa(dp14
g6
I246
sg7
I74
sa(dp15
g6
I254
sg7
I52
sa(dp16
g6
I272
sg7
I118
sass."
EndChar

StartChar: uni20AB
Encoding: 8363 8363 215
GlifName: dong
Width: 480
VWidth: 0
Flags: W
HStem: -150 72<96.1201 419.132> 17 73<114.633 168.18> 330 74<170.358 241> 551 63<115.999 242> 562 58<329 447.339> 562 50<329.266 447.339> 703 20G<291 299>
VStem: 40 69<91.5731 256.25> 242 87<406.133 552 620 694.136> 242 75<402.164 549.211>
LayerCount: 2
Fore
SplineSet
220 -82 m 256xe3
 274 -82 348 -78 350 -78 c 258
 383 -78 l 258
 408 -78 421 -90 421 -114 c 256
 421 -138 414 -145 406 -146 c 256
 389 -148 372 -150 348 -150 c 258
 222 -150 l 258
 214 -150 204 -148 203 -148 c 256
 136 -148 119 -158 95 -158 c 256
 69 -158 42 -157 42 -129 c 256
 42 -119 48 -107 67 -94 c 256
 77 -88 209 -82 220 -82 c 256xe3
449 592 m 256
 449 582 440 562 414 562 c 258
 390 562 l 257
 368 560 347 560 325 558 c 257
 317 463 317 408 317 406 c 256
 317 396 317 384 318 374 c 257
 337 364 376 336 376 313 c 256
 376 302 366 289 355 286 c 257
 344 286 338 287 328 293 c 257
 353 183 356 164 366 140 c 257
 373 118 383 102 392 84 c 257
 398 73 407 65 410 54 c 256
 411 50 411 44 411 40 c 256
 411 14 380 13 375 13 c 256
 368 13 361 15 355 17 c 256
 338 23 316 78 310 94 c 258
 296 137 l 258
 290 159 283 184 278 205 c 257
 258 139 216 17 130 17 c 256
 122 17 114 19 106 22 c 256
 58 36 45 108 40 159 c 257
 40 259 107 404 222 404 c 256
 229 404 236 403 242 402 c 257xeb40
 242 440 242 478 242 503 c 258
 242 552 l 257xeb80
 233 552 223 551 214 551 c 256
 160 551 144 554 143 554 c 256
 128 554 110 560 110 578 c 257
 112 601 145 614 165 614 c 258
 192 614 l 257
 205 616 217 617 230 617 c 257
 234 618 238 618 242 618 c 257xf340
 243 625 243 633 244 641 c 256
 248 694 245 669 270 702 c 257
 276 708 285 723 297 723 c 256
 301 723 305 722 310 717 c 257
 327 704 329 680 329 654 c 256
 329 644 329 634 329 624 c 258
 329 620 l 257
 346 620 l 258xeb80
 372 620 396 618 418 612 c 257xe780
 432 609 449 606 449 592 c 256
109 169 m 256
 109 146 108 90 138 90 c 256
 159 90 178 124 186 137 c 256
 196 151 199 170 205 186 c 257
 219 227 234 267 240 314 c 256
 241 319 241 324 241 329 c 257
 235 330 227 330 221 330 c 256
 206 330 191 326 178 316 c 256
 139 283 109 236 109 169 c 256
EndSplineSet
PickledDataWithLists: "(dp0
Vcom.fontlab.hintData\\u000d\\u000d\\u000d
p1
(dp2
Vhhints\\u000d\\u000d\\u000d
p3
(lp4
(dp5
Vposition\\u000d\\u000d\\u000d
p6
I-187
sVwidth\\u000d\\u000d\\u000d
p7
I90
sa(dp8
g6
I21
sg7
I91
sa(dp9
g6
I413
sg7
I92
sa(dp10
g6
I691
sg7
I76
sa(dp11
g6
I703
sg7
I72
sa(dp12
g6
I703
sg7
I62
sa(dp13
g6
I884
sg7
I20
sasVvhints\\u000d\\u000d\\u000d
p14
(lp15
(dp16
g6
I50
sg7
I86
sa(dp17
g6
I302
sg7
I100
sa(dp18
g6
I305
sg7
I106
sass."
EndChar

StartChar: uni0323
Encoding: 803 803 216
GlifName: dotbelowcomb
Width: 0
VWidth: 0
Flags: W
HStem: -234 112<-242.155 -195.634>
VStem: -272 117<-202.996 -158.09>
AnchorPoint: "bottom" -213 -16 mark 0
AnchorPoint: "bottom" -214 -300 basechar 0
LayerCount: 2
Fore
SplineSet
-272 -149 m 256
 -272 -136 -256 -122 -242 -122 c 256
 -223 -122 -210 -128 -205 -134 c 256
 -199 -142 -185 -152 -174 -160 c 256
 -160 -170 -155 -181 -155 -205 c 256
 -155 -223 -182 -234 -200 -234 c 256
 -224 -234 -239 -217 -250 -203 c 257
 -263 -189 -272 -175 -272 -149 c 256
EndSplineSet
PickledDataWithLists: "(dp0
Vcom.fontlab.hintData\\u000d\\u000d\\u000d
p1
(dp2
Vhhints\\u000d\\u000d\\u000d
p3
(lp4
(dp5
Vposition\\u000d\\u000d\\u000d
p6
I-292
sVwidth\\u000d\\u000d\\u000d
p7
I140
sasVvhints\\u000d\\u000d\\u000d
p8
(lp9
(dp10
g6
I-340
sg7
I146
sass."
EndChar

StartChar: idotless
Encoding: 305 305 217
GlifName: dotlessi
Width: 201
VWidth: 0
Flags: W
HStem: -2 21G<106.5 136> 418 20G<83 104.5>
VStem: 78 80<0.777622 264.63>
AnchorPoint: "bottom" 114 26 basechar 0
AnchorPoint: "top" 94 502 basechar 0
LayerCount: 2
Fore
SplineSet
78 26 m 256
 74 58 69 327 60 371 c 256
 58 378 57 388 57 398 c 256
 57 423 73 438 93 438 c 256
 116 438 126 406 129 370 c 256
 136 298 140 191 140 139 c 256
 140 109 147 64 150 54 c 256
 152 50 158 37 158 26 c 256
 158 12 154 -2 118 -2 c 256
 95 -2 80 9 78 26 c 256
EndSplineSet
PickledDataWithLists: "(dp0
Vcom.fontlab.hintData\\u000d\\u000d\\u000d
p1
(dp2
Vhhints\\u000d\\u000d\\u000d
p3
(lp4
(dp5
Vposition\\u000d\\u000d\\u000d
p6
I-3
sVwidth\\u000d\\u000d\\u000d
p7
I21
sa(dp8
g6
I527
sg7
I20
sasVvhints\\u000d\\u000d\\u000d
p9
(lp10
(dp11
g6
I93
sg7
I82
sa(dp12
g6
I97
sg7
I100
sass."
EndChar

StartChar: e
Encoding: 101 101 218
GlifName: e
Width: 407
VWidth: 0
Flags: W
HStem: -14 64<146.494 284.954> 374 74<149.584 249.496>
VStem: 33 74<250 321.752>
AnchorPoint: "bottom" 223 5 basechar 0
AnchorPoint: "top" 200 506 basechar 0
LayerCount: 2
Fore
SplineSet
107 250 m 257
 165 262 243 282 293 310 c 257
 268 338 235 374 195 374 c 256
 182 374 170 370 160 362 c 257
 136 346 107 287 107 250 c 257
123 426 m 256
 137 438 162 448 184 448 c 256
 230 448 280 419 315 387 c 256
 345 358 366 338 366 304 c 256
 366 285 339 264 315 250 c 257
 304 242 261 221 242 213 c 257
 199 199 151 183 109 170 c 257
 112 128 127 91 146 72 c 256
 159 59 182 50 230 50 c 256
 252 50 283 69 296 80 c 256
 304 88 333 101 349 101 c 256
 362 101 376 89 376 78 c 256
 376 60 334 36 323 26 c 256
 289 -3 269 -14 227 -14 c 256
 158 -14 121 -8 96 18 c 256
 50 68 33 117 33 200 c 256
 33 322 62 375 123 426 c 256
EndSplineSet
PickledDataWithLists: "(dp0
Vcom.fontlab.hintData\\u000d\\u000d\\u000d
p1
(dp2
Vhhints\\u000d\\u000d\\u000d
p3
(lp4
(dp5
Vposition\\u000d\\u000d\\u000d
p6
I-18
sVwidth\\u000d\\u000d\\u000d
p7
I80
sa(dp8
g6
I468
sg7
I92
sasVvhints\\u000d\\u000d\\u000d
p9
(lp10
(dp11
g6
I41
sg7
I95
sass."
EndChar

StartChar: eight
Encoding: 56 56 226
GlifName: eight
Width: 417
VWidth: 0
Flags: W
HStem: 3 69<128.767 256.893> 646 66<153.201 294.334>
VStem: 34 65<102.267 295.115> 62 72<505.574 626.15> 315 69<116.293 217.554> 334 59<459.736 602.35>
LayerCount: 2
Fore
SplineSet
198 328 m 257xe8
 184 339 185 346 174 357 c 257
 166 351 141 327 133 314 c 257
 109 282 99 248 99 192 c 256
 99 152 103 129 109 118 c 256
 127 89 152 72 181 72 c 256
 215 72 249 90 267 98 c 257
 293 112 315 128 315 162 c 256
 315 188 298 216 256 264 c 256
 234 290 212 315 198 328 c 257xe8
307 450 m 256
 321 474 334 505 334 531 c 256
 334 555 328 580 310 606 c 257
 296 628 274 646 221 646 c 256
 194 646 168 634 154 626 c 257
 138 615 134 606 134 584 c 256xd4
 134 558 143 536 149 520 c 256
 157 499 172 480 210 422 c 256
 232 387 237 387 258 365 c 257
 271 386 281 407 307 450 c 256
214 712 m 256
 292 712 302 699 342 664 c 256
 371 638 383 618 389 592 c 256
 392 581 393 571 393 562 c 256xd4
 393 554 392 546 392 542 c 256
 392 492 389 478 371 435 c 256
 366 422 328 355 317 334 c 256
 312 326 304 320 296 315 c 257
 314 299 352 238 360 224 c 257
 378 197 384 167 384 141 c 256
 384 67 234 3 168 3 c 256
 125 3 123 7 96 29 c 257
 75 48 56 77 38 120 c 256
 35 128 34 149 34 178 c 256xe8
 34 254 36 276 78 342 c 256
 102 380 123 390 136 406 c 257
 131 417 118 437 112 445 c 256
 69 508 62 525 62 602 c 256
 62 615 66 639 82 658 c 256
 120 704 154 712 214 712 c 256
EndSplineSet
PickledDataWithLists: "(dp0
Vcom.fontlab.hintData\\u000d\\u000d\\u000d
p1
(dp2
Vhhints\\u000d\\u000d\\u000d
p3
(lp4
(dp5
Vposition\\u000d\\u000d\\u000d
p6
I4
sVwidth\\u000d\\u000d\\u000d
p7
I86
sa(dp8
g6
I808
sg7
I82
sasVvhints\\u000d\\u000d\\u000d
p9
(lp10
(dp11
g6
I42
sg7
I82
sa(dp12
g6
I78
sg7
I90
sa(dp13
g6
I394
sg7
I86
sa(dp14
g6
I418
sg7
I73
sass."
EndChar

StartChar: ellipsis
Encoding: 8230 8230 227
GlifName: ellipsis
Width: 566
VWidth: 0
Flags: W
HStem: -3 120<68.4005 113.856 257.418 301.856 446.418 490.856>
VStem: 51 95<12.1011 92.4729> 240 94<12.1011 93.1882> 429 94<12.1011 93.1882>
LayerCount: 2
Fore
SplineSet
523 43 m 256
 523 21 504 -3 480 -3 c 256
 464 -3 455 3 445 21 c 256
 435 39 429 50 429 66 c 256
 429 84 435 102 443 110 c 256
 448 115 456 117 467 117 c 256
 480 117 488 112 491 109 c 256
 502 95 509 77 514 67 c 256
 519 59 523 53 523 43 c 256
334 43 m 256
 334 21 315 -3 291 -3 c 256
 275 -3 266 3 256 21 c 256
 246 39 240 50 240 66 c 256
 240 84 246 102 254 110 c 256
 259 115 267 117 278 117 c 256
 291 117 299 112 302 109 c 256
 313 95 320 77 325 67 c 256
 330 59 334 53 334 43 c 256
146 43 m 256
 146 21 126 -3 102 -3 c 256
 86 -3 77 3 67 21 c 256
 57 39 51 50 51 66 c 256
 51 84 58 102 66 110 c 256
 71 115 79 117 90 117 c 256
 103 117 111 112 114 109 c 256
 125 95 131 77 136 67 c 256
 141 59 146 53 146 43 c 256
EndSplineSet
PickledDataWithLists: "(dp0
Vcom.fontlab.hintData\\u000d\\u000d\\u000d
p1
(dp2
Vhhints\\u000d\\u000d\\u000d
p3
(lp4
(dp5
Vposition\\u000d\\u000d\\u000d
p6
I-4
sVwidth\\u000d\\u000d\\u000d
p7
I150
sasVvhints\\u000d\\u000d\\u000d
p8
(lp9
(dp10
g6
I64
sg7
I118
sa(dp11
g6
I300
sg7
I118
sa(dp12
g6
I536
sg7
I118
sass."
EndChar

StartChar: emdash
Encoding: 8212 8212 229
GlifName: emdash
Width: 697
VWidth: 0
Flags: W
HStem: 236 85<436.828 673.61> 238 68<302.777 626.766>
LayerCount: 2
Fore
SplineSet
53 176 m 257x40
 29 176 14 213 14 214 c 256
 14 216 16 218 19 224 c 256
 31 245 51 251 125 266 c 256
 200 280 336 293 533 306 c 257x40
 575 308 602 312 613 317 c 257
 618 320 622 321 627 321 c 256
 637 321 666 313 674 307 c 256
 683 301 683 292 683 274 c 256
 683 238 658 236 628 236 c 256x80
 614 236 576 238 542 238 c 256
 531 238 520 238 510 237 c 256
 412 233 340 234 294 226 c 256
 270 221 248 217 226 214 c 257
 207 210 72 180 53 176 c 257x40
EndSplineSet
PickledDataWithLists: "(dp0
Vcom.fontlab.hintData\\u000d\\u000d\\u000d
p1
(dp2
Vhhints\\u000d\\u000d\\u000d
p3
(lp4
(dp5
Vposition\\u000d\\u000d\\u000d
p6
I295
sVwidth\\u000d\\u000d\\u000d
p7
I106
sass."
EndChar

StartChar: endash
Encoding: 8211 8211 230
GlifName: endash
Width: 494
VWidth: 0
Flags: W
HStem: 202 68<23.8363 210.109> 210 72<81.3992 483.292>
LayerCount: 2
Fore
SplineSet
475 213 m 258x40
 469 213 l 257
 447 211 425 210 395 210 c 258
 238 210 l 258x40
 228 210 216 211 214 211 c 256
 130 211 110 202 80 202 c 256
 47 202 13 202 13 230 c 256
 13 240 24 250 45 266 c 256
 50 270 56 270 63 270 c 258
 88 270 l 257x80
 107 272 157 275 235 277 c 256
 302 277 396 282 398 282 c 258
 440 282 l 258
 470 282 486 269 486 245 c 256
 486 215 481 213 475 213 c 258x40
EndSplineSet
PickledDataWithLists: "(dp0
Vcom.fontlab.hintData\\u000d\\u000d\\u000d
p1
(dp2
Vhhints\\u000d\\u000d\\u000d
p3
(lp4
(dp5
Vposition\\u000d\\u000d\\u000d
p6
I252
sVwidth\\u000d\\u000d\\u000d
p7
I86
sa(dp8
g6
I262
sg7
I90
sass."
EndChar

StartChar: uni014B
Encoding: 331 331 231
GlifName: eng
Width: 475
VWidth: 0
Flags: W
HStem: -259 61<214.185 328.411> 350 73<235.755 314.375>
VStem: 53 68<259 357.152> 352 66<-172.128 264.169>
AnchorPoint: "bottom" 240 -224 basechar 0
AnchorPoint: "top" 238 461 basechar 0
LayerCount: 2
Fore
SplineSet
103 394 m 256
 111 394 124 391 124 370 c 256
 124 369 121 345 121 259 c 257
 139 296 146 325 166 354 c 257
 189 385 242 423 281 423 c 256
 304 423 326 415 344 402 c 256
 385 372 397 308 403 262 c 256
 413 186 418 109 418 33 c 256
 418 -30 416 -114 405 -163 c 257
 393 -230 372 -252 301 -258 c 256
 297 -259 293 -259 290 -259 c 256
 278 -259 266 -258 254 -254 c 257
 241 -252 228 -244 216 -238 c 256
 207 -233 196 -232 192 -224 c 256
 189 -219 187 -212 187 -206 c 256
 187 -190 203 -182 209 -182 c 257
 234 -189 l 258
 254 -195 273 -198 294 -198 c 256
 302 -198 309 -196 315 -192 c 256
 336 -178 338 -147 344 -123 c 257
 349 -107 347 -93 349 -77 c 257
 351 -40 352 -3 352 35 c 256
 352 79 350 123 347 166 c 256
 344 208 349 252 333 289 c 256
 323 314 310 348 284 350 c 257
 280 350 l 258
 241 350 212 300 190 266 c 256
 158 216 140 147 138 98 c 256
 138 95 138 91 138 88 c 256
 138 81 138 73 138 67 c 256
 138 53 139 14 105 14 c 256
 99 14 94 15 90 18 c 256
 67 36 54 196 54 229 c 256
 54 249 53 272 53 294 c 256
 53 316 55 340 62 358 c 257
 66 372 88 394 103 394 c 256
EndSplineSet
PickledDataWithLists: "(dp0
Vcom.fontlab.hintData\\u000d\\u000d\\u000d
p1
(dp2
Vhhints\\u000d\\u000d\\u000d
p3
(lp4
(dp5
Vposition\\u000d\\u000d\\u000d
p6
I-324
sVwidth\\u000d\\u000d\\u000d
p7
I77
sa(dp8
g6
I437
sg7
I92
sasVvhints\\u000d\\u000d\\u000d
p9
(lp10
(dp11
g6
I66
sg7
I89
sa(dp12
g6
I77
sg7
I78
sa(dp13
g6
I440
sg7
I84
sass."
EndChar

StartChar: eogonek
Encoding: 281 281 232
GlifName: eogonek
Width: 414
VWidth: 0
Flags: W
HStem: -151 65<388.275 481.666> -35 68<142.39 272.705> 386 69<205.734 296.667>
VStem: 29 66<86.5349 175.349> 306 61<-64.4893 -4.42115 323.641 379.424>
AnchorPoint: "bottom" 206 -6 basechar 0
AnchorPoint: "top" 213 514 basechar 0
LayerCount: 2
Fore
SplineSet
199 -35 m 256
 193 -35 29 -34 29 166 c 256
 29 267 61 327 100 369 c 257
 139 412 201 455 262 455 c 256
 302 455 340 440 358 410 c 256
 367 396 372 363 372 346 c 256
 372 294 337 273 313 257 c 256
 247 214 189 186 95 173 c 257
 95 115 126 33 198 33 c 256
 239 33 290 60 319 87 c 257
 328 97 342 102 354 102 c 256
 368 102 370 51 370 36 c 256
 370 26 367 14 367 4 c 256
 367 -47 391 -86 436 -86 c 256
 446 -86 456 -85 468 -81 c 256
 477 -79 481 -66 490 -65 c 256
 492 -65 493 -64 495 -64 c 256
 507 -64 514 -76 514 -90 c 256
 514 -119 487 -151 430 -151 c 256
 411 -151 389 -147 370 -139 c 256
 349 -129 318 -88 311 -65 c 256
 308 -54 306 -42 306 -31 c 256
 306 -21 307 -13 308 -4 c 257
 290 -19 225 -35 199 -35 c 256
107 245 m 257
 199 253 301 323 301 346 c 256
 301 366 285 386 266 386 c 256
 216 386 151 328 124 286 c 256
 117 274 109 257 107 245 c 257
EndSplineSet
PickledDataWithLists: "(dp0
Vcom.fontlab.hintData\\u000d\\u000d\\u000d
p1
(dp2
Vhhints\\u000d\\u000d\\u000d
p3
(lp4
(dp5
Vposition\\u000d\\u000d\\u000d
p6
I-189
sVwidth\\u000d\\u000d\\u000d
p7
I81
sa(dp8
g6
I-44
sg7
I85
sa(dp9
g6
I482
sg7
I87
sasVvhints\\u000d\\u000d\\u000d
p10
(lp11
(dp12
g6
I36
sg7
I83
sa(dp13
g6
I376
sg7
I89
sa(dp14
g6
I383
sg7
I76
sass."
EndChar

StartChar: uni03B5
Encoding: 949 949 233
GlifName: epsilon
Width: 382
VWidth: 0
Flags: W
HStem: -15 69<154.123 260.152> 342 90<239.078 286.902> 386 65<132.085 236.648>
VStem: 50 70<295.46 374.092> 78 76<54.8567 140.576>
AnchorPoint: "bottom" 202 20 basechar 0
AnchorPoint: "top" 181 476 basechar 0
LayerCount: 2
Fore
SplineSet
240 253 m 256xb0
 240 227 154 132 154 78 c 256
 154 60 167 54 186 54 c 256
 210 54 241 64 262 76 c 256
 279 85 293 100 310 108 c 256
 314 110 318 110 323 110 c 256
 339 110 360 102 365 87 c 256
 365 85 366 85 366 83 c 256
 366 66 341 51 331 44 c 256
 287 11 251 -15 173 -15 c 258
 166 -15 l 257
 124 -13 78 21 78 74 c 256xa8
 78 119 118 191 142 227 c 257
 124 231 106 237 93 246 c 256
 85 251 61 278 58 287 c 256
 52 302 50 317 50 331 c 256
 50 395 103 451 167 451 c 256xb0
 199 451 234 440 255 432 c 256
 287 419 296 406 296 370 c 256
 296 362 299 352 293 347 c 256
 288 343 283 342 278 342 c 256xd0
 249 342 232 386 181 386 c 256
 146 386 120 364 120 329 c 256
 120 267 240 294 240 253 c 256xb0
EndSplineSet
PickledDataWithLists: "(dp0
Vcom.fontlab.hintData\\u000d\\u000d\\u000d
p1
(dp2
Vhhints\\u000d\\u000d\\u000d
p3
(lp4
(dp5
Vposition\\u000d\\u000d\\u000d
p6
I-19
sVwidth\\u000d\\u000d\\u000d
p7
I86
sa(dp8
g6
I427
sg7
I113
sa(dp9
g6
I482
sg7
I82
sasVvhints\\u000d\\u000d\\u000d
p10
(lp11
(dp12
g6
I62
sg7
I88
sa(dp13
g6
I98
sg7
I94
sass."
EndChar

StartChar: equal
Encoding: 61 61 235
GlifName: equal
Width: 374
VWidth: 0
Flags: W
HStem: 102 61<47.379 318.252> 109 54<178.394 360.498> 272 67<22.1457 306.906>
LayerCount: 2
Fore
SplineSet
301 344 m 256x20
 303 344 305 347 307 347 c 256
 322 347 365 321 365 304 c 256
 365 296 357 289 344 283 c 257
 338 281 178 272 154 272 c 256
 111 272 64 275 61 275 c 257
 59 273 55 274 50 274 c 256
 44 274 16 288 16 307 c 256
 16 313 19 320 22 325 c 256
 25 331 35 334 51 336 c 256
 67 338 105 337 166 339 c 257
 256 339 296 342 301 344 c 256x20
22 179 m 256
 23 180 24 180 25 180 c 256
 27 180 30 179 34 179 c 256
 60 179 64 172 85 170 c 257
 125 165 147 163 187 163 c 258
 299 163 l 258xa0
 307 163 309 166 317 166 c 256
 335 166 362 155 362 133 c 256
 362 117 332 109 320 109 c 256x60
 283 109 227 102 176 102 c 256xa0
 131 102 75 112 46 123 c 256
 25 131 18 149 18 160 c 256
 18 168 19 173 22 179 c 256
EndSplineSet
PickledDataWithLists: "(dp0
Vcom.fontlab.hintData\\u000d\\u000d\\u000d
p1
(dp2
Vhhints\\u000d\\u000d\\u000d
p3
(lp4
(dp5
Vposition\\u000d\\u000d\\u000d
p6
I128
sVwidth\\u000d\\u000d\\u000d
p7
I76
sa(dp8
g6
I136
sg7
I68
sa(dp9
g6
I342
sg7
I78
sa(dp10
g6
I348
sg7
I86
sass."
EndChar

StartChar: uni03B7
Encoding: 951 951 236
GlifName: eta
Width: 432
VWidth: 0
Flags: W
HStem: 334 80<251.843 292.271> 420 20G<69 95>
VStem: 53 65<220 438.278> 57 74<8.07352 126.298> 303 64<-216.91 333.788>
AnchorPoint: "bottom" 96 38 basechar 0
AnchorPoint: "top" 206 462 basechar 0
LayerCount: 2
Fore
SplineSet
306 114 m 256xe8
 306 152 304 334 280 334 c 256
 242 334 152 156 137 70 c 256
 134 52 133 31 131 26 c 256
 128 16 110 5 86 2 c 257
 82 2 l 258
 68 2 57 10 57 50 c 256xd8
 57 55 58 60 58 66 c 258
 58 78 l 258
 58 123 51 204 51 241 c 256
 51 258 53 275 53 305 c 256
 53 327 50 364 50 390 c 256
 50 420 50 440 88 440 c 256
 102 440 100 433 108 413 c 256
 113 399 116 354 118 290 c 256
 118 266 117 240 117 220 c 257
 145 307 232 414 285 414 c 256
 307 414 337 381 350 362 c 256
 364 341 367 278 367 234 c 256
 367 220 367 207 367 193 c 256
 369 123 370 56 370 -13 c 257
 368 -59 367 -99 367 -148 c 256
 367 -172 378 -214 390 -219 c 256
 403 -224 408 -231 408 -239 c 256
 408 -259 386 -274 359 -274 c 256
 324 -274 303 -211 303 -171 c 256
 303 -117 305 -48 305 11 c 256
 305 45 306 80 306 114 c 256xe8
EndSplineSet
PickledDataWithLists: "(dp0
Vcom.fontlab.hintData\\u000d\\u000d\\u000d
p1
(dp2
Vhhints\\u000d\\u000d\\u000d
p3
(lp4
(dp5
Vposition\\u000d\\u000d\\u000d
p6
I418
sVwidth\\u000d\\u000d\\u000d
p7
I99
sa(dp8
g6
I530
sg7
I20
sasVvhints\\u000d\\u000d\\u000d
p9
(lp10
(dp11
g6
I62
sg7
I73
sa(dp12
g6
I66
sg7
I82
sa(dp13
g6
I71
sg7
I93
sa(dp14
g6
I382
sg7
I77
sass."
EndChar

StartChar: eth
Encoding: 240 240 238
GlifName: eth
Width: 489
VWidth: 0
Flags: W
HStem: 6 72<181.847 266.966> 365 72<219.612 329.118> 650 76<101.747 237.106>
VStem: 77 75<110.03 293.996> 113 82<493.066 543.998> 370 73<219.983 508.814>
AnchorPoint: "bottom" 256 46 basechar 0
AnchorPoint: "top" 272 767 basechar 0
LayerCount: 2
Fore
SplineSet
325 354 m 256xf4
 308 354 299 365 275 365 c 256
 245 365 196 331 182 310 c 256
 168 289 152 253 152 221 c 256
 152 216 152 209 152 203 c 256xf4
 152 183 153 156 160 136 c 256
 173 101 198 78 222 78 c 256
 272 78 336 179 349 221 c 256
 362 264 370 334 370 352 c 256
 370 438 357 534 297 601 c 257
 276 583 258 567 238 557 c 256
 209 543 195 528 195 520 c 256
 195 506 169 486 155 486 c 256
 145 486 113 496 113 521 c 256xec
 113 528 115 537 120 544 c 256
 146 581 177 597 206 619 c 256
 212 624 224 631 238 641 c 257
 219 647 198 650 176 650 c 256
 152 650 129 646 110 640 c 256
 92 634 77 605 61 605 c 256
 43 605 20 605 20 648 c 256
 20 659 24 670 34 678 c 256
 56 694 72 703 86 709 c 257
 99 714 151 726 189 726 c 256
 223 726 271 705 301 688 c 257
 331 711 352 728 370 744 c 256
 392 763 416 778 442 778 c 256
 463 778 480 764 480 746 c 256
 480 736 471 727 453 717 c 256
 411 695 386 672 352 645 c 257
 376 619 394 589 398 573 c 256
 408 533 434 493 440 445 c 257
 442 414 443 387 443 363 c 256
 443 289 428 171 338 64 c 256
 319 40 325 46 288 24 c 257
 270 10 243 6 221 6 c 256
 199 6 164 16 154 26 c 256
 140 39 104 74 98 90 c 257
 88 120 77 151 77 202 c 256
 77 258 84 281 90 294 c 256
 117 352 121 355 171 395 c 256
 211 427 230 437 278 437 c 256
 300 437 332 421 338 411 c 256
 343 405 352 387 352 376 c 256
 352 363 341 354 325 354 c 256xf4
EndSplineSet
PickledDataWithLists: "(dp0
Vcom.fontlab.hintData\\u000d\\u000d\\u000d
p1
(dp2
Vhhints\\u000d\\u000d\\u000d
p3
(lp4
(dp5
Vposition\\u000d\\u000d\\u000d
p6
I8
sVwidth\\u000d\\u000d\\u000d
p7
I90
sa(dp8
g6
I456
sg7
I90
sa(dp9
g6
I812
sg7
I96
sasVvhints\\u000d\\u000d\\u000d
p10
(lp11
(dp12
g6
I96
sg7
I94
sa(dp13
g6
I141
sg7
I104
sa(dp14
g6
I462
sg7
I92
sass."
EndChar

StartChar: exclam
Encoding: 33 33 239
GlifName: exclam
Width: 171
VWidth: 0
Flags: W
HStem: -5 114<49.2928 117.256> 695 20G<64 80>
VStem: 45 91<0.924309 91.9215> 50 65<235.979 705.197> 67 51<213.945 466.675>
LayerCount: 2
Fore
SplineSet
118 258 m 256xc8
 118 251 117 213 90 213 c 256
 82 213 75 224 67 250 c 256xc8
 62 266 56 274 53 402 c 256
 53 432 51 467 51 504 c 258
 51 592 l 258
 51 613 50 629 50 642 c 256
 50 701 53 715 75 715 c 256
 85 715 87 710 98 702 c 256
 105 696 115 688 115 622 c 256xd0
 115 616 114 600 114 574 c 258
 114 509 l 258
 114 361 118 286 118 258 c 256xc8
70 109 m 256
 104 109 114 103 130 58 c 256
 133 47 136 37 136 26 c 256
 136 10 119 -5 77 -5 c 256
 51 -5 45 18 45 58 c 256xe0
 45 84 49 109 70 109 c 256
EndSplineSet
PickledDataWithLists: "(dp0
Vcom.fontlab.hintData\\u000d\\u000d\\u000d
p1
(dp2
Vhhints\\u000d\\u000d\\u000d
p3
(lp4
(dp5
Vposition\\u000d\\u000d\\u000d
p6
I-6
sVwidth\\u000d\\u000d\\u000d
p7
I142
sasVvhints\\u000d\\u000d\\u000d
p8
(lp9
(dp10
g6
I56
sg7
I114
sa(dp11
g6
I64
sg7
I78
sa(dp12
g6
I84
sg7
I64
sass."
EndChar

StartChar: uni203C
Encoding: 8252 8252 240
GlifName: exclamdbl
Width: 382
VWidth: 0
Flags: W
HStem: -5 114<49.2928 117.256 260.429 328.409> 695 20G<64 80 275 291>
VStem: 45 91<0.924309 91.9215> 50 65<235.979 705.197> 67 51<213.945 466.675> 256 91<0.924309 91.9215> 262 63<233.25 705.99> 278 52<214.273 468.33>
LayerCount: 2
Fore
SplineSet
330 258 m 256xc1
 330 251 328 213 301 213 c 256
 293 213 286 224 278 250 c 256xc1
 273 266 267 274 264 402 c 256
 264 432 262 467 262 504 c 258
 262 592 l 258
 262 613 261 629 261 642 c 256
 261 701 264 715 286 715 c 256
 296 715 298 710 309 702 c 256
 316 696 326 688 326 622 c 256
 326 616 325 600 325 574 c 258
 325 509 l 258xc2
 325 361 330 286 330 258 c 256xc1
282 109 m 256
 316 109 325 103 341 58 c 256
 344 47 347 37 347 26 c 256
 347 10 330 -5 288 -5 c 256
 262 -5 256 18 256 58 c 256xc4
 256 84 261 109 282 109 c 256
118 258 m 256xc8
 118 251 117 213 90 213 c 256
 82 213 75 224 67 250 c 256xc8
 62 266 56 274 53 402 c 256
 53 432 51 467 51 504 c 258
 51 592 l 258
 51 613 50 629 50 642 c 256
 50 701 53 715 75 715 c 256
 85 715 87 710 98 702 c 256
 105 696 115 688 115 622 c 256xd0
 115 616 114 600 114 574 c 258
 114 509 l 258
 114 361 118 286 118 258 c 256xc8
70 109 m 256
 104 109 114 103 130 58 c 256
 133 47 136 37 136 26 c 256
 136 10 119 -5 77 -5 c 256
 51 -5 45 18 45 58 c 256xe0
 45 84 49 109 70 109 c 256
EndSplineSet
PickledDataWithLists: "(dp0
Vcom.fontlab.hintData\\u000d\\u000d\\u000d
p1
(dp2
Vhhints\\u000d\\u000d\\u000d
p3
(lp4
(dp5
Vposition\\u000d\\u000d\\u000d
p6
I-6
sVwidth\\u000d\\u000d\\u000d
p7
I142
sasVvhints\\u000d\\u000d\\u000d
p8
(lp9
(dp10
g6
I56
sg7
I114
sa(dp11
g6
I64
sg7
I78
sa(dp12
g6
I84
sg7
I64
sa(dp13
g6
I320
sg7
I114
sa(dp14
g6
I328
sg7
I78
sa(dp15
g6
I348
sg7
I64
sass."
EndChar

StartChar: exclamdown
Encoding: 161 161 241
GlifName: exclamdown
Width: 177
VWidth: 0
Flags: W
HStem: -269 21G<91 122> 302 82<48.25 114.61>
VStem: 37 83<311.726 378.861> 64 86<-260.463 27.9745>
LayerCount: 2
Fore
SplineSet
85 302 m 256xe0
 51 302 37 342 37 352 c 256
 37 371 60 384 78 384 c 256
 102 384 120 365 120 341 c 256
 120 322 105 302 85 302 c 256xe0
83 162 m 256
 99 162 110 158 115 150 c 256
 121 140 150 -193 150 -219 c 256
 150 -245 135 -269 109 -269 c 256
 73 -269 64 -223 64 -195 c 256xd0
 64 -149 63 -64 58 19 c 256
 56 61 54 80 54 123 c 256
 54 152 65 162 83 162 c 256
EndSplineSet
PickledDataWithLists: "(dp0
Vcom.fontlab.hintData\\u000d\\u000d\\u000d
p1
(dp2
Vhhints\\u000d\\u000d\\u000d
p3
(lp4
(dp5
Vposition\\u000d\\u000d\\u000d
p6
I-336
sVwidth\\u000d\\u000d\\u000d
p7
I21
sa(dp8
g6
I378
sg7
I102
sasVvhints\\u000d\\u000d\\u000d
p9
(lp10
(dp11
g6
I46
sg7
I104
sa(dp12
g6
I80
sg7
I108
sass."
EndChar

StartChar: f
Encoding: 102 102 242
GlifName: f
Width: 438
VWidth: 0
Flags: W
HStem: 306 73<22.132 163.967> 318 68<78.9556 165> 350 68<241.792 405.484> 674 83<241.105 310.883>
VStem: 160 62<395.749 657.843> 192 66<-19.3757 278.641> 358 55<540.96 617.273>
AnchorPoint: "bottom" 224 25 basechar 0
AnchorPoint: "top" 251 785 basechar 0
LayerCount: 2
Fore
SplineSet
173 318 m 257x56
 171 318 57 306 51 306 c 256
 30 306 18 319 18 338 c 256
 18 351 27 373 35 379 c 256x96
 41 384 63 384 77 384 c 256
 119 384 143 386 165 386 c 257x56
 161 427 160 467 160 550 c 256
 160 608 162 652 181 690 c 256
 210 749 236 757 262 757 c 256
 291 757 364 720 378 694 c 256
 389 675 413 632 413 597 c 256
 413 563 404 538 378 538 c 256
 368 538 361 542 358 555 c 256
 345 622 309 674 264 674 c 256
 225 674 222 541 222 512 c 256
 222 490 226 434 229 394 c 257
 299 407 340 418 379 418 c 256
 395 418 410 394 410 381 c 256
 410 365 379 350 363 350 c 256x3a
 353 350 333 342 317 339 c 256
 299 336 263 331 236 328 c 257
 250 230 258 147 258 48 c 256
 258 21 258 -16 248 -24 c 257
 242 -30 241 -32 238 -32 c 256
 222 -32 186 3 186 16 c 256
 186 39 192 41 192 82 c 256
 192 84 190 201 179 270 c 256
 176 289 175 303 173 318 c 257x56
EndSplineSet
PickledDataWithLists: "(dp0
Vcom.fontlab.hintData\\u000d\\u000d\\u000d
p1
(dp2
Vhhints\\u000d\\u000d\\u000d
p3
(lp4
(dp5
Vposition\\u000d\\u000d\\u000d
p6
I382
sVwidth\\u000d\\u000d\\u000d
p7
I92
sa(dp8
g6
I438
sg7
I84
sa(dp9
g6
I842
sg7
I104
sasVvhints\\u000d\\u000d\\u000d
p10
(lp11
(dp12
g6
I200
sg7
I78
sa(dp13
g6
I240
sg7
I82
sa(dp14
g6
I448
sg7
I68
sass."
EndChar

StartChar: uni2012
Encoding: 8210 8210 243
GlifName: figuredash
Width: 512
VWidth: 0
Flags: W
HStem: 195 62<53.2045 428.348> 197 71<192.957 473.547>
LayerCount: 2
Fore
SplineSet
50 225 m 256x80
 50 240 72 258 102 258 c 256
 143 258 186 257 216 257 c 258
 271 257 l 258x80
 356 257 401 258 405 264 c 256
 407 266 415 268 429 268 c 256
 480 268 480 262 480 250 c 256
 480 204 455 197 411 197 c 256x40
 397 197 389 198 376 198 c 256
 306 198 325 195 242 195 c 258
 137 195 l 258
 103 195 82 196 73 198 c 256
 64 200 50 216 50 225 c 256x80
EndSplineSet
PickledDataWithLists: "(dp0
Vcom.fontlab.hintData\\u000d\\u000d\\u000d
p1
(dp2
Vhhints\\u000d\\u000d\\u000d
p3
(lp4
(dp5
Vposition\\u000d\\u000d\\u000d
p6
I246
sVwidth\\u000d\\u000d\\u000d
p7
I89
sa(dp8
g6
I247
sg7
I74
sass."
EndChar

StartChar: five
Encoding: 53 53 244
GlifName: five
Width: 422
VWidth: 0
Flags: W
HStem: -249 87<104.749 183.229> 99 72<141.153 298.56> 344 72<128.033 369.254> 409 20G<60 88>
VStem: 313 71<-17.8984 83.8422>
LayerCount: 2
Fore
SplineSet
242 99 m 256xe8
 183 99 99 58 68 58 c 256
 41 58 33 68 33 106 c 256
 33 132 36 168 41 222 c 256
 46 281 55 339 59 370 c 257
 47 382 43 398 43 408 c 256
 43 419 49 429 71 429 c 256xd8
 105 429 179 416 237 416 c 256
 258 416 337 422 338 422 c 256
 376 422 384 412 384 387 c 256
 384 359 336 349 223 344 c 257
 199 344 l 258
 173 344 149 345 127 348 c 257
 122 310 113 277 107 219 c 256
 105 200 103 159 102 141 c 257
 124 150 193 171 242 171 c 256
 337 171 384 133 384 39 c 256
 384 -31 316 -121 226 -203 c 256
 199 -229 164 -249 146 -249 c 256
 105 -249 83 -200 83 -168 c 256
 83 -158 91 -150 104 -150 c 256
 126 -150 131 -162 148 -162 c 256
 176 -162 313 -22 313 37 c 256
 313 72 293 99 242 99 c 256xe8
EndSplineSet
PickledDataWithLists: "(dp0
Vcom.fontlab.hintData\\u000d\\u000d\\u000d
p1
(dp2
Vhhints\\u000d\\u000d\\u000d
p3
(lp4
(dp5
Vposition\\u000d\\u000d\\u000d
p6
I-311
sVwidth\\u000d\\u000d\\u000d
p7
I109
sa(dp8
g6
I124
sg7
I90
sa(dp9
g6
I430
sg7
I90
sasVvhints\\u000d\\u000d\\u000d
p10
(lp11
(dp12
g6
I41
sg7
I87
sa(dp13
g6
I391
sg7
I89
sass."
EndChar

StartChar: four
Encoding: 52 52 245
GlifName: four
Width: 443
VWidth: 0
Flags: W
HStem: -242 21G<355.5 364.5> -2 76<103.367 220.54> 3 75<114.737 263.408 341.109 421.75> 439 20G<185.5 197.5>
VStem: 24 79<57 145.081> 160 70<356.549 452.919> 290 62<112.154 237.059>
LayerCount: 2
Fore
SplineSet
435 50 m 256xbe
 435 40 431 6 341 6 c 257
 341 -85 365 -165 371 -173 c 256
 379 -183 382 -193 382 -203 c 256
 382 -214 371 -242 358 -242 c 256
 353 -242 349 -240 341 -238 c 256
 303 -230 291 -185 272 -94 c 256
 269 -80 264 -34 262 3 c 257
 222 3 l 258xbe
 191 3 150 -2 113 -2 c 256
 90 -2 68 0 51 6 c 256
 29 14 24 40 24 74 c 256
 24 106 40 133 46 146 c 256
 67 189 75 218 96 264 c 256
 102 277 118 302 160 408 c 256
 170 430 179 459 192 459 c 256
 203 459 230 443 230 432 c 256
 230 385 180 278 158 230 c 256
 140 190 115 153 104 102 c 256
 103 99 103 96 103 94 c 256
 103 78 118 74 138 74 c 256xde
 176 74 178 78 222 78 c 256
 239 78 254 78 269 77 c 257
 271 109 288 176 290 197 c 256
 292 221 307 243 333 243 c 256
 343 243 352 240 352 234 c 256
 352 228 352 200 347 152 c 258
 339 78 l 257
 348 76 357 75 365 75 c 256
 381 75 395 78 410 78 c 256
 416 78 435 58 435 50 c 256xbe
EndSplineSet
PickledDataWithLists: "(dp0
Vcom.fontlab.hintData\\u000d\\u000d\\u000d
p1
(dp2
Vhhints\\u000d\\u000d\\u000d
p3
(lp4
(dp5
Vposition\\u000d\\u000d\\u000d
p6
I-302
sVwidth\\u000d\\u000d\\u000d
p7
I21
sa(dp8
g6
I-2
sg7
I95
sa(dp9
g6
I4
sg7
I94
sa(dp10
g6
I554
sg7
I20
sasVvhints\\u000d\\u000d\\u000d
p11
(lp12
(dp13
g6
I30
sg7
I99
sa(dp14
g6
I200
sg7
I88
sa(dp15
g6
I328
sg7
I98
sa(dp16
g6
I336
sg7
I104
sa(dp17
g6
I362
sg7
I78
sass."
EndChar

StartChar: uni2044
Encoding: 8260 8260 246
GlifName: fraction
Width: 527
VWidth: 0
Flags: W
VStem: 24 58<-10.1765 73.5863>
LayerCount: 2
Fore
SplineSet
465 678 m 256
 483 678 508 669 508 657 c 256
 508 647 499 636 489 632 c 256
 467 623 448 601 428 575 c 256
 303 411 228 267 173 186 c 257
 153 154 143 141 125 112 c 256
 114 94 89 48 83 26 c 256
 83 24 82 19 82 15 c 256
 82 -3 104 7 104 -11 c 256
 104 -19 92 -24 78 -24 c 256
 53 -24 24 -6 24 20 c 256
 24 39 30 60 40 79 c 257
 59 119 53 118 101 194 c 256
 179 318 232 398 290 490 c 256
 336 563 310 534 360 605 c 256
 380 634 412 660 426 670 c 256
 432 674 452 678 465 678 c 256
EndSplineSet
PickledDataWithLists: "(dp0
Vcom.fontlab.hintData\\u000d\\u000d\\u000d
p1
(dp2
Vhhints\\u000d\\u000d\\u000d
p3
(lp4
(dp5
Vposition\\u000d\\u000d\\u000d
p6
I790
sVwidth\\u000d\\u000d\\u000d
p7
I57
sasVvhints\\u000d\\u000d\\u000d
p8
(lp9
(dp10
g6
I30
sg7
I72
sass."
EndChar

StartChar: g
Encoding: 103 103 247
GlifName: g
Width: 416
VWidth: 0
Flags: W
HStem: -214 75<191.834 291.412> -6 62<165.159 226.953> 155 72<106.007 185.486> 261 1<344.282 362.718> 380 70<173.9 257.194>
VStem: 37 69<227.399 298.992> 183 76<126.58 165.235> 301 68<-129.883 4.59283>
AnchorPoint: "bottom" 216 -170 basechar 0
AnchorPoint: "top" 210 500 basechar 0
LayerCount: 2
Fore
SplineSet
333 266 m 257
 315 239 259 199 259 155 c 256
 259 135 369 72 369 -78 c 256
 369 -155 319 -214 258 -214 c 256
 206 -214 170 -197 126 -161 c 256
 65 -111 50 -89 50 -42 c 256
 50 -12 146 56 193 56 c 256
 215 56 229 43 229 26 c 256
 229 13 220 2 206 -6 c 257
 191 -13 133 -42 127 -54 c 257
 137 -92 217 -139 254 -139 c 256
 276 -139 301 -124 301 -77 c 256
 301 -48 291 0 249 56 c 256
 208 110 183 126 183 150 c 256
 183 156 184 161 185 167 c 257
 166 159 145 155 120 155 c 256
 57 155 37 194 37 238 c 256
 37 269 46 303 85 354 c 256
 147 436 174 450 209 450 c 256
 245 450 280 424 317 396 c 256
 354 369 382 327 382 274 c 256
 382 263 373 261 363 261 c 256
 357 261 350 262 344 262 c 256
 340 262 336 263 333 266 c 257
285 337 m 257
 263 359 219 380 209 380 c 256
 197 380 176 366 142 320 c 256
 112 278 106 259 106 242 c 256
 106 232 110 227 121 227 c 256
 179 227 215 261 285 337 c 257
EndSplineSet
PickledDataWithLists: "(dp0
Vcom.fontlab.hintData\\u000d\\u000d\\u000d
p1
(dp2
Vhhints\\u000d\\u000d\\u000d
p3
(lp4
(dp5
Vposition\\u000d\\u000d\\u000d
p6
I-267
sVwidth\\u000d\\u000d\\u000d
p7
I93
sa(dp8
g6
I194
sg7
I90
sa(dp9
g6
I326
sg7
I1
sa(dp10
g6
I475
sg7
I88
sasVvhints\\u000d\\u000d\\u000d
p11
(lp12
(dp13
g6
I46
sg7
I87
sa(dp14
g6
I229
sg7
I95
sa(dp15
g6
I376
sg7
I85
sass."
EndChar

StartChar: uni03B3
Encoding: 947 947 248
GlifName: gamma
Width: 508
VWidth: 0
Flags: W
HStem: -270 64<272.421 304.997>
VStem: 194 68<-202.884 -29.3666> 306 60<-204.338 -56.9628>
AnchorPoint: "bottom" 296 -239 basechar 0
AnchorPoint: "top" 246 447 basechar 0
LayerCount: 2
Fore
SplineSet
21 394 m 256
 21 395 22 425 51 425 c 256
 60 425 70 423 77 422 c 256
 116 420 128 420 163 406 c 257
 213 388 264 268 281 222 c 257
 303 298 334 381 391 438 c 256
 401 448 411 464 426 466 c 257
 429 466 l 258
 445 466 483 431 483 406 c 256
 483 399 480 392 474 386 c 256
 466 378 451 383 442 377 c 257
 380 339 361 251 341 173 c 256
 335 147 327 123 318 99 c 257
 340 19 360 -75 366 -157 c 257
 366 -166 l 258
 366 -196 359 -243 342 -258 c 256
 332 -267 313 -270 293 -270 c 256
 278 -270 263 -268 253 -263 c 256
 210 -242 194 -181 194 -138 c 256
 194 -61 212 -5 244 100 c 257
 228 153 212 202 195 240 c 257
 183 270 174 302 150 322 c 256
 130 339 125 346 98 352 c 256
 64 360 41 354 26 381 c 256
 23 386 21 389 21 394 c 256
278 -28 m 257
 272 -54 262 -100 262 -124 c 256
 262 -130 262 -134 263 -140 c 256
 268 -163 270 -206 292 -206 c 258
 294 -206 l 257
 303 -204 306 -190 306 -178 c 256
 306 -174 305 -172 305 -169 c 256
 299 -126 289 -77 278 -28 c 257
EndSplineSet
PickledDataWithLists: "(dp0
Vcom.fontlab.hintData\\u000d\\u000d\\u000d
p1
(dp2
Vhhints\\u000d\\u000d\\u000d
p3
(lp4
(dp5
Vposition\\u000d\\u000d\\u000d
p6
I-338
sVwidth\\u000d\\u000d\\u000d
p7
I81
sasVvhints\\u000d\\u000d\\u000d
p8
(lp9
(dp10
g6
I243
sg7
I84
sa(dp11
g6
I382
sg7
I75
sass."
EndChar

